<svg width="25" height="35" viewBox="0 0 25 35" fill="none" xmlns="http://www.w3.org/2000/svg">
<g clip-path="url(#clip0_275_1587)">
<path d="M24.5797 1.12155C24.3845 1.02849 24.1757 0.956902 23.9691 0.894862C23.2677 0.689653 22.5505 0.577504 21.8309 0.491603C19.2569 0.186176 16.6716 0.0382353 14.0817 0.00960155C10.1458 -0.0309629 6.21672 0.050166 2.31032 0.622841C1.66796 0.718287 1.02786 0.837595 0.428627 1.12155C0.172135 1.24324 -0.0344202 1.40788 0.0041671 1.76581C0.11085 2.77276 0.206183 3.77971 0.308325 4.78667C0.537579 7.07498 0.766833 9.36091 0.993817 11.6468C1.2208 13.9352 1.44551 16.2211 1.6725 18.5094C1.92218 21.022 2.17413 23.5346 2.42608 26.0472C2.65761 28.369 2.88005 30.6907 3.12293 33.01C3.22961 34.0337 3.33402 34.1315 4.28281 34.3797C4.30324 34.3844 4.32594 34.3868 4.34637 34.3916C5.56527 34.6851 6.80914 34.7614 8.04848 34.8688C8.49336 34.907 8.94733 34.864 9.38314 35.0001H15.5616C15.5843 34.9309 15.6434 34.9404 15.6956 34.938C16.8532 34.8927 18.0085 34.7996 19.1616 34.6588C19.8925 34.5705 20.6211 34.4632 21.3134 34.1768C21.6425 34.0408 21.8264 33.8165 21.8627 33.418C22.0874 31.0176 22.3348 28.6171 22.5709 26.2167C22.9704 22.1865 23.3653 18.1562 23.7648 14.126C24.1711 10.0505 24.5797 5.97497 24.9883 1.89943C25.0337 1.45083 24.961 1.30528 24.5797 1.12155ZM24.2551 3.99447C24.0009 6.56196 23.7444 9.13184 23.4879 11.6993C23.2382 14.2 22.984 16.7007 22.7343 19.2014C22.4869 21.7021 22.2418 24.2027 21.9944 26.7034C21.7765 28.9225 21.5563 31.1393 21.3361 33.356C21.2953 33.7664 20.9412 33.7068 20.6983 33.8094C19.5929 34.1076 18.4625 34.2055 17.3321 34.289C15.9407 34.3916 14.547 34.456 13.1511 34.4393H11.7211C10.3569 34.425 8.99273 34.4274 7.63536 34.2532C7.47194 34.4107 7.30851 34.2532 7.15189 34.2389C6.19629 34.1625 5.24068 34.0671 4.31005 33.807C3.71535 33.6567 3.71308 33.6567 3.64953 33.0124C3.25912 29.0967 2.87097 25.1811 2.48056 21.2678C2.0561 17.0228 1.62937 12.7803 1.20491 8.53769C1.00744 6.56912 0.81223 4.59816 0.619293 2.62959C0.610214 2.53176 0.617024 2.43154 0.617024 2.30269C1.51588 2.63198 2.43289 2.71311 3.33629 2.88252C4.18521 2.95888 5.03413 3.03524 5.88305 3.11159C6.421 3.14977 6.95895 3.18556 7.49917 3.22374C8.7544 3.25953 10.0096 3.31203 11.2648 3.32873C14.5584 3.37407 17.8474 3.26192 21.1273 2.92786C22.2236 2.81571 23.3177 2.66538 24.414 2.30507C24.3595 2.88968 24.3096 3.44327 24.2551 3.99447ZM22.866 2.12134C20.242 2.56039 17.5909 2.68447 14.9374 2.74651C12.0888 2.81571 9.24014 2.77992 6.39603 2.59141C4.74359 2.48165 3.09115 2.34325 1.46594 1.98533C1.17086 1.92091 0.875785 1.84932 0.555738 1.65843C1.17313 1.36016 1.77237 1.26233 2.36707 1.17404C6.564 0.551257 10.7859 0.503534 15.0101 0.584663C17.0575 0.622841 19.1026 0.730218 21.1386 0.96406C22.0738 1.07382 23.009 1.19074 23.9215 1.44606C24.0849 1.4914 24.2574 1.52958 24.4231 1.6799C23.9215 1.9567 23.3903 2.03305 22.866 2.12134Z" fill="#353F5E"/>
<path d="M24.4143 2.30493C24.3599 2.88954 24.3099 3.44312 24.2555 3.99432C24.0012 6.56182 23.7447 9.1317 23.4883 11.6992C23.2386 14.1999 22.9843 16.7006 22.7347 19.2012C22.4873 21.7019 22.2421 24.2026 21.9947 26.7033C21.7768 28.9224 21.5566 31.1391 21.3364 33.3559C21.2956 33.7663 20.9415 33.7066 20.6986 33.8092C19.5932 34.1075 18.4628 34.2053 17.3325 34.2888C15.941 34.3914 14.5474 34.4559 13.1514 34.4392C13.0992 34.3867 13.0334 34.3962 12.9698 34.3867C12.3093 34.2793 11.642 34.2077 11.0087 33.9667C10.5933 33.8092 10.5093 33.6756 10.4889 33.2151C10.473 32.8977 10.4412 32.5827 10.4094 32.2678C10.3096 31.2441 10.2006 30.2205 10.0985 29.1968C10.0054 28.2614 9.91916 27.3261 9.8261 26.3931C9.72395 25.3909 9.615 24.3911 9.51513 23.3889C9.41979 22.4321 9.33581 21.4752 9.24048 20.5184C9.1406 19.4828 9.03392 18.4472 8.92724 17.4116C8.8478 16.6481 8.757 15.8845 8.68437 15.1185C8.60719 14.2953 8.54364 13.4721 8.47554 12.6489C8.45511 12.625 8.43469 12.6012 8.41653 12.5773C8.37113 11.9641 8.32573 11.3508 8.28034 10.7376C8.25764 10.7352 8.23494 10.7304 8.21224 10.7256C8.24175 10.0671 8.12145 9.42042 8.06697 8.76662C7.98753 7.78114 7.86269 6.79805 7.76054 5.81257C7.66975 4.94878 7.58577 4.08738 7.49951 3.2236C8.75473 3.25939 10.01 3.31189 11.2652 3.32859C14.5587 3.37393 17.8477 3.26178 21.1276 2.92772C22.224 2.81557 23.318 2.66524 24.4143 2.30493Z" fill="#F7F9FB"/>
<path d="M0.556152 1.65832C1.17355 1.36005 1.77279 1.26222 2.36748 1.17393C6.56441 0.551148 10.7863 0.503425 15.0105 0.584554C17.0579 0.622733 19.1007 0.730109 21.1368 0.963952C22.072 1.07133 23.0071 1.18825 23.9196 1.44595C24.083 1.49129 24.2555 1.52947 24.4212 1.6798C23.9196 1.95659 23.3885 2.03295 22.8664 2.12123C20.2402 2.56028 17.5913 2.68436 14.9378 2.74879C12.0892 2.81799 9.24055 2.7822 6.39645 2.59369C4.744 2.48393 3.09156 2.34553 1.46636 1.98761C1.17128 1.92318 0.8762 1.8516 0.556152 1.66071V1.65832Z" fill="#E9EFF4"/>
<path d="M11.7212 34.4394C10.3571 34.425 8.9929 34.4274 7.63554 34.2532C7.47211 34.4107 7.30868 34.2532 7.15206 34.2389C6.19646 34.1626 5.24086 34.0671 4.31022 33.807C3.71553 33.6567 3.71326 33.6567 3.6497 33.0124C3.25929 29.0968 2.87115 25.1811 2.48073 21.2678C2.05628 17.0229 1.62955 12.7803 1.20509 8.53774C1.00761 6.56916 0.812404 4.59821 0.619467 2.62964C0.610388 2.5318 0.617198 2.43159 0.617198 2.30273C1.51605 2.63202 2.43307 2.71315 3.33646 2.88257C4.18538 2.95892 5.0343 3.03528 5.88322 3.11164C5.92635 3.6175 5.9604 4.12336 6.0126 4.62923C6.13517 5.81991 6.26683 7.00822 6.39167 8.1989C6.48246 9.06269 6.56644 9.92886 6.6527 10.7926C6.64816 10.8046 6.64816 10.8165 6.65043 10.8284C6.67994 11.3916 6.79797 11.9475 6.78662 12.5131C6.80705 12.5131 6.82521 12.5131 6.84563 12.5154C6.82974 13.1645 6.94778 13.8016 6.99998 14.4434C7.08397 15.4576 7.202 16.4693 7.30414 17.481C7.37678 18.2255 7.44487 18.9676 7.51751 19.7121C7.59695 20.4876 7.68093 21.2631 7.75811 22.0386C7.83074 22.783 7.8943 23.5275 7.9692 24.2696C8.06681 25.2479 8.1803 26.2262 8.27563 27.2046C8.37323 28.1829 8.45495 29.1636 8.55482 30.1443C8.65015 31.1107 8.775 32.0747 8.85671 33.0435C8.918 33.7712 8.93161 33.819 9.59895 34.0409C9.69201 34.0719 9.78734 34.091 9.88041 34.1196C10.4819 34.2962 11.1061 34.3368 11.7212 34.4394Z" fill="#F7F9FB"/>
<path d="M13.1513 34.4393H11.7213C11.1062 34.3367 10.482 34.2961 9.88049 34.1196C9.78742 34.0909 9.69209 34.0718 9.59903 34.0408C8.93169 33.8189 8.91807 33.7712 8.85679 33.0434C8.77507 32.0746 8.65023 31.1106 8.5549 30.1442C8.45503 29.1635 8.37331 28.1828 8.27571 27.2045C8.18038 26.2262 8.06689 25.2479 7.96928 24.2695C7.89438 23.5274 7.83082 22.783 7.75819 22.0385C7.68101 21.263 7.59703 20.4875 7.51758 19.712C7.44495 18.9675 7.37685 18.2254 7.30422 17.4809C7.20208 16.4692 7.08405 15.4575 7.00006 14.4434C6.94785 13.8015 6.82982 13.1644 6.84571 12.5154C6.82528 12.513 6.80712 12.513 6.7867 12.513C6.79805 11.9475 6.68001 11.3915 6.65051 10.8284C6.65051 10.8164 6.65051 10.8045 6.65278 10.7926C6.56652 9.92879 6.48254 9.06262 6.39174 8.19884C6.2669 7.00815 6.13525 5.81985 6.01268 4.62916C5.96048 4.1233 5.92643 3.61744 5.8833 3.11157C6.42125 3.14975 6.9592 3.18554 7.49943 3.22372C7.58568 4.08751 7.66966 4.94891 7.76046 5.81269C7.8626 6.79817 7.98744 7.78126 8.06689 8.76674C8.12136 9.42054 8.24166 10.0672 8.21216 10.7258C8.23485 10.7305 8.25755 10.7353 8.28025 10.7377C8.32565 11.3509 8.37104 11.9642 8.41644 12.5774C8.4346 12.6013 8.45503 12.6251 8.47546 12.649C8.54355 13.4722 8.60711 14.2954 8.68428 15.1187C8.75692 15.8846 8.84771 16.6482 8.92715 17.4117C9.03384 18.4473 9.14052 19.4829 9.24039 20.5185C9.33572 21.4754 9.41971 22.4322 9.51504 23.389C9.61491 24.3912 9.72387 25.391 9.82601 26.3932C9.91907 27.3262 10.0053 28.2616 10.0984 29.1969C10.2005 30.2206 10.3095 31.2442 10.4094 32.2679C10.4411 32.5829 10.4729 32.8978 10.4888 33.2152C10.5092 33.6757 10.5932 33.8094 11.0086 33.9668C11.6419 34.2078 12.3092 34.2794 12.9697 34.3868C13.0333 34.3963 13.0991 34.3868 13.1513 34.4393Z" fill="white"/>
<path d="M12.4727 14.2478V23.0765" stroke="#0E598C" stroke-width="2" stroke-miterlimit="10"/>
<path d="M16.6718 18.6621H8.27344" stroke="#0E598C" stroke-width="2" stroke-miterlimit="10"/>
</g>
<defs>
<clipPath id="clip0_275_1587">
<rect width="25" height="35" fill="white"/>
</clipPath>
</defs>
</svg>
