<svg width="334" height="17" viewBox="0 0 334 17" fill="none" xmlns="http://www.w3.org/2000/svg">
<path d="M7.89595 11V5.18182H9.86186C10.3183 5.18182 10.6914 5.2642 10.9812 5.42898C11.2728 5.59186 11.4888 5.8125 11.6289 6.09091C11.7691 6.36932 11.8391 6.67992 11.8391 7.02273C11.8391 7.36553 11.7691 7.67708 11.6289 7.95739C11.4906 8.23769 11.2766 8.46117 10.9869 8.62784C10.6971 8.79261 10.3259 8.875 9.87322 8.875H8.46413V8.25H9.8505C10.163 8.25 10.4139 8.19602 10.6033 8.08807C10.7927 7.98011 10.93 7.83428 11.0153 7.65057C11.1024 7.46496 11.146 7.25568 11.146 7.02273C11.146 6.78977 11.1024 6.58144 11.0153 6.39773C10.93 6.21402 10.7918 6.07008 10.6005 5.96591C10.4092 5.85985 10.1554 5.80682 9.83913 5.80682H8.6005V11H7.89595ZM14.6658 11.0909C14.2454 11.0909 13.8827 10.9981 13.5778 10.8125C13.2747 10.625 13.0408 10.3636 12.8761 10.0284C12.7132 9.69129 12.6317 9.29924 12.6317 8.85227C12.6317 8.4053 12.7132 8.01136 12.8761 7.67045C13.0408 7.32765 13.27 7.06061 13.5636 6.86932C13.859 6.67614 14.2037 6.57955 14.5977 6.57955C14.8249 6.57955 15.0494 6.61742 15.271 6.69318C15.4925 6.76894 15.6942 6.89205 15.8761 7.0625C16.0579 7.23106 16.2028 7.45455 16.3107 7.73295C16.4187 8.01136 16.4727 8.35417 16.4727 8.76136V9.04545H13.109V8.46591H15.7908C15.7908 8.2197 15.7416 8 15.6431 7.80682C15.5465 7.61364 15.4083 7.46117 15.2283 7.34943C15.0503 7.23769 14.8401 7.18182 14.5977 7.18182C14.3306 7.18182 14.0996 7.24811 13.9045 7.38068C13.7113 7.51136 13.5626 7.68182 13.4585 7.89205C13.3543 8.10227 13.3022 8.32765 13.3022 8.56818V8.95455C13.3022 9.28409 13.359 9.56345 13.4727 9.79261C13.5882 10.0199 13.7482 10.1932 13.9528 10.3125C14.1573 10.4299 14.395 10.4886 14.6658 10.4886C14.842 10.4886 15.0011 10.464 15.1431 10.4148C15.2871 10.3636 15.4111 10.2879 15.5153 10.1875C15.6194 10.0852 15.6999 9.95833 15.7567 9.80682L16.4045 9.98864C16.3363 10.2083 16.2217 10.4015 16.0607 10.5682C15.8997 10.733 15.7009 10.8617 15.4641 10.9545C15.2274 11.0455 14.9613 11.0909 14.6658 11.0909ZM18.163 5.18182V11H17.4925V5.18182H18.163ZM22.9592 6.63636L21.3455 11H20.6637L19.0501 6.63636H19.7773L20.9819 10.1136H21.0273L22.2319 6.63636H22.9592ZM23.8441 11V6.63636H24.5146V11H23.8441ZM24.185 5.90909C24.0543 5.90909 23.9416 5.86458 23.8469 5.77557C23.7541 5.68655 23.7077 5.57955 23.7077 5.45455C23.7077 5.32955 23.7541 5.22254 23.8469 5.13352C23.9416 5.04451 24.0543 5 24.185 5C24.3157 5 24.4274 5.04451 24.5202 5.13352C24.6149 5.22254 24.6623 5.32955 24.6623 5.45455C24.6623 5.57955 24.6149 5.68655 24.5202 5.77557C24.4274 5.86458 24.3157 5.90909 24.185 5.90909ZM27.5153 11.0909C27.1062 11.0909 26.7539 10.9943 26.4585 10.8011C26.163 10.608 25.9357 10.3419 25.7766 10.0028C25.6175 9.66383 25.538 9.27652 25.538 8.84091C25.538 8.39773 25.6194 8.00663 25.7823 7.66761C25.9471 7.3267 26.1763 7.06061 26.4698 6.86932C26.7653 6.67614 27.11 6.57955 27.5039 6.57955C27.8107 6.57955 28.0872 6.63636 28.3335 6.75C28.5797 6.86364 28.7814 7.02273 28.9386 7.22727C29.0958 7.43182 29.1933 7.67045 29.2312 7.94318H28.5607C28.5096 7.74432 28.396 7.56818 28.2198 7.41477C28.0456 7.25947 27.8107 7.18182 27.5153 7.18182C27.2539 7.18182 27.0247 7.25 26.8278 7.38636C26.6327 7.52083 26.4802 7.71117 26.3704 7.95739C26.2624 8.2017 26.2085 8.48864 26.2085 8.81818C26.2085 9.1553 26.2615 9.44886 26.3675 9.69886C26.4755 9.94886 26.627 10.143 26.8221 10.2812C27.0191 10.4195 27.2501 10.4886 27.5153 10.4886C27.6895 10.4886 27.8477 10.4583 27.9897 10.3977C28.1317 10.3371 28.252 10.25 28.3505 10.1364C28.449 10.0227 28.5191 9.88636 28.5607 9.72727H29.2312C29.1933 9.98485 29.0996 10.2169 28.9499 10.4233C28.8022 10.6278 28.6062 10.7907 28.3619 10.9119C28.1194 11.0312 27.8372 11.0909 27.5153 11.0909ZM32.4613 12.6364V6.63636H33.109V7.32955H33.1886C33.2378 7.25379 33.306 7.1572 33.3931 7.03977C33.4821 6.92045 33.609 6.81439 33.7738 6.72159C33.9405 6.62689 34.1658 6.57955 34.4499 6.57955C34.8174 6.57955 35.1412 6.6714 35.4215 6.85511C35.7018 7.03883 35.9206 7.29924 36.0778 7.63636C36.235 7.97348 36.3136 8.37121 36.3136 8.82955C36.3136 9.29167 36.235 9.69223 36.0778 10.0312C35.9206 10.3684 35.7028 10.6297 35.4244 10.8153C35.146 10.9991 34.8249 11.0909 34.4613 11.0909C34.181 11.0909 33.9566 11.0445 33.788 10.9517C33.6194 10.857 33.4897 10.75 33.3988 10.6307C33.3079 10.5095 33.2378 10.4091 33.1886 10.3295H33.1317V12.6364H32.4613ZM33.1204 8.81818C33.1204 9.14773 33.1687 9.43845 33.2653 9.69034C33.3619 9.94034 33.503 10.1364 33.6886 10.2784C33.8742 10.4186 34.1014 10.4886 34.3704 10.4886C34.6507 10.4886 34.8846 10.4148 35.0721 10.267C35.2615 10.1174 35.4035 9.91667 35.4982 9.66477C35.5948 9.41098 35.6431 9.12879 35.6431 8.81818C35.6431 8.51136 35.5958 8.23485 35.5011 7.98864C35.4083 7.74053 35.2672 7.54451 35.0778 7.40057C34.8903 7.25473 34.6545 7.18182 34.3704 7.18182C34.0977 7.18182 33.8685 7.25095 33.6829 7.3892C33.4973 7.52557 33.3571 7.71686 33.2624 7.96307C33.1677 8.20739 33.1204 8.49242 33.1204 8.81818ZM38.6204 11.1023C38.3439 11.1023 38.0929 11.0502 37.8675 10.946C37.6422 10.84 37.4632 10.6875 37.3306 10.4886C37.198 10.2879 37.1317 10.0455 37.1317 9.76136C37.1317 9.51136 37.181 9.30871 37.2795 9.15341C37.378 8.99621 37.5096 8.87311 37.6744 8.78409C37.8391 8.69508 38.021 8.62879 38.2198 8.58523C38.4206 8.53977 38.6223 8.50379 38.8249 8.47727C39.0901 8.44318 39.305 8.41761 39.4698 8.40057C39.6365 8.38163 39.7577 8.35038 39.8335 8.30682C39.9111 8.26326 39.9499 8.1875 39.9499 8.07955V8.05682C39.9499 7.77652 39.8732 7.55871 39.7198 7.40341C39.5683 7.24811 39.3382 7.17045 39.0295 7.17045C38.7094 7.17045 38.4585 7.24053 38.2766 7.38068C38.0948 7.52083 37.967 7.67045 37.8931 7.82955L37.2567 7.60227C37.3704 7.33712 37.5219 7.13068 37.7113 6.98295C37.9026 6.83333 38.1109 6.72917 38.3363 6.67045C38.5636 6.60985 38.7871 6.57955 39.0067 6.57955C39.1469 6.57955 39.3079 6.59659 39.4897 6.63068C39.6734 6.66288 39.8505 6.73011 40.021 6.83239C40.1933 6.93466 40.3363 7.08902 40.4499 7.29545C40.5636 7.50189 40.6204 7.77841 40.6204 8.125V11H39.9499V10.4091H39.9158C39.8704 10.5038 39.7946 10.6051 39.6886 10.7131C39.5825 10.821 39.4414 10.9129 39.2653 10.9886C39.0891 11.0644 38.8742 11.1023 38.6204 11.1023ZM38.7227 10.5C38.9878 10.5 39.2113 10.4479 39.3931 10.3438C39.5768 10.2396 39.7151 10.1051 39.8079 9.94034C39.9026 9.77557 39.9499 9.60227 39.9499 9.42045V8.80682C39.9215 8.84091 39.859 8.87216 39.7624 8.90057C39.6677 8.92708 39.5579 8.95076 39.4329 8.97159C39.3098 8.99053 39.1895 9.00758 39.0721 9.02273C38.9566 9.03598 38.8628 9.04735 38.7908 9.05682C38.6166 9.07955 38.4537 9.11648 38.3022 9.16761C38.1526 9.21686 38.0314 9.29167 37.9386 9.39205C37.8477 9.49053 37.8022 9.625 37.8022 9.79545C37.8022 10.0284 37.8884 10.2045 38.0607 10.3239C38.235 10.4413 38.4556 10.5 38.7227 10.5ZM41.8441 11V6.63636H42.5146V11H41.8441ZM42.185 5.90909C42.0543 5.90909 41.9416 5.86458 41.8469 5.77557C41.7541 5.68655 41.7077 5.57955 41.7077 5.45455C41.7077 5.32955 41.7541 5.22254 41.8469 5.13352C41.9416 5.04451 42.0543 5 42.185 5C42.3157 5 42.4274 5.04451 42.5202 5.13352C42.6149 5.22254 42.6623 5.32955 42.6623 5.45455C42.6623 5.57955 42.6149 5.68655 42.5202 5.77557C42.4274 5.86458 42.3157 5.90909 42.185 5.90909ZM44.413 8.375V11H43.7425V6.63636H44.3903V7.31818H44.4471C44.5494 7.09659 44.7047 6.91856 44.913 6.78409C45.1213 6.64773 45.3903 6.57955 45.7198 6.57955C46.0153 6.57955 46.2738 6.64015 46.4954 6.76136C46.717 6.88068 46.8893 7.0625 47.0124 7.30682C47.1355 7.54924 47.1971 7.85606 47.1971 8.22727V11H46.5266V8.27273C46.5266 7.92992 46.4376 7.66288 46.2596 7.47159C46.0816 7.27841 45.8372 7.18182 45.5266 7.18182C45.3126 7.18182 45.1213 7.22822 44.9528 7.32102C44.7861 7.41383 44.6545 7.54924 44.5579 7.72727C44.4613 7.9053 44.413 8.12121 44.413 8.375Z" fill="black"/>
<path d="M90.652 7H89.9474C89.9058 6.79735 89.8329 6.61932 89.7287 6.46591C89.6264 6.3125 89.5014 6.18371 89.3537 6.07955C89.2079 5.97348 89.0459 5.89394 88.8679 5.84091C88.6899 5.78788 88.5043 5.76136 88.3111 5.76136C87.9588 5.76136 87.6397 5.85038 87.3537 6.02841C87.0696 6.20644 86.8433 6.46875 86.6747 6.81534C86.508 7.16193 86.4247 7.58712 86.4247 8.09091C86.4247 8.5947 86.508 9.01989 86.6747 9.36648C86.8433 9.71307 87.0696 9.97538 87.3537 10.1534C87.6397 10.3314 87.9588 10.4205 88.3111 10.4205C88.5043 10.4205 88.6899 10.3939 88.8679 10.3409C89.0459 10.2879 89.2079 10.2093 89.3537 10.1051C89.5014 9.99905 89.6264 9.86932 89.7287 9.71591C89.8329 9.56061 89.9058 9.38258 89.9474 9.18182H90.652C90.599 9.47917 90.5024 9.74527 90.3622 9.98011C90.2221 10.215 90.0478 10.4148 89.8395 10.5795C89.6312 10.7424 89.3973 10.8665 89.1378 10.9517C88.8802 11.0369 88.6046 11.0795 88.3111 11.0795C87.8149 11.0795 87.3736 10.9583 86.9872 10.7159C86.6009 10.4735 86.2969 10.1288 86.0753 9.68182C85.8537 9.23485 85.7429 8.70455 85.7429 8.09091C85.7429 7.47727 85.8537 6.94697 86.0753 6.5C86.2969 6.05303 86.6009 5.70833 86.9872 5.46591C87.3736 5.22348 87.8149 5.10227 88.3111 5.10227C88.6046 5.10227 88.8802 5.14489 89.1378 5.23011C89.3973 5.31534 89.6312 5.44034 89.8395 5.60511C90.0478 5.76799 90.2221 5.96686 90.3622 6.2017C90.5024 6.43466 90.599 6.70076 90.652 7ZM93.5291 11.0909C93.1087 11.0909 92.746 10.9981 92.4411 10.8125C92.138 10.625 91.9041 10.3636 91.7393 10.0284C91.5765 9.69129 91.495 9.29924 91.495 8.85227C91.495 8.4053 91.5765 8.01136 91.7393 7.67045C91.9041 7.32765 92.1333 7.06061 92.4268 6.86932C92.7223 6.67614 93.067 6.57955 93.4609 6.57955C93.6882 6.57955 93.9126 6.61742 94.1342 6.69318C94.3558 6.76894 94.5575 6.89205 94.7393 7.0625C94.9212 7.23106 95.0661 7.45455 95.174 7.73295C95.282 8.01136 95.3359 8.35417 95.3359 8.76136V9.04545H91.9723V8.46591H94.6541C94.6541 8.2197 94.6049 8 94.5064 7.80682C94.4098 7.61364 94.2715 7.46117 94.0916 7.34943C93.9136 7.23769 93.7034 7.18182 93.4609 7.18182C93.1939 7.18182 92.9628 7.24811 92.7678 7.38068C92.5746 7.51136 92.4259 7.68182 92.3217 7.89205C92.2176 8.10227 92.1655 8.32765 92.1655 8.56818V8.95455C92.1655 9.28409 92.2223 9.56345 92.3359 9.79261C92.4515 10.0199 92.6115 10.1932 92.8161 10.3125C93.0206 10.4299 93.2583 10.4886 93.5291 10.4886C93.7053 10.4886 93.8643 10.464 94.0064 10.4148C94.1503 10.3636 94.2744 10.2879 94.3786 10.1875C94.4827 10.0852 94.5632 9.95833 94.62 9.80682L95.2678 9.98864C95.1996 10.2083 95.085 10.4015 94.924 10.5682C94.763 10.733 94.5642 10.8617 94.3274 10.9545C94.0907 11.0455 93.8246 11.0909 93.5291 11.0909ZM96.3558 11V6.63636H97.0036V7.29545H97.049C97.1286 7.07955 97.2725 6.90436 97.4808 6.76989C97.6892 6.63542 97.924 6.56818 98.1854 6.56818C98.2346 6.56818 98.2962 6.56913 98.37 6.57102C98.4439 6.57292 98.4998 6.57576 98.5376 6.57955V7.26136C98.5149 7.25568 98.4628 7.24716 98.3814 7.2358C98.3018 7.22254 98.2176 7.21591 98.1286 7.21591C97.9164 7.21591 97.727 7.26042 97.5604 7.34943C97.3956 7.43655 97.2649 7.55777 97.1683 7.71307C97.0736 7.86648 97.0263 8.04167 97.0263 8.23864V11H96.3558ZM103.033 6.63636L101.42 11H100.738L99.1243 6.63636H99.8516L101.056 10.1136H101.102L102.306 6.63636H103.033ZM103.918 11V6.63636H104.589V11H103.918ZM104.259 5.90909C104.129 5.90909 104.016 5.86458 103.921 5.77557C103.828 5.68655 103.782 5.57955 103.782 5.45455C103.782 5.32955 103.828 5.22254 103.921 5.13352C104.016 5.04451 104.129 5 104.259 5C104.39 5 104.502 5.04451 104.594 5.13352C104.689 5.22254 104.737 5.32955 104.737 5.45455C104.737 5.57955 104.689 5.68655 104.594 5.77557C104.502 5.86458 104.39 5.90909 104.259 5.90909ZM107.589 11.0909C107.18 11.0909 106.828 10.9943 106.533 10.8011C106.237 10.608 106.01 10.3419 105.851 10.0028C105.692 9.66383 105.612 9.27652 105.612 8.84091C105.612 8.39773 105.694 8.00663 105.857 7.66761C106.021 7.3267 106.25 7.06061 106.544 6.86932C106.839 6.67614 107.184 6.57955 107.578 6.57955C107.885 6.57955 108.161 6.63636 108.408 6.75C108.654 6.86364 108.856 7.02273 109.013 7.22727C109.17 7.43182 109.268 7.67045 109.305 7.94318H108.635C108.584 7.74432 108.47 7.56818 108.294 7.41477C108.12 7.25947 107.885 7.18182 107.589 7.18182C107.328 7.18182 107.099 7.25 106.902 7.38636C106.707 7.52083 106.554 7.71117 106.445 7.95739C106.337 8.2017 106.283 8.48864 106.283 8.81818C106.283 9.1553 106.336 9.44886 106.442 9.69886C106.55 9.94886 106.701 10.143 106.896 10.2812C107.093 10.4195 107.324 10.4886 107.589 10.4886C107.764 10.4886 107.922 10.4583 108.064 10.3977C108.206 10.3371 108.326 10.25 108.425 10.1364C108.523 10.0227 108.593 9.88636 108.635 9.72727H109.305C109.268 9.98485 109.174 10.2169 109.024 10.4233C108.876 10.6278 108.68 10.7907 108.436 10.9119C108.194 11.0312 107.911 11.0909 107.589 11.0909ZM111.57 11.1023C111.293 11.1023 111.042 11.0502 110.817 10.946C110.591 10.84 110.412 10.6875 110.28 10.4886C110.147 10.2879 110.081 10.0455 110.081 9.76136C110.081 9.51136 110.13 9.30871 110.229 9.15341C110.327 8.99621 110.459 8.87311 110.624 8.78409C110.788 8.69508 110.97 8.62879 111.169 8.58523C111.37 8.53977 111.571 8.50379 111.774 8.47727C112.039 8.44318 112.254 8.41761 112.419 8.40057C112.586 8.38163 112.707 8.35038 112.783 8.30682C112.86 8.26326 112.899 8.1875 112.899 8.07955V8.05682C112.899 7.77652 112.822 7.55871 112.669 7.40341C112.518 7.24811 112.287 7.17045 111.979 7.17045C111.659 7.17045 111.408 7.24053 111.226 7.38068C111.044 7.52083 110.916 7.67045 110.842 7.82955L110.206 7.60227C110.32 7.33712 110.471 7.13068 110.661 6.98295C110.852 6.83333 111.06 6.72917 111.286 6.67045C111.513 6.60985 111.736 6.57955 111.956 6.57955C112.096 6.57955 112.257 6.59659 112.439 6.63068C112.623 6.66288 112.8 6.73011 112.97 6.83239C113.143 6.93466 113.286 7.08902 113.399 7.29545C113.513 7.50189 113.57 7.77841 113.57 8.125V11H112.899V10.4091H112.865C112.82 10.5038 112.744 10.6051 112.638 10.7131C112.532 10.821 112.391 10.9129 112.214 10.9886C112.038 11.0644 111.823 11.1023 111.57 11.1023ZM111.672 10.5C111.937 10.5 112.161 10.4479 112.342 10.3438C112.526 10.2396 112.664 10.1051 112.757 9.94034C112.852 9.77557 112.899 9.60227 112.899 9.42045V8.80682C112.871 8.84091 112.808 8.87216 112.712 8.90057C112.617 8.92708 112.507 8.95076 112.382 8.97159C112.259 8.99053 112.139 9.00758 112.021 9.02273C111.906 9.03598 111.812 9.04735 111.74 9.05682C111.566 9.07955 111.403 9.11648 111.251 9.16761C111.102 9.21686 110.981 9.29167 110.888 9.39205C110.797 9.49053 110.751 9.625 110.751 9.79545C110.751 10.0284 110.838 10.2045 111.01 10.3239C111.184 10.4413 111.405 10.5 111.672 10.5ZM115.464 5.18182V11H114.793V5.18182H115.464ZM120.885 6.63636V7.20455H118.533V6.63636H120.885ZM119.237 11V6.03409C119.237 5.78409 119.296 5.57576 119.413 5.40909C119.531 5.24242 119.683 5.11742 119.871 5.03409C120.058 4.95076 120.256 4.90909 120.464 4.90909C120.629 4.90909 120.764 4.92235 120.868 4.94886C120.972 4.97538 121.05 5 121.101 5.02273L120.908 5.60227C120.874 5.59091 120.826 5.5767 120.766 5.55966C120.707 5.54261 120.629 5.53409 120.533 5.53409C120.311 5.53409 120.151 5.58996 120.053 5.7017C119.956 5.81345 119.908 5.97727 119.908 6.19318V11H119.237ZM121.825 11V6.63636H122.495V11H121.825ZM122.165 5.90909C122.035 5.90909 121.922 5.86458 121.827 5.77557C121.735 5.68655 121.688 5.57955 121.688 5.45455C121.688 5.32955 121.735 5.22254 121.827 5.13352C121.922 5.04451 122.035 5 122.165 5C122.296 5 122.408 5.04451 122.501 5.13352C122.595 5.22254 122.643 5.32955 122.643 5.45455C122.643 5.57955 122.595 5.68655 122.501 5.77557C122.408 5.86458 122.296 5.90909 122.165 5.90909ZM123.723 11V6.63636H124.371V7.29545H124.416C124.496 7.07955 124.64 6.90436 124.848 6.76989C125.056 6.63542 125.291 6.56818 125.553 6.56818C125.602 6.56818 125.663 6.56913 125.737 6.57102C125.811 6.57292 125.867 6.57576 125.905 6.57955V7.26136C125.882 7.25568 125.83 7.24716 125.749 7.2358C125.669 7.22254 125.585 7.21591 125.496 7.21591C125.284 7.21591 125.094 7.26042 124.928 7.34943C124.763 7.43655 124.632 7.55777 124.536 7.71307C124.441 7.86648 124.393 8.04167 124.393 8.23864V11H123.723ZM126.7 11V6.63636H127.347V7.31818H127.404C127.495 7.08523 127.642 6.90436 127.844 6.77557C128.047 6.64489 128.29 6.57955 128.575 6.57955C128.862 6.57955 129.102 6.64489 129.293 6.77557C129.487 6.90436 129.637 7.08523 129.745 7.31818H129.79C129.902 7.0928 130.07 6.91383 130.293 6.78125C130.517 6.64678 130.785 6.57955 131.097 6.57955C131.487 6.57955 131.807 6.7017 132.055 6.94602C132.303 7.18845 132.427 7.56629 132.427 8.07955V11H131.756V8.07955C131.756 7.75758 131.668 7.52746 131.492 7.3892C131.316 7.25095 131.109 7.18182 130.87 7.18182C130.563 7.18182 130.326 7.27462 130.157 7.46023C129.988 7.64394 129.904 7.87689 129.904 8.15909V11H129.222V8.01136C129.222 7.76326 129.142 7.56345 128.981 7.41193C128.82 7.25852 128.612 7.18182 128.359 7.18182C128.184 7.18182 128.022 7.22822 127.87 7.32102C127.72 7.41383 127.599 7.54261 127.506 7.70739C127.415 7.87027 127.37 8.05871 127.37 8.27273V11H126.7ZM134.323 8.375V11H133.653V6.63636H134.3V7.31818H134.357C134.46 7.09659 134.615 6.91856 134.823 6.78409C135.031 6.64773 135.3 6.57955 135.63 6.57955C135.925 6.57955 136.184 6.64015 136.406 6.76136C136.627 6.88068 136.799 7.0625 136.923 7.30682C137.046 7.54924 137.107 7.85606 137.107 8.22727V11H136.437V8.27273C136.437 7.92992 136.348 7.66288 136.17 7.47159C135.992 7.27841 135.747 7.18182 135.437 7.18182C135.223 7.18182 135.031 7.22822 134.863 7.32102C134.696 7.41383 134.565 7.54924 134.468 7.72727C134.371 7.9053 134.323 8.12121 134.323 8.375ZM140.162 11.0909C139.741 11.0909 139.379 10.9981 139.074 10.8125C138.771 10.625 138.537 10.3636 138.372 10.0284C138.209 9.69129 138.128 9.29924 138.128 8.85227C138.128 8.4053 138.209 8.01136 138.372 7.67045C138.537 7.32765 138.766 7.06061 139.06 6.86932C139.355 6.67614 139.7 6.57955 140.094 6.57955C140.321 6.57955 140.545 6.61742 140.767 6.69318C140.989 6.76894 141.19 6.89205 141.372 7.0625C141.554 7.23106 141.699 7.45455 141.807 7.73295C141.915 8.01136 141.969 8.35417 141.969 8.76136V9.04545H138.605V8.46591H141.287C141.287 8.2197 141.238 8 141.139 7.80682C141.043 7.61364 140.904 7.46117 140.724 7.34943C140.546 7.23769 140.336 7.18182 140.094 7.18182C139.827 7.18182 139.596 7.24811 139.401 7.38068C139.207 7.51136 139.059 7.68182 138.955 7.89205C138.85 8.10227 138.798 8.32765 138.798 8.56818V8.95455C138.798 9.28409 138.855 9.56345 138.969 9.79261C139.084 10.0199 139.244 10.1932 139.449 10.3125C139.653 10.4299 139.891 10.4886 140.162 10.4886C140.338 10.4886 140.497 10.464 140.639 10.4148C140.783 10.3636 140.907 10.2879 141.011 10.1875C141.116 10.0852 141.196 9.95833 141.253 9.80682L141.901 9.98864C141.832 10.2083 141.718 10.4015 141.557 10.5682C141.396 10.733 141.197 10.8617 140.96 10.9545C140.723 11.0455 140.457 11.0909 140.162 11.0909ZM146.08 7.61364L145.477 7.78409C145.439 7.68371 145.384 7.58617 145.31 7.49148C145.238 7.39489 145.139 7.31534 145.014 7.25284C144.889 7.19034 144.729 7.15909 144.534 7.15909C144.267 7.15909 144.045 7.22064 143.866 7.34375C143.69 7.46496 143.602 7.61932 143.602 7.80682C143.602 7.97348 143.663 8.10511 143.784 8.2017C143.905 8.2983 144.095 8.37879 144.352 8.44318L145 8.60227C145.39 8.69697 145.681 8.84186 145.872 9.03693C146.063 9.23011 146.159 9.47917 146.159 9.78409C146.159 10.0341 146.087 10.2576 145.943 10.4545C145.801 10.6515 145.602 10.8068 145.347 10.9205C145.091 11.0341 144.794 11.0909 144.455 11.0909C144.009 11.0909 143.641 10.9943 143.349 10.8011C143.058 10.608 142.873 10.3258 142.795 9.95455L143.432 9.79545C143.492 10.0303 143.607 10.2064 143.776 10.3239C143.946 10.4413 144.169 10.5 144.443 10.5C144.756 10.5 145.004 10.4337 145.188 10.3011C145.373 10.1667 145.466 10.0057 145.466 9.81818C145.466 9.66667 145.413 9.53977 145.307 9.4375C145.201 9.33333 145.038 9.25568 144.818 9.20455L144.091 9.03409C143.691 8.93939 143.398 8.79261 143.21 8.59375C143.025 8.39299 142.932 8.14205 142.932 7.84091C142.932 7.5947 143.001 7.37689 143.139 7.1875C143.279 6.99811 143.47 6.84943 143.71 6.74148C143.953 6.63352 144.227 6.57955 144.534 6.57955C144.966 6.57955 145.305 6.67424 145.551 6.86364C145.799 7.05303 145.975 7.30303 146.08 7.61364ZM150.259 7.61364L149.657 7.78409C149.619 7.68371 149.563 7.58617 149.489 7.49148C149.417 7.39489 149.319 7.31534 149.194 7.25284C149.069 7.19034 148.909 7.15909 148.714 7.15909C148.447 7.15909 148.224 7.22064 148.046 7.34375C147.87 7.46496 147.782 7.61932 147.782 7.80682C147.782 7.97348 147.843 8.10511 147.964 8.2017C148.085 8.2983 148.274 8.37879 148.532 8.44318L149.18 8.60227C149.57 8.69697 149.861 8.84186 150.052 9.03693C150.243 9.23011 150.339 9.47917 150.339 9.78409C150.339 10.0341 150.267 10.2576 150.123 10.4545C149.981 10.6515 149.782 10.8068 149.526 10.9205C149.271 11.0341 148.973 11.0909 148.634 11.0909C148.189 11.0909 147.821 10.9943 147.529 10.8011C147.237 10.608 147.053 10.3258 146.975 9.95455L147.612 9.79545C147.672 10.0303 147.787 10.2064 147.955 10.3239C148.126 10.4413 148.348 10.5 148.623 10.5C148.935 10.5 149.183 10.4337 149.367 10.3011C149.553 10.1667 149.646 10.0057 149.646 9.81818C149.646 9.66667 149.593 9.53977 149.487 9.4375C149.38 9.33333 149.218 9.25568 148.998 9.20455L148.271 9.03409C147.871 8.93939 147.577 8.79261 147.39 8.59375C147.204 8.39299 147.112 8.14205 147.112 7.84091C147.112 7.5947 147.181 7.37689 147.319 7.1875C147.459 6.99811 147.649 6.84943 147.89 6.74148C148.132 6.63352 148.407 6.57955 148.714 6.57955C149.146 6.57955 149.485 6.67424 149.731 6.86364C149.979 7.05303 150.155 7.30303 150.259 7.61364Z" fill="black"/>
<path d="M188.906 7H188.201C188.16 6.79735 188.087 6.61932 187.983 6.46591C187.88 6.3125 187.755 6.18371 187.608 6.07955C187.462 5.97348 187.3 5.89394 187.122 5.84091C186.944 5.78788 186.758 5.76136 186.565 5.76136C186.213 5.76136 185.894 5.85038 185.608 6.02841C185.324 6.20644 185.097 6.46875 184.929 6.81534C184.762 7.16193 184.679 7.58712 184.679 8.09091C184.679 8.5947 184.762 9.01989 184.929 9.36648C185.097 9.71307 185.324 9.97538 185.608 10.1534C185.894 10.3314 186.213 10.4205 186.565 10.4205C186.758 10.4205 186.944 10.3939 187.122 10.3409C187.3 10.2879 187.462 10.2093 187.608 10.1051C187.755 9.99905 187.88 9.86932 187.983 9.71591C188.087 9.56061 188.16 9.38258 188.201 9.18182H188.906C188.853 9.47917 188.756 9.74527 188.616 9.98011C188.476 10.215 188.302 10.4148 188.093 10.5795C187.885 10.7424 187.651 10.8665 187.392 10.9517C187.134 11.0369 186.859 11.0795 186.565 11.0795C186.069 11.0795 185.627 10.9583 185.241 10.7159C184.855 10.4735 184.551 10.1288 184.329 9.68182C184.108 9.23485 183.997 8.70455 183.997 8.09091C183.997 7.47727 184.108 6.94697 184.329 6.5C184.551 6.05303 184.855 5.70833 185.241 5.46591C185.627 5.22348 186.069 5.10227 186.565 5.10227C186.859 5.10227 187.134 5.14489 187.392 5.23011C187.651 5.31534 187.885 5.44034 188.093 5.60511C188.302 5.76799 188.476 5.96686 188.616 6.2017C188.756 6.43466 188.853 6.70076 188.906 7ZM191.783 11.0909C191.363 11.0909 191 10.9981 190.695 10.8125C190.392 10.625 190.158 10.3636 189.993 10.0284C189.83 9.69129 189.749 9.29924 189.749 8.85227C189.749 8.4053 189.83 8.01136 189.993 7.67045C190.158 7.32765 190.387 7.06061 190.681 6.86932C190.976 6.67614 191.321 6.57955 191.715 6.57955C191.942 6.57955 192.167 6.61742 192.388 6.69318C192.61 6.76894 192.811 6.89205 192.993 7.0625C193.175 7.23106 193.32 7.45455 193.428 7.73295C193.536 8.01136 193.59 8.35417 193.59 8.76136V9.04545H190.226V8.46591H192.908C192.908 8.2197 192.859 8 192.76 7.80682C192.664 7.61364 192.525 7.46117 192.346 7.34943C192.167 7.23769 191.957 7.18182 191.715 7.18182C191.448 7.18182 191.217 7.24811 191.022 7.38068C190.828 7.51136 190.68 7.68182 190.576 7.89205C190.471 8.10227 190.419 8.32765 190.419 8.56818V8.95455C190.419 9.28409 190.476 9.56345 190.59 9.79261C190.705 10.0199 190.865 10.1932 191.07 10.3125C191.275 10.4299 191.512 10.4886 191.783 10.4886C191.959 10.4886 192.118 10.464 192.26 10.4148C192.404 10.3636 192.528 10.2879 192.632 10.1875C192.737 10.0852 192.817 9.95833 192.874 9.80682L193.522 9.98864C193.453 10.2083 193.339 10.4015 193.178 10.5682C193.017 10.733 192.818 10.8617 192.581 10.9545C192.345 11.0455 192.078 11.0909 191.783 11.0909ZM194.61 11V6.63636H195.257V7.29545H195.303C195.382 7.07955 195.526 6.90436 195.735 6.76989C195.943 6.63542 196.178 6.56818 196.439 6.56818C196.489 6.56818 196.55 6.56913 196.624 6.57102C196.698 6.57292 196.754 6.57576 196.792 6.57955V7.26136C196.769 7.25568 196.717 7.24716 196.635 7.2358C196.556 7.22254 196.471 7.21591 196.382 7.21591C196.17 7.21591 195.981 7.26042 195.814 7.34943C195.65 7.43655 195.519 7.55777 195.422 7.71307C195.328 7.86648 195.28 8.04167 195.28 8.23864V11H194.61ZM201.287 6.63636L199.674 11H198.992L197.378 6.63636H198.105L199.31 10.1136H199.355L200.56 6.63636H201.287ZM202.172 11V6.63636H202.843V11H202.172ZM202.513 5.90909C202.382 5.90909 202.27 5.86458 202.175 5.77557C202.082 5.68655 202.036 5.57955 202.036 5.45455C202.036 5.32955 202.082 5.22254 202.175 5.13352C202.27 5.04451 202.382 5 202.513 5C202.644 5 202.756 5.04451 202.848 5.13352C202.943 5.22254 202.99 5.32955 202.99 5.45455C202.99 5.57955 202.943 5.68655 202.848 5.77557C202.756 5.86458 202.644 5.90909 202.513 5.90909ZM205.843 11.0909C205.434 11.0909 205.082 10.9943 204.787 10.8011C204.491 10.608 204.264 10.3419 204.105 10.0028C203.946 9.66383 203.866 9.27652 203.866 8.84091C203.866 8.39773 203.948 8.00663 204.11 7.66761C204.275 7.3267 204.504 7.06061 204.798 6.86932C205.093 6.67614 205.438 6.57955 205.832 6.57955C206.139 6.57955 206.415 6.63636 206.662 6.75C206.908 6.86364 207.109 7.02273 207.267 7.22727C207.424 7.43182 207.521 7.67045 207.559 7.94318H206.889C206.838 7.74432 206.724 7.56818 206.548 7.41477C206.374 7.25947 206.139 7.18182 205.843 7.18182C205.582 7.18182 205.353 7.25 205.156 7.38636C204.961 7.52083 204.808 7.71117 204.699 7.95739C204.591 8.2017 204.537 8.48864 204.537 8.81818C204.537 9.1553 204.59 9.44886 204.696 9.69886C204.804 9.94886 204.955 10.143 205.15 10.2812C205.347 10.4195 205.578 10.4886 205.843 10.4886C206.018 10.4886 206.176 10.4583 206.318 10.3977C206.46 10.3371 206.58 10.25 206.679 10.1364C206.777 10.0227 206.847 9.88636 206.889 9.72727H207.559C207.521 9.98485 207.428 10.2169 207.278 10.4233C207.13 10.6278 206.934 10.7907 206.69 10.9119C206.448 11.0312 206.165 11.0909 205.843 11.0909ZM209.824 11.1023C209.547 11.1023 209.296 11.0502 209.071 10.946C208.845 10.84 208.666 10.6875 208.534 10.4886C208.401 10.2879 208.335 10.0455 208.335 9.76136C208.335 9.51136 208.384 9.30871 208.483 9.15341C208.581 8.99621 208.713 8.87311 208.877 8.78409C209.042 8.69508 209.224 8.62879 209.423 8.58523C209.624 8.53977 209.825 8.50379 210.028 8.47727C210.293 8.44318 210.508 8.41761 210.673 8.40057C210.84 8.38163 210.961 8.35038 211.037 8.30682C211.114 8.26326 211.153 8.1875 211.153 8.07955V8.05682C211.153 7.77652 211.076 7.55871 210.923 7.40341C210.771 7.24811 210.541 7.17045 210.233 7.17045C209.913 7.17045 209.662 7.24053 209.48 7.38068C209.298 7.52083 209.17 7.67045 209.096 7.82955L208.46 7.60227C208.574 7.33712 208.725 7.13068 208.914 6.98295C209.106 6.83333 209.314 6.72917 209.539 6.67045C209.767 6.60985 209.99 6.57955 210.21 6.57955C210.35 6.57955 210.511 6.59659 210.693 6.63068C210.877 6.66288 211.054 6.73011 211.224 6.83239C211.396 6.93466 211.539 7.08902 211.653 7.29545C211.767 7.50189 211.824 7.77841 211.824 8.125V11H211.153V10.4091H211.119C211.074 10.5038 210.998 10.6051 210.892 10.7131C210.786 10.821 210.645 10.9129 210.468 10.9886C210.292 11.0644 210.077 11.1023 209.824 11.1023ZM209.926 10.5C210.191 10.5 210.414 10.4479 210.596 10.3438C210.78 10.2396 210.918 10.1051 211.011 9.94034C211.106 9.77557 211.153 9.60227 211.153 9.42045V8.80682C211.125 8.84091 211.062 8.87216 210.966 8.90057C210.871 8.92708 210.761 8.95076 210.636 8.97159C210.513 8.99053 210.393 9.00758 210.275 9.02273C210.16 9.03598 210.066 9.04735 209.994 9.05682C209.82 9.07955 209.657 9.11648 209.505 9.16761C209.356 9.21686 209.234 9.29167 209.142 9.39205C209.051 9.49053 209.005 9.625 209.005 9.79545C209.005 10.0284 209.092 10.2045 209.264 10.3239C209.438 10.4413 209.659 10.5 209.926 10.5ZM213.718 5.18182V11H213.047V5.18182H213.718ZM217.196 11V6.63636H217.843V7.31818H217.9C217.991 7.08523 218.138 6.90436 218.341 6.77557C218.543 6.64489 218.787 6.57955 219.071 6.57955C219.359 6.57955 219.598 6.64489 219.789 6.77557C219.983 6.90436 220.133 7.08523 220.241 7.31818H220.287C220.398 7.0928 220.566 6.91383 220.789 6.78125C221.013 6.64678 221.281 6.57955 221.593 6.57955C221.984 6.57955 222.303 6.7017 222.551 6.94602C222.799 7.18845 222.923 7.56629 222.923 8.07955V11H222.252V8.07955C222.252 7.75758 222.164 7.52746 221.988 7.3892C221.812 7.25095 221.605 7.18182 221.366 7.18182C221.059 7.18182 220.822 7.27462 220.653 7.46023C220.484 7.64394 220.4 7.87689 220.4 8.15909V11H219.718V8.01136C219.718 7.76326 219.638 7.56345 219.477 7.41193C219.316 7.25852 219.109 7.18182 218.855 7.18182C218.681 7.18182 218.518 7.22822 218.366 7.32102C218.217 7.41383 218.095 7.54261 218.002 7.70739C217.912 7.87027 217.866 8.05871 217.866 8.27273V11H217.196ZM226.899 9.21591V6.63636H227.569V11H226.899V10.2614H226.853C226.751 10.483 226.592 10.6714 226.376 10.8267C226.16 10.9801 225.887 11.0568 225.558 11.0568C225.285 11.0568 225.043 10.9972 224.831 10.8778C224.618 10.7566 224.452 10.5748 224.331 10.3324C224.209 10.0881 224.149 9.7803 224.149 9.40909V6.63636H224.819V9.36364C224.819 9.68182 224.908 9.93561 225.086 10.125C225.266 10.3144 225.495 10.4091 225.774 10.4091C225.94 10.4091 226.11 10.3665 226.282 10.2812C226.457 10.196 226.602 10.0653 226.72 9.8892C226.839 9.71307 226.899 9.48864 226.899 9.21591ZM230.57 11.0909C230.161 11.0909 229.809 10.9943 229.513 10.8011C229.218 10.608 228.99 10.3419 228.831 10.0028C228.672 9.66383 228.593 9.27652 228.593 8.84091C228.593 8.39773 228.674 8.00663 228.837 7.66761C229.002 7.3267 229.231 7.06061 229.525 6.86932C229.82 6.67614 230.165 6.57955 230.559 6.57955C230.865 6.57955 231.142 6.63636 231.388 6.75C231.634 6.86364 231.836 7.02273 231.993 7.22727C232.15 7.43182 232.248 7.67045 232.286 7.94318H231.615C231.564 7.74432 231.451 7.56818 231.275 7.41477C231.1 7.25947 230.865 7.18182 230.57 7.18182C230.309 7.18182 230.079 7.25 229.882 7.38636C229.687 7.52083 229.535 7.71117 229.425 7.95739C229.317 8.2017 229.263 8.48864 229.263 8.81818C229.263 9.1553 229.316 9.44886 229.422 9.69886C229.53 9.94886 229.682 10.143 229.877 10.2812C230.074 10.4195 230.305 10.4886 230.57 10.4886C230.744 10.4886 230.902 10.4583 231.044 10.3977C231.186 10.3371 231.307 10.25 231.405 10.1364C231.504 10.0227 231.574 9.88636 231.615 9.72727H232.286C232.248 9.98485 232.154 10.2169 232.005 10.4233C231.857 10.6278 231.661 10.7907 231.417 10.9119C231.174 11.0312 230.892 11.0909 230.57 11.0909ZM236.016 9.21591V6.63636H236.686V11H236.016V10.2614H235.971C235.868 10.483 235.709 10.6714 235.493 10.8267C235.277 10.9801 235.005 11.0568 234.675 11.0568C234.402 11.0568 234.16 10.9972 233.948 10.8778C233.736 10.7566 233.569 10.5748 233.448 10.3324C233.327 10.0881 233.266 9.7803 233.266 9.40909V6.63636H233.936V9.36364C233.936 9.68182 234.025 9.93561 234.203 10.125C234.383 10.3144 234.613 10.4091 234.891 10.4091C235.058 10.4091 235.227 10.3665 235.4 10.2812C235.574 10.196 235.72 10.0653 235.837 9.8892C235.956 9.71307 236.016 9.48864 236.016 9.21591ZM241.005 7.61364L240.403 7.78409C240.365 7.68371 240.309 7.58617 240.235 7.49148C240.163 7.39489 240.065 7.31534 239.94 7.25284C239.815 7.19034 239.655 7.15909 239.46 7.15909C239.193 7.15909 238.97 7.22064 238.792 7.34375C238.616 7.46496 238.528 7.61932 238.528 7.80682C238.528 7.97348 238.589 8.10511 238.71 8.2017C238.831 8.2983 239.02 8.37879 239.278 8.44318L239.926 8.60227C240.316 8.69697 240.607 8.84186 240.798 9.03693C240.989 9.23011 241.085 9.47917 241.085 9.78409C241.085 10.0341 241.013 10.2576 240.869 10.4545C240.727 10.6515 240.528 10.8068 240.272 10.9205C240.017 11.0341 239.719 11.0909 239.38 11.0909C238.935 11.0909 238.567 10.9943 238.275 10.8011C237.984 10.608 237.799 10.3258 237.721 9.95455L238.358 9.79545C238.418 10.0303 238.533 10.2064 238.701 10.3239C238.872 10.4413 239.094 10.5 239.369 10.5C239.681 10.5 239.93 10.4337 240.113 10.3011C240.299 10.1667 240.392 10.0057 240.392 9.81818C240.392 9.66667 240.339 9.53977 240.233 9.4375C240.127 9.33333 239.964 9.25568 239.744 9.20455L239.017 9.03409C238.617 8.93939 238.324 8.79261 238.136 8.59375C237.95 8.39299 237.858 8.14205 237.858 7.84091C237.858 7.5947 237.927 7.37689 238.065 7.1875C238.205 6.99811 238.395 6.84943 238.636 6.74148C238.878 6.63352 239.153 6.57955 239.46 6.57955C239.892 6.57955 240.231 6.67424 240.477 6.86364C240.725 7.05303 240.901 7.30303 241.005 7.61364Z" fill="black"/>
<path d="M294.379 6.63636C294.344 6.34848 294.206 6.125 293.964 5.96591C293.721 5.80682 293.424 5.72727 293.072 5.72727C292.814 5.72727 292.589 5.76894 292.396 5.85227C292.204 5.93561 292.055 6.05019 291.947 6.19602C291.841 6.34186 291.788 6.50758 291.788 6.69318C291.788 6.84848 291.825 6.98201 291.898 7.09375C291.974 7.2036 292.071 7.29545 292.188 7.36932C292.306 7.44129 292.429 7.50095 292.558 7.5483C292.686 7.59375 292.805 7.63068 292.913 7.65909L293.504 7.81818C293.655 7.85795 293.824 7.91288 294.009 7.98295C294.197 8.05303 294.376 8.14867 294.546 8.26989C294.719 8.3892 294.861 8.54261 294.972 8.73011C295.084 8.91761 295.14 9.14773 295.14 9.42045C295.14 9.73485 295.058 10.0189 294.893 10.2727C294.73 10.5265 294.491 10.7282 294.177 10.8778C293.864 11.0275 293.485 11.1023 293.038 11.1023C292.621 11.1023 292.26 11.035 291.955 10.9006C291.652 10.7661 291.414 10.5786 291.239 10.3381C291.067 10.0975 290.969 9.81818 290.947 9.5H291.674C291.693 9.7197 291.767 9.90152 291.896 10.0455C292.026 10.1875 292.191 10.2936 292.39 10.3636C292.591 10.4318 292.807 10.4659 293.038 10.4659C293.307 10.4659 293.548 10.4223 293.762 10.3352C293.976 10.2462 294.146 10.1231 294.271 9.96591C294.396 9.80682 294.458 9.62121 294.458 9.40909C294.458 9.21591 294.404 9.05871 294.296 8.9375C294.188 8.81629 294.046 8.7178 293.87 8.64205C293.694 8.56629 293.504 8.5 293.299 8.44318L292.583 8.23864C292.129 8.10795 291.769 7.9214 291.504 7.67898C291.238 7.43655 291.106 7.11932 291.106 6.72727C291.106 6.40151 291.194 6.11742 291.37 5.875C291.548 5.63068 291.787 5.44129 292.086 5.30682C292.387 5.17045 292.723 5.10227 293.094 5.10227C293.469 5.10227 293.803 5.16951 294.094 5.30398C294.386 5.43655 294.617 5.61837 294.788 5.84943C294.96 6.08049 295.051 6.3428 295.06 6.63636H294.379ZM296.207 12.6364V6.63636H296.855V7.32955H296.935C296.984 7.25379 297.052 7.1572 297.139 7.03977C297.228 6.92045 297.355 6.81439 297.52 6.72159C297.687 6.62689 297.912 6.57955 298.196 6.57955C298.563 6.57955 298.887 6.6714 299.168 6.85511C299.448 7.03883 299.667 7.29924 299.824 7.63636C299.981 7.97348 300.06 8.37121 300.06 8.82955C300.06 9.29167 299.981 9.69223 299.824 10.0312C299.667 10.3684 299.449 10.6297 299.17 10.8153C298.892 10.9991 298.571 11.0909 298.207 11.0909C297.927 11.0909 297.703 11.0445 297.534 10.9517C297.366 10.857 297.236 10.75 297.145 10.6307C297.054 10.5095 296.984 10.4091 296.935 10.3295H296.878V12.6364H296.207ZM296.866 8.81818C296.866 9.14773 296.915 9.43845 297.011 9.69034C297.108 9.94034 297.249 10.1364 297.435 10.2784C297.62 10.4186 297.848 10.4886 298.116 10.4886C298.397 10.4886 298.631 10.4148 298.818 10.267C299.008 10.1174 299.15 9.91667 299.244 9.66477C299.341 9.41098 299.389 9.12879 299.389 8.81818C299.389 8.51136 299.342 8.23485 299.247 7.98864C299.154 7.74053 299.013 7.54451 298.824 7.40057C298.636 7.25473 298.401 7.18182 298.116 7.18182C297.844 7.18182 297.615 7.25095 297.429 7.3892C297.243 7.52557 297.103 7.71686 297.009 7.96307C296.914 8.20739 296.866 8.49242 296.866 8.81818ZM302.855 11.0909C302.461 11.0909 302.116 10.9972 301.818 10.8097C301.523 10.6222 301.292 10.3598 301.125 10.0227C300.96 9.68561 300.878 9.29167 300.878 8.84091C300.878 8.38636 300.96 7.98958 301.125 7.65057C301.292 7.31155 301.523 7.0483 301.818 6.8608C302.116 6.6733 302.461 6.57955 302.855 6.57955C303.249 6.57955 303.594 6.6733 303.889 6.8608C304.187 7.0483 304.418 7.31155 304.582 7.65057C304.749 7.98958 304.832 8.38636 304.832 8.84091C304.832 9.29167 304.749 9.68561 304.582 10.0227C304.418 10.3598 304.187 10.6222 303.889 10.8097C303.594 10.9972 303.249 11.0909 302.855 11.0909ZM302.855 10.4886C303.154 10.4886 303.401 10.4119 303.594 10.2585C303.787 10.1051 303.93 9.90341 304.023 9.65341C304.116 9.40341 304.162 9.13258 304.162 8.84091C304.162 8.54924 304.116 8.27746 304.023 8.02557C303.93 7.77367 303.787 7.57008 303.594 7.41477C303.401 7.25947 303.154 7.18182 302.855 7.18182C302.556 7.18182 302.31 7.25947 302.116 7.41477C301.923 7.57008 301.78 7.77367 301.688 8.02557C301.595 8.27746 301.548 8.54924 301.548 8.84091C301.548 9.13258 301.595 9.40341 301.688 9.65341C301.78 9.90341 301.923 10.1051 302.116 10.2585C302.31 10.4119 302.556 10.4886 302.855 10.4886ZM307.754 6.63636V7.20455H305.492V6.63636H307.754ZM306.151 5.59091H306.822V9.75C306.822 9.93939 306.849 10.0814 306.904 10.1761C306.961 10.2689 307.033 10.3314 307.12 10.3636C307.209 10.3939 307.303 10.4091 307.401 10.4091C307.475 10.4091 307.536 10.4053 307.583 10.3977C307.63 10.3883 307.668 10.3807 307.697 10.375L307.833 10.9773C307.788 10.9943 307.724 11.0114 307.643 11.0284C307.561 11.0473 307.458 11.0568 307.333 11.0568C307.144 11.0568 306.958 11.0161 306.776 10.9347C306.596 10.8532 306.447 10.7292 306.327 10.5625C306.21 10.3958 306.151 10.1856 306.151 9.93182V5.59091ZM310.66 6.63636V7.20455H308.398V6.63636H310.66ZM309.058 5.59091H309.728V9.75C309.728 9.93939 309.755 10.0814 309.81 10.1761C309.867 10.2689 309.939 10.3314 310.026 10.3636C310.115 10.3939 310.209 10.4091 310.308 10.4091C310.381 10.4091 310.442 10.4053 310.489 10.3977C310.537 10.3883 310.575 10.3807 310.603 10.375L310.739 10.9773C310.694 10.9943 310.63 11.0114 310.549 11.0284C310.468 11.0473 310.364 11.0568 310.239 11.0568C310.05 11.0568 309.864 11.0161 309.683 10.9347C309.503 10.8532 309.353 10.7292 309.234 10.5625C309.116 10.3958 309.058 10.1856 309.058 9.93182V5.59091ZM311.668 11V6.63636H312.339V11H311.668ZM312.009 5.90909C311.879 5.90909 311.766 5.86458 311.671 5.77557C311.578 5.68655 311.532 5.57955 311.532 5.45455C311.532 5.32955 311.578 5.22254 311.671 5.13352C311.766 5.04451 311.879 5 312.009 5C312.14 5 312.252 5.04451 312.344 5.13352C312.439 5.22254 312.487 5.32955 312.487 5.45455C312.487 5.57955 312.439 5.68655 312.344 5.77557C312.252 5.86458 312.14 5.90909 312.009 5.90909ZM314.237 8.375V11H313.567V6.63636H314.214V7.31818H314.271C314.374 7.09659 314.529 6.91856 314.737 6.78409C314.946 6.64773 315.214 6.57955 315.544 6.57955C315.839 6.57955 316.098 6.64015 316.32 6.76136C316.541 6.88068 316.714 7.0625 316.837 7.30682C316.96 7.54924 317.021 7.85606 317.021 8.22727V11H316.351V8.27273C316.351 7.92992 316.262 7.66288 316.084 7.47159C315.906 7.27841 315.661 7.18182 315.351 7.18182C315.137 7.18182 314.946 7.22822 314.777 7.32102C314.61 7.41383 314.479 7.54924 314.382 7.72727C314.286 7.9053 314.237 8.12121 314.237 8.375ZM320.008 12.7273C319.684 12.7273 319.406 12.6856 319.173 12.6023C318.94 12.5208 318.746 12.4129 318.59 12.2784C318.437 12.1458 318.315 12.0038 318.224 11.8523L318.758 11.4773C318.818 11.5568 318.895 11.6477 318.988 11.75C319.081 11.8542 319.208 11.9441 319.369 12.0199C319.531 12.0975 319.745 12.1364 320.008 12.1364C320.36 12.1364 320.651 12.0511 320.88 11.8807C321.109 11.7102 321.224 11.4432 321.224 11.0795V10.1932H321.167C321.118 10.2727 321.048 10.3712 320.957 10.4886C320.868 10.6042 320.739 10.7074 320.57 10.7983C320.404 10.8873 320.178 10.9318 319.894 10.9318C319.542 10.9318 319.226 10.8485 318.945 10.6818C318.667 10.5152 318.446 10.2727 318.283 9.95455C318.122 9.63636 318.042 9.25 318.042 8.79545C318.042 8.34848 318.121 7.95928 318.278 7.62784C318.435 7.29451 318.654 7.03693 318.934 6.85511C319.214 6.6714 319.538 6.57955 319.906 6.57955C320.19 6.57955 320.415 6.62689 320.582 6.72159C320.75 6.81439 320.879 6.92045 320.968 7.03977C321.059 7.1572 321.129 7.25379 321.178 7.32955H321.246V6.63636H321.894V11.125C321.894 11.5 321.809 11.8049 321.638 12.0398C321.47 12.2765 321.243 12.4498 320.957 12.5597C320.673 12.6714 320.356 12.7273 320.008 12.7273ZM319.985 10.3295C320.254 10.3295 320.481 10.268 320.667 10.1449C320.853 10.0218 320.994 9.8447 321.09 9.61364C321.187 9.38258 321.235 9.10606 321.235 8.78409C321.235 8.4697 321.188 8.19223 321.093 7.9517C320.998 7.71117 320.858 7.52273 320.673 7.38636C320.487 7.25 320.258 7.18182 319.985 7.18182C319.701 7.18182 319.464 7.25379 319.275 7.39773C319.087 7.54167 318.946 7.73485 318.852 7.97727C318.759 8.2197 318.712 8.48864 318.712 8.78409C318.712 9.08712 318.76 9.35511 318.854 9.58807C318.951 9.81913 319.093 10.0009 319.281 10.1335C319.47 10.2642 319.705 10.3295 319.985 10.3295Z" fill="black"/>
</svg>
