<svg width="259" height="55" viewBox="0 0 259 55" fill="none" xmlns="http://www.w3.org/2000/svg">
<g clip-path="url(#clip0_443_2905)">
<path d="M3.01437 31.6486L3.74691 30.3024C2.72809 29.7436 1.73453 29.1848 0.757802 28.626L0 29.9637C0.985143 30.531 1.98713 31.0983 3.01437 31.6571V31.6486Z" fill="#5B5B5B"/>
<path d="M91.534 54.06L91.2478 52.5529C92.7381 52.265 94.2874 51.9179 95.8451 51.4945C95.8451 51.4945 95.8535 51.4945 95.8619 51.4945C96.5187 51.3167 97.1755 51.1305 97.8322 50.9442L98.2617 52.4174C97.588 52.6122 96.9145 52.8154 96.2408 52.9847C94.641 53.408 93.0581 53.7721 91.534 54.0684V54.06ZM101.428 49.7843C103.457 49.09 105.545 48.3026 107.802 47.3712L108.383 48.7937C106.101 49.7335 103.987 50.5293 101.924 51.2321L101.428 49.7758V49.7843ZM80.7733 54.9828L80.8154 53.4504C82.9625 53.5181 85.2275 53.408 87.543 53.1286L87.7282 54.6526C85.3369 54.9405 83.0046 55.0506 80.7733 54.9828ZM172.45 29.6334L172.383 28.1009C174.463 28.0078 176.703 27.9316 179.245 27.8723L179.279 29.4133C176.745 29.4725 174.513 29.5487 172.45 29.6419V29.6334ZM111.287 45.8896C112.003 45.5763 112.71 45.263 113.409 44.9413C114.782 44.3232 116.146 43.6882 117.51 43.0532L118.158 44.4502C116.786 45.0937 115.413 45.7287 114.041 46.3468C113.333 46.6685 112.618 46.9818 111.902 47.295L111.296 45.8811L111.287 45.8896ZM120.954 41.4276C123.025 40.4454 125.096 39.4633 127.176 38.515L127.808 39.912C125.728 40.8603 123.665 41.8425 121.602 42.8161L120.954 41.4276ZM70.0882 53.1286L70.5682 51.6723C72.6479 52.3751 74.8456 52.8746 77.0937 53.1625L76.9 54.6865C74.5509 54.3817 72.2606 53.8652 70.0882 53.1286ZM161.867 30.3954L161.707 28.8629C163.896 28.6343 166.135 28.4481 168.569 28.2957L168.661 29.8281C166.253 29.9805 164.03 30.1583 161.867 30.3869V30.3954ZM130.67 36.9571C132.969 35.9581 135.066 35.1114 137.061 34.3663L137.592 35.8057C135.621 36.5423 133.55 37.3805 131.277 38.3626L130.67 36.9487V36.9571ZM151.392 31.9364L151.097 30.4293C153.261 30.0059 155.551 29.6334 157.909 29.3201L158.111 30.8441C155.787 31.1489 153.531 31.5215 151.392 31.9364ZM140.69 33.1048L141.237 32.927C143.216 32.3004 145.287 31.7332 147.35 31.2421L147.704 32.7407C145.675 33.2233 143.637 33.7821 141.701 34.4002L141.17 34.5695L140.699 33.1048H140.69ZM60.481 48.057L61.3651 46.804C63.2849 48.1756 65.2215 49.344 67.1328 50.2669L66.4676 51.6554C64.4805 50.6902 62.4597 49.4879 60.4726 48.057H60.481ZM53.8208 42.2404C53.1135 42.4775 52.3978 42.6807 51.6736 42.85C50.377 43.1548 49.0298 43.3919 47.6657 43.5612L47.4805 42.0372C48.7856 41.8763 50.0823 41.6392 51.3284 41.3514C51.7831 41.2413 52.2378 41.1228 52.6925 40.9873C52.6167 40.9026 52.5493 40.818 52.4736 40.7333L53.6355 39.7342C55.0417 41.3937 56.6499 42.9939 58.4097 44.4925L57.4245 45.6694C56.1363 44.5772 54.9322 43.4257 53.8208 42.2404ZM57.3066 38.9976C59.3106 37.8377 60.9862 36.4153 62.2913 34.7642L63.4869 35.721C62.0555 37.5244 60.2368 39.0738 58.0729 40.3269L57.3066 38.9976ZM36.8544 43.5951L37.0144 42.0626C39.3215 42.3081 41.5865 42.4013 43.7504 42.3251L43.8009 43.8575C41.5696 43.9337 39.2289 43.8406 36.8544 43.5866V43.5951ZM26.2788 41.5122L26.6914 40.0306C28.9396 40.6571 31.1625 41.1651 33.3012 41.5376L33.0401 43.0532C30.8509 42.6722 28.5775 42.1557 26.2873 41.5122H26.2788ZM46.9163 31.3267L48.3646 30.8357C49.0213 32.7915 50.0317 34.7896 51.3789 36.7709L50.1159 37.6345C48.7014 35.5347 47.6236 33.418 46.9248 31.3267H46.9163ZM64.1774 31.6824C65.0447 29.7011 65.2215 27.6014 64.7078 25.4254L66.1982 25.0698C66.7876 27.5421 66.5687 30.0398 65.5835 32.3004L64.1858 31.6824H64.1774ZM16.1243 37.9731L16.7053 36.5507C18.8692 37.4397 21.0163 38.2356 23.0792 38.9214L22.5993 40.3777C20.4943 39.6834 18.3219 38.8706 16.1243 37.9647V37.9731ZM46.0322 27.4405C45.7881 25.2984 45.9649 23.1987 46.5627 21.2175C46.6553 20.9042 46.7564 20.5994 46.8658 20.303L48.2972 20.8364C48.1962 21.0989 48.112 21.3699 48.0278 21.6577C47.4889 23.4442 47.3373 25.3238 47.5563 27.2627L46.0407 27.4405H46.0322ZM6.39917 33.4519L7.09803 32.0803C9.16936 33.1471 11.2323 34.1546 13.2362 35.0521L12.6131 36.4576C10.5923 35.5432 8.50418 34.5356 6.40759 33.4519H6.39917ZM58.8728 17.4836L59.6727 16.1713C61.6682 17.4074 63.4448 19.2362 64.6658 21.3275L63.3522 22.1065C62.2576 20.2353 60.6662 18.5928 58.8728 17.4836ZM48.954 16.7809C50.739 14.8589 53.2145 14.1054 55.9173 14.6473L55.6226 16.1543C53.4334 15.7225 51.4968 16.2983 50.0738 17.8308L48.954 16.7809Z" fill="#5B5B5B"/>
<path d="M186.571 29.2695L186.546 27.7285C185.401 27.7454 184.255 27.7624 183.102 27.7793L183.127 29.3118C184.272 29.2949 185.417 29.2779 186.563 29.261L186.571 29.2695Z" fill="#5B5B5B"/>
<path d="M259 16.3578L221.927 48.1673L207.528 26.9158L196.473 29.4474L198.763 14.2411L188.819 0L259 16.3578Z" fill="#CBC4F5"/>
<g style="mix-blend-mode:multiply">
<path d="M205.676 23.7153L207.528 26.9158L196.473 29.4473L205.676 23.7153Z" fill="#EAE8EF"/>
</g>
<path d="M205.676 23.7155L259 16.3579L198.763 14.2412L196.473 29.4475L205.676 23.7155Z" fill="#AF95EE"/>
</g>
<defs>
<clipPath id="clip0_443_2905">
<rect width="259" height="55" fill="white"/>
</clipPath>
</defs>
</svg>
