<svg width="201" height="135" viewBox="0 0 201 135" fill="none" xmlns="http://www.w3.org/2000/svg">
<g clip-path="url(#clip0_443_2926)">
<path d="M182.8 2H17.91C9.12315 2 2 9.12315 2 17.91V116.62C2 125.407 9.12315 132.53 17.91 132.53H182.8C191.587 132.53 198.71 125.407 198.71 116.62V17.91C198.71 9.12315 191.587 2 182.8 2Z" fill="#FFDEF2"/>
<path d="M182.8 134.53H17.91C8.03 134.53 0 126.49 0 116.61V17.91C0 8.04 8.04 0 17.91 0H182.79C192.67 0 200.7 8.04 200.7 17.91V116.61C200.7 126.49 192.66 134.53 182.79 134.53H182.8ZM17.91 4C10.24 4 4 10.24 4 17.91V116.61C4 124.28 10.24 130.53 17.91 130.53H182.79C190.46 130.53 196.7 124.29 196.7 116.61V17.91C196.7 10.24 190.46 4 182.79 4H17.91Z" fill="white"/>
<path d="M4.01 82.1201C3.67 80.3101 4.25 78.9001 5.51 77.5101C9.69 72.8901 13.94 68.3501 18.69 64.2801C22.92 60.6601 27.84 59.0101 33.25 58.6301C42.46 57.9901 51.5 58.8601 60.28 61.8501C60.27 63.6801 59.57 65.3301 58.95 67.0001C58.2 69.0201 58.89 71.0301 60.75 72.1301C61.62 72.6401 62.58 72.9001 63.58 73.0001C67.14 73.3801 70.54 72.6101 73.92 71.6601C74.51 71.4901 74.54 71.2201 74.38 70.7101C74.14 69.9201 73.95 69.1001 74.15 68.2601C74.26 68.5001 74.45 68.4201 74.63 68.3901C77.97 70.5701 80.78 73.3501 83.51 76.2201C86.19 79.4401 88.65 82.8201 90.85 86.4001C94.23 91.8901 95.19 97.7101 93.59 103.94C92.51 108.12 90.49 111.86 88.15 115.44C84.6 120.21 80.41 124.52 77.49 129.76C77.29 130.12 77.04 130.36 76.56 130.35C74.73 130.32 72.9 130.35 71.08 130.35C70.7 127.83 69.56 125.66 67.99 123.71C65.29 120.34 61.81 117.97 58.01 116.03C57.48 115.76 57.16 115.87 56.76 116.23C55.46 117.41 54.12 118.54 52.65 119.51C51.87 118.57 50.9 117.88 49.86 117.28C47.99 116.2 45.99 115.4 43.97 114.66C42.93 114.28 41.81 114.08 40.85 113.47C34.15 109.18 27.02 105.71 19.75 102.52C18.49 101.97 17.28 101.26 15.89 101.01C14.99 99.3501 13.7 97.8601 13.57 95.8601C13.47 94.2801 13.2 92.7701 12.12 91.5301C11.92 91.3001 11.88 91.0401 11.93 90.7501C12.08 90.3501 12.32 89.9601 12.38 89.5401C12.55 88.3901 13.79 87.3601 12.95 86.1301C12.22 85.0701 11.12 84.3601 9.97 83.7701C9.69 83.6201 9.39999 83.4801 9.10999 83.3501C7.49 82.6201 5.75 82.3701 4.02 82.1301L4.01 82.1201Z" fill="black"/>
<path d="M88.15 115.43C90.5 111.85 92.52 108.11 93.59 103.93C95.19 97.6901 94.23 91.8701 90.85 86.3901C88.65 82.8101 86.2 79.4301 83.51 76.2101C85.06 71.3301 87.35 66.8001 90.05 62.4701C93.81 63.4401 97.64 63.9401 101.52 64.0201C101.82 64.3501 101.71 64.7701 101.81 65.1501C102.01 65.9001 101.74 66.8201 102.36 67.4001C103.71 68.6901 105.31 69.4201 107.23 69.0301C109.57 68.5701 111.25 67.0801 112.84 65.4301C113.63 64.6101 114.06 63.7901 113.54 62.6801C116.44 61.9301 119.14 60.6801 121.84 59.4101C124.68 58.0801 127.56 57.0001 130.79 57.6401C131.98 58.1201 133.2 58.5401 134.28 59.2701C134.61 59.4901 134.97 59.6501 135.09 60.0701C133.28 59.6401 131.54 59.5401 130.03 60.9201C129.01 61.8501 128.28 62.9701 127.69 64.2101C125.73 68.3201 125.91 72.6101 126.58 76.9501C127.21 81.0701 127.95 85.1801 128.9 89.2401C130.76 97.2701 132.85 105.23 136.28 112.77C135.77 114.87 135.71 117.03 135.89 119.15C136.09 121.52 136.08 123.91 136.56 126.26C136.77 127.31 136.95 128.37 137.19 129.41C137.33 130.03 137.19 130.34 136.52 130.3C136.28 130.29 136.04 130.3 135.8 130.3C123.11 130.3 110.42 130.29 97.73 130.32C96.7 130.32 96.17 130.01 95.76 129.06C94.67 126.5 93.6 123.91 92.28 121.46C91.12 119.32 89.74 117.3 88.15 115.43Z" fill="#CED7DA"/>
<path d="M130.42 55.2801C130.53 56.0701 130.67 56.8601 130.79 57.6401C127.57 57.0001 124.68 58.0801 121.84 59.4201C119.15 60.6801 116.45 61.9401 113.55 62.6901C112.83 61.3301 112.69 59.7701 112.1 58.3601C112.08 57.9301 112.43 57.7601 112.7 57.5401C113.82 56.6201 114.73 55.5101 115.58 54.3501C116.68 52.8301 117.4 51.0901 118.33 49.4701C119.02 49.9901 119.77 50.0101 120.59 49.8001C124.08 48.8801 125.34 44.9601 124.99 42.6001C124.89 41.9501 124.53 41.3701 123.77 41.3201C122.99 41.2701 122.2 41.1701 121.71 42.0901C121.22 43.0101 120.91 44.0801 120 44.7401C120.05 44.3801 120.09 44.0301 120.16 43.6801C120.91 39.5001 121.79 35.3301 121.2 31.0501V31.0301H121.21C121.7 31.2201 122.15 31.5101 122.61 31.7701C122.81 31.8801 123.01 31.9801 123.22 32.0501C123.5 32.1701 123.8 32.2501 124.12 32.2701C125.51 32.3501 126.13 31.7501 126.03 30.3601C125.95 29.2801 125.29 28.4601 124.79 27.5501C125.5 27.1101 126.25 26.8001 126.83 26.2401C127.42 25.6601 127.92 25.0101 127.64 24.1301C127.38 23.3201 126.63 23.0301 125.87 22.9001C124.59 22.6701 123.28 22.6801 122.11 23.2201C121.17 23.6601 120.73 23.3901 120.15 22.6701C119.32 21.6301 118.24 20.8601 116.93 20.4901C115.09 19.9801 114.1 20.9301 114.52 22.7701C114.72 23.6401 115.73 24.4401 115.52 25.0901C115.31 25.7301 114.09 25.9301 113.48 26.5901C112.27 27.9101 112.58 29.1501 114.29 29.6601C115.8 30.1101 117.32 29.9101 118.73 29.3001C119.46 29.0001 119.73 29.2401 119.99 29.8101C120.16 31.5201 120.27 33.2301 119.54 35.2601C119.34 31.8201 117.22 31.1201 114.59 30.9301C112.55 30.7801 110.6 30.3201 108.95 28.9101C108.1 28.1801 107 28.1801 106.04 28.7901C105.45 29.1501 105.2 29.1301 104.97 28.4401C104.26 26.3201 103.63 24.1901 103.27 21.9801C103.18 21.4801 103.4 20.9001 102.89 20.3401C102.1 22.4701 101.75 24.5101 102.19 26.6501C102.27 27.0601 102.52 27.5101 101.71 27.4801C100.08 27.4101 98.59 27.9801 97.05 28.6201C96.37 26.6701 96.42 24.7101 96.67 22.7201C95.57 24.6301 94.91 26.6901 94.5 28.8401C94.39 29.3801 94.55 30.2001 93.48 29.9601C93.09 29.8701 93.13 30.3101 93.13 30.5701C93.2 34.2701 92.5 37.8701 91.63 41.4401C91.46 41.7701 91.16 41.7901 90.83 41.8301C89.61 41.9901 88.66 42.4701 88.31 43.8201C88.15 44.4501 87.89 45.1001 87.42 45.6101C87.41 45.1701 87.39 44.7301 87.4 44.3001C87.5 40.7501 87.62 37.2001 87.71 33.6501C87.72 33.3101 88 32.7801 87.35 32.7001C85.24 32.4501 83.13 32.2201 80.81 31.9601C81.1 32.2701 81.28 32.4301 81.41 32.6101C81.65 32.9501 82.16 33.2801 81.66 33.7201C81.15 34.1901 80.9 33.6301 80.63 33.3201C79.31 31.8401 77.38 31.2601 75.69 30.6101C70.84 28.7401 66.08 26.7701 61.73 23.9101C61.15 23.5301 60.78 23.5601 60.28 24.0201C58.95 25.2701 57.96 26.7501 57.2 28.3901C55.61 31.8201 54.8 35.4601 54.41 39.2101C53.74 38.8101 53.97 38.0801 53.83 37.5001C53.65 36.7101 53.61 35.8801 52.86 35.3501C53.43 32.6801 53.11 29.9301 53.56 27.2501C53.99 24.6901 54.84 22.3201 56.4 20.2301C57.23 19.1101 57.72 17.7701 58.61 16.6801C59.65 15.4201 60.84 14.4101 62.53 14.1501C62.76 14.1201 63.04 14.0601 63.19 13.9101C65.88 11.2501 69.28 10.9201 72.77 11.1501C78.47 11.5201 83.62 13.2701 87.7 17.5101C88.63 18.4801 89.4 19.5801 90.21 20.7501C90.95 19.4901 91.64 18.2801 92.56 17.2201C94.27 15.2701 96.26 13.8201 98.95 13.6301C99.29 13.6101 99.56 13.4701 99.84 13.3201C106.43 9.96014 113.16 10.0701 119.85 12.8401C125 14.9701 127.88 19.2301 129.58 24.3401C131.68 30.6301 131.77 37.0801 130.44 43.5001C129.62 47.4701 129.89 51.3501 130.42 55.2801Z" fill="#020201"/>
<path d="M136.28 112.77C132.85 105.23 130.76 97.27 128.9 89.24C127.96 85.18 127.22 81.07 126.58 76.95C125.91 72.61 125.74 68.32 127.69 64.21C128.28 62.97 129.02 61.85 130.03 60.92C131.53 59.54 133.28 59.64 135.09 60.07V60.05C135.18 60.12 135.27 60.2 135.36 60.27C135.45 60.47 135.63 60.53 135.83 60.55C139.06 62.82 139.93 66.32 140.62 69.87C141.51 74.49 141.67 79.21 142.3 83.87C143.02 89.19 143.78 94.5 144.81 99.96C146.84 98.56 148.5 96.98 150.04 95.27C156.96 87.57 163.11 79.26 169.12 70.84C169.47 70.35 169.57 69.94 169.5 69.32C169.31 67.71 169.96 66.26 170.75 64.91C172.12 62.57 173.15 60.14 173.21 57.38C173.21 57.16 173.15 56.85 173.47 56.8C173.73 56.76 173.92 56.95 174.07 57.14C174.73 58.01 174.8 59.05 174.93 60.08C175 60.65 174.73 61.28 175.18 61.8C175.31 63.21 175.61 64.63 175.16 66.04C175.1 66.13 175.04 66.21 174.98 66.3C175.01 66.32 175.04 66.34 175.07 66.36C175.1 66.26 175.13 66.15 175.16 66.05C176.15 65.75 176.26 64.9 176.35 64.07C176.45 63.12 176.33 62.17 176.11 61.23C179.26 58.73 182.51 56.41 186.14 54.65C186.28 54.58 186.43 54.52 186.58 54.47C187.07 54.3 187.69 54.02 187.99 54.53C188.31 55.07 187.61 55.29 187.27 55.57C186.08 56.55 184.7 57.3 183.7 58.51C183.6 58.58 183.36 58.59 183.47 58.76C183.56 58.89 183.73 58.78 183.82 58.65C185.68 58.08 187.48 57.29 189.43 57.01C190.56 56.84 191.01 56.95 191.91 57.81C189.42 58.75 187.03 59.8 184.92 61.5C185.8 61.3 186.68 61.12 187.55 60.91C188.42 60.7 189.29 60.72 190.17 60.77C190.64 60.79 191.08 60.98 191.18 61.46C191.29 61.99 190.75 62.06 190.42 62.22C190.03 62.41 189.6 62.54 189.2 62.72C188.73 62.94 188.18 63.03 188.28 63.83C188.34 64.3 187.76 64.59 187.35 64.84C183.59 67.13 179.99 69.64 176.87 72.77C176.76 72.88 176.62 73 176.48 73.04C174.71 73.51 174.35 75.05 173.76 76.48C168.85 88.47 162.67 99.75 154.69 109.99C152.37 112.96 149.62 115.53 146.45 117.59C145.2 118.4 143.86 118.97 142.32 119.04C141.23 119.09 140.39 118.7 139.63 117.97C138.1 116.5 137.21 114.62 136.25 112.77H136.28Z" fill="#FEA97D"/>
<path d="M52.64 119.49C54.11 118.52 55.45 117.39 56.75 116.21C57.15 115.85 57.47 115.74 58 116.01C61.8 117.96 65.28 120.33 67.98 123.69C69.55 125.65 70.69 127.82 71.07 130.33C70.72 130.62 70.3 130.49 69.92 130.49C55.95 130.49 41.98 130.49 28.01 130.49C27.59 130.49 27.13 130.65 26.75 130.3C26.42 129.86 26.1 129.4 25.76 128.97C22.45 124.82 19.35 120.52 16.65 115.95C16.87 115.61 17.18 115.69 17.5 115.73C20.6 116.11 23.69 116.59 26.8 116.84C30.28 117.12 33.74 117.56 37.23 117.61C39.3 117.64 41.17 118.34 42.83 119.61C44.12 120.6 45.5 121.48 46.8 122.45C47.16 122.72 47.43 122.86 47.85 122.61C49.47 121.61 51.15 120.71 52.63 119.49H52.64Z" fill="#FCA87D"/>
<path d="M52.64 119.49C51.16 120.71 49.48 121.61 47.86 122.61C47.44 122.87 47.18 122.73 46.81 122.45C45.51 121.47 44.13 120.59 42.84 119.61C41.18 118.34 39.31 117.64 37.24 117.61C33.75 117.55 30.28 117.11 26.81 116.84C23.7 116.59 20.61 116.12 17.51 115.73C17.18 115.69 16.87 115.61 16.66 115.95C16.4 115.67 16.05 115.6 15.7 115.54C11.8 114.94 7.91001 114.34 4.01001 113.74C4.01001 107.43 4.01001 101.12 4.01001 94.8101C5.60001 95.1801 7.24001 95.3901 8.62001 96.3801C8.42001 96.7701 8.08001 96.6801 7.85001 96.8201C7.29001 97.1601 6.40001 97.2501 6.44001 98.0901C6.48001 99.0301 7.28001 99.3301 8.08001 99.5801C9.04001 99.8901 10.05 99.8601 11.02 99.9601C12.69 100.12 14.23 100.86 15.89 101C17.28 101.24 18.49 101.95 19.75 102.51C27.02 105.7 34.15 109.17 40.85 113.46C41.81 114.07 42.92 114.27 43.97 114.65C45.99 115.39 47.99 116.19 49.86 117.27C50.9 117.87 51.87 118.56 52.65 119.5L52.64 119.49Z" fill="#E99266"/>
<path d="M164.36 44.3002C163.78 50.2502 161.23 55.1002 156.19 58.4602C154.38 59.6702 152.44 59.8302 150.4 58.8502C145.34 56.4102 140.96 48.6402 141.56 43.0702C141.9 39.8702 144.17 38.4802 147.17 39.6702C149.31 40.5202 150.95 42.0302 152.33 43.8302C152.86 44.5302 153.12 44.4202 153.6 43.8002C155.02 41.9902 156.68 40.4402 158.88 39.6202C161.82 38.5302 164.07 39.9702 164.36 43.1002C164.4 43.5002 164.36 43.9002 164.36 44.3002Z" fill="#FE5656"/>
<path d="M181.04 29.15C182 28.05 182.85 26.99 183.97 26.2C184.69 25.69 185.44 25.25 186.31 25.02C188.33 24.47 189.89 25.47 190.25 27.54C190.47 28.82 190.36 30.09 190.04 31.34C189.18 34.65 187.49 37.44 184.87 39.64C182.3 41.79 179.99 41.89 177.42 39.75C173.92 36.83 171.79 33.13 171.8 28.45C171.8 25.33 174.03 24.04 176.86 25.42C178.55 26.25 179.81 27.58 181.04 29.15Z" fill="#FE5656"/>
<path d="M157.19 17.9998C156.6 22.2198 154.54 26.1898 150.35 28.8698C149.07 29.6898 147.68 29.8398 146.23 29.2698C141.92 27.5898 137.92 20.5798 138.69 16.0198C139.09 13.6298 140.79 12.6298 143.06 13.4698C144.84 14.1298 146.18 15.3798 147.33 16.8298C147.8 17.4298 148.05 17.3498 148.45 16.7998C149.24 15.7298 150.22 14.8498 151.34 14.1398C152.64 13.3298 154.03 12.7398 155.51 13.5198C157.02 14.3198 157.18 15.8398 157.19 17.9798V17.9998Z" fill="#FE5656"/>
<path d="M4.00001 113.74C7.90001 114.34 11.79 114.94 15.69 115.54C16.05 115.59 16.39 115.67 16.65 115.95C19.35 120.52 22.46 124.82 25.76 128.97C26.1 129.4 26.42 129.86 26.75 130.3C23.3 130.24 19.78 131.22 16.36 130.34C13.68 130.15 11.12 129.01 9.32001 127.55C7.52001 126.09 6.17001 124.08 5.09001 122.05C3.85001 119.71 3.91001 116.39 3.98001 113.74H4.00001Z" fill="#020201"/>
<path d="M60.59 61.01C62.32 61.67 63.94 62.6 65.81 62.94C68.69 63.47 71.57 63.82 74.48 63.17C74.71 63.12 74.96 63.16 75.19 63.16C74.71 64.83 74.08 66.47 74.16 68.25C73.96 69.09 74.16 69.91 74.39 70.7C74.54 71.21 74.51 71.48 73.93 71.65C70.55 72.6 67.14 73.38 63.59 72.99C62.59 72.88 61.64 72.63 60.76 72.12C58.89 71.03 58.21 69.01 58.96 66.99C59.58 65.32 60.27 63.67 60.29 61.84C60.54 61.61 60.55 61.3 60.6 61L60.59 61.01Z" fill="#E99266"/>
<path d="M15.88 101C14.22 100.86 12.68 100.12 11.01 99.96C10.03 99.86 9.03 99.89 8.07 99.58C7.27 99.33 6.47 99.03 6.43 98.09C6.4 97.25 7.29 97.16 7.84 96.82C8.07 96.68 8.41 96.76 8.61 96.38C7.23 95.4 5.59 95.18 4 94.81C4 93.84 4 92.88 4 91.91C5.43 91.91 6.86 91.83 8.26 92.27C8.48 92.34 8.74 92.49 8.88 92.2C9 91.93 8.71 91.79 8.57 91.61C7.96 90.82 7.05 90.47 6.21 90.04C5.36 89.61 4.87 88.93 5.27 88.01C5.66 87.11 6.47 87.33 7.24 87.55C8.87 88 10.22 88.84 11.17 90.27C11.36 90.56 11.58 90.75 11.94 90.75C11.89 91.04 11.93 91.3 12.13 91.53C13.21 92.77 13.48 94.28 13.58 95.86C13.7 97.86 14.99 99.35 15.9 101.01L15.88 101Z" fill="#FDA87C"/>
<path d="M11.93 90.7401C11.58 90.7401 11.36 90.5501 11.16 90.2601C10.21 88.8401 8.85999 88.0001 7.22999 87.5401C6.45999 87.3301 5.65999 87.1001 5.25999 88.0001C4.85999 88.9201 5.34999 89.6001 6.19999 90.0301C7.04999 90.4601 7.94999 90.8201 8.55999 91.6001C8.69999 91.7801 8.98999 91.9201 8.86999 92.1901C8.73999 92.4901 8.46999 92.3301 8.24999 92.2601C6.85999 91.8301 5.41999 91.9101 3.98999 91.9001C3.98999 88.6301 3.98999 85.3701 3.98999 82.1001C5.72999 82.3501 7.45999 82.5901 9.07999 83.3201C9.36999 83.4501 9.65999 83.5901 9.93999 83.7401C11.09 84.3301 12.19 85.0401 12.92 86.1001C13.77 87.3201 12.52 88.3601 12.35 89.5101C12.29 89.9301 12.06 90.3201 11.9 90.7201L11.93 90.7401Z" fill="#E99266"/>
<path d="M54.0801 45.1399C54.0801 45.5299 54.0601 45.8699 53.5701 45.9099C49.5901 44.3999 48.0201 41.0299 49.3801 36.9199C50.0501 34.8899 50.9501 34.4899 52.8601 35.3499C53.6101 35.8799 53.6501 36.7099 53.8301 37.4999C53.9701 38.0799 53.7401 38.8099 54.4101 39.2099C53.8501 41.1599 54.1401 43.1599 54.0801 45.1399Z" fill="#E99266"/>
<path d="M176.11 61.2202C176.33 62.1502 176.44 63.1002 176.35 64.0602C176.27 64.8802 176.15 65.7402 175.16 66.0402C175.61 64.6202 175.3 63.2102 175.18 61.8002C175.47 61.5802 175.72 61.2702 176.12 61.2302L176.11 61.2202Z" fill="#E99266"/>
<path d="M135.83 60.5398C135.63 60.5198 135.46 60.4598 135.36 60.2598C135.57 60.2598 135.74 60.3298 135.83 60.5398Z" fill="#CED7DA"/>
<path d="M90.06 62.47C87.36 66.8 85.07 71.33 83.52 76.21C80.79 73.34 77.98 70.56 74.64 68.38C77.62 63.82 82.56 60.81 88.14 61.92C88.79 62.07 89.46 62.14 90.06 62.48V62.47Z" fill="#FDA87C"/>
<path d="M101.53 64.02C97.64 63.95 93.82 63.44 90.06 62.47C89.46 62.14 88.79 62.06 88.14 61.92C87.47 58.69 86.84 55.46 86.42 52.14C86.08 52.33 85.78 52.49 85.48 52.65C85.3 52.06 85.7 51.65 85.96 51.2C86.67 51.79 87.47 51.7 88.3 51.51C89.13 51.33 89.76 50.77 90.51 50.46C91.59 54.24 93.9 56.95 97.55 58.45C98.6 58.89 99.71 59.21 100.79 59.58C101.03 61.06 101.61 62.49 101.53 64.02Z" fill="#020201"/>
<path d="M101.53 64.0199C101.62 62.4799 101.03 61.0599 100.8 59.5799C103.55 60.2199 106.28 60.4799 109.07 59.6099C110.13 59.2799 110.94 58.3999 112.11 58.3599C112.71 59.7599 112.84 61.3199 113.56 62.6899C114.08 63.7999 113.65 64.6199 112.86 65.4399C111.27 67.0899 109.58 68.5799 107.25 69.0399C105.33 69.4199 103.73 68.6899 102.38 67.4099C101.76 66.8199 102.03 65.9099 101.83 65.1599C101.73 64.7899 101.84 64.3599 101.54 64.0299L101.53 64.0199Z" fill="#E99266"/>
<path d="M121.2 31.0298V31.0498H121.21V31.0298H121.2Z" fill="#FCA77B"/>
<path d="M121.2 31.0298V31.0498L121.21 31.0298H121.2ZM127.64 24.1298C127.38 23.3198 126.63 23.0298 125.87 22.8998C124.59 22.6698 123.28 22.6798 122.11 23.2198C121.17 23.6598 120.73 23.3898 120.15 22.6698C119.32 21.6298 118.24 20.8598 116.93 20.4898C115.09 19.9798 114.1 20.9298 114.52 22.7698C114.72 23.6398 115.73 24.4398 115.52 25.0898C115.31 25.7298 114.09 25.9298 113.48 26.5898C112.27 27.9098 112.58 29.1498 114.29 29.6598C115.8 30.1098 117.32 29.9098 118.73 29.2998C119.46 28.9998 119.73 29.2398 119.99 29.8098C120.47 29.9698 120.59 30.4698 120.93 30.7798C121.09 30.7898 121.21 30.8498 121.21 31.0298C121.7 31.2198 122.15 31.5098 122.61 31.7698C122.81 31.8798 123.01 31.9798 123.22 32.0498C123.5 32.1698 123.8 32.2498 124.12 32.2698C125.51 32.3498 126.13 31.7498 126.03 30.3598C125.95 29.2798 125.29 28.4598 124.79 27.5498C125.5 27.1098 126.25 26.7998 126.83 26.2398C127.42 25.6598 127.92 25.0098 127.64 24.1298ZM121.99 27.4298C121.45 28.2298 120.66 28.5898 119.71 28.3298C118.77 28.0698 118.28 27.3598 118.15 26.4198C118.1 26.0698 118.21 25.7098 118.6 25.5398C118.54 25.3198 118.58 25.1398 118.8 25.0198C118.88 24.9398 118.96 24.8598 119.04 24.7798C119.15 24.5798 119.33 24.5398 119.53 24.5598C120.44 23.9798 121.18 24.2998 121.81 25.0298C122.45 25.7798 122.53 26.6198 121.99 27.4298Z" fill="#FB5453"/>
<path d="M92.92 45.3299C92.82 46.9999 92.15 48.4399 91.11 49.7299C90.92 49.9799 90.71 50.2199 90.51 50.4599C89.76 50.7699 89.13 51.3299 88.3 51.5099C87.47 51.6999 86.67 51.7899 85.96 51.1999C86.43 49.3299 87.23 47.5499 87.42 45.6099C87.89 45.0999 88.15 44.4499 88.31 43.8199C88.66 42.4699 89.61 41.9899 90.83 41.8299C91.16 41.7899 91.46 41.7699 91.63 41.4399C93.02 42.4099 93.01 43.8599 92.92 45.3299Z" fill="#E99266"/>
<path d="M120.59 49.7999C119.77 50.0099 119.02 49.9899 118.33 49.4699C118.88 47.8899 119.44 46.3099 120 44.7399C120.91 44.0799 121.22 43.0099 121.71 42.0899C122.2 41.1699 122.99 41.2699 123.77 41.3199C124.53 41.3699 124.89 41.9499 124.99 42.5999C125.34 44.9599 124.08 48.8799 120.59 49.7999Z" fill="#E99266"/>
<path d="M183.83 58.6498C183.73 58.7698 183.56 58.8898 183.48 58.7598C183.37 58.5898 183.61 58.5798 183.71 58.5098C183.75 58.5598 183.79 58.6098 183.83 58.6598V58.6498Z" fill="#FEFEFE"/>
<path d="M175.16 66.03C175.13 66.13 175.1 66.24 175.07 66.34C175.04 66.32 175.01 66.3 174.98 66.28C175.04 66.19 175.1 66.11 175.16 66.02V66.03Z" fill="#E99266"/>
<path d="M87.7099 33.6501C87.6199 37.2001 87.4999 40.7501 87.3999 44.3001C87.3899 44.7301 87.4099 45.1701 87.4199 45.6101C87.2299 47.5501 86.4299 49.3301 85.9599 51.2001C85.6999 51.6501 85.2999 52.0601 85.4799 52.6501C85.0399 53.4501 84.5799 54.2401 84.1499 55.0401C82.9299 57.2501 81.5099 59.3001 79.4999 60.8901C78.1999 61.9201 76.6599 62.4601 75.1899 63.1601C74.9499 63.1601 74.6999 63.1201 74.4699 63.1701C71.5599 63.8201 68.6899 63.4701 65.7999 62.9401C63.9399 62.6001 62.3199 61.6701 60.5899 61.0101C57.7699 58.8601 55.7799 56.1301 54.9699 52.6501C54.5799 50.9801 54.2799 49.2901 54.0399 47.6001C53.9499 47.0001 53.7999 46.4501 53.5699 45.9101C54.0599 45.8701 54.0699 45.5301 54.0799 45.1401C54.1399 43.1601 53.8499 41.1601 54.4099 39.2101C54.7999 35.4601 55.6099 31.8201 57.1999 28.3901C57.9599 26.7501 58.9499 25.2701 60.2799 24.0201C60.7799 23.5601 61.1499 23.5301 61.7299 23.9101C66.0799 26.7701 70.8399 28.7401 75.6899 30.6101C77.3799 31.2601 79.3099 31.8401 80.6299 33.3201C80.8999 33.6301 81.15 34.1901 81.66 33.7201C82.16 33.2801 81.65 32.9501 81.41 32.6101C81.28 32.4301 81.0999 32.2701 80.8099 31.9601C83.1299 32.2201 85.2399 32.4501 87.3499 32.7001C87.9999 32.7801 87.7199 33.3101 87.7099 33.6501Z" fill="#FCA77B"/>
<path d="M98.94 34.1599C98.94 34.1599 98.91 34.1499 98.89 34.1499H98.9L98.94 34.1599Z" fill="#070504"/>
<path d="M121.2 31.0498C120.99 31.0898 120.99 30.8998 120.93 30.7798C120.59 30.4698 120.47 29.9698 119.99 29.8098C120.16 31.5198 120.27 33.2298 119.54 35.2598C119.34 31.8198 117.22 31.1198 114.59 30.9298C112.55 30.7798 110.6 30.3198 108.95 28.9098C108.1 28.1798 107 28.1798 106.04 28.7898C105.45 29.1498 105.2 29.1298 104.97 28.4398C104.26 26.3198 103.63 24.1898 103.27 21.9798C103.18 21.4798 103.4 20.8998 102.89 20.3398C102.1 22.4698 101.75 24.5098 102.19 26.6498C102.27 27.0598 102.52 27.5098 101.71 27.4798C100.08 27.4098 98.59 27.9798 97.05 28.6198C96.37 26.6698 96.42 24.7098 96.67 22.7198C95.57 24.6298 94.91 26.6898 94.5 28.8398C94.39 29.3798 94.55 30.1998 93.48 29.9598C93.09 29.8698 93.13 30.3098 93.13 30.5698C93.2 34.2698 92.5 37.8698 91.63 41.4398C93.02 42.4098 93.01 43.8598 92.92 45.3298C92.82 46.9998 92.15 48.4398 91.11 49.7298C90.92 49.9798 90.71 50.2198 90.51 50.4598C91.59 54.2398 93.9 56.9498 97.55 58.4498C98.6 58.8898 99.71 59.2098 100.79 59.5798C103.54 60.2198 106.27 60.4798 109.06 59.6098C110.12 59.2798 110.93 58.3998 112.1 58.3598C112.08 57.9298 112.43 57.7598 112.7 57.5398C113.82 56.6198 114.73 55.5098 115.58 54.3498C116.68 52.8298 117.4 51.0898 118.33 49.4698C118.88 47.8898 119.44 46.3098 120 44.7398C120.05 44.3798 120.09 44.0298 120.16 43.6798C120.91 39.4998 121.79 35.3298 121.2 31.0498ZM98.89 34.1498H98.9L98.92 34.1298C98.92 34.1298 98.93 34.1498 98.94 34.1598C98.92 34.1598 98.91 34.1498 98.89 34.1498Z" fill="#FCA77B"/>
<path d="M98.94 34.1599L98.9 34.1399L98.92 34.1299C98.92 34.1399 98.93 34.1499 98.94 34.1599Z" fill="#070504"/>
<path d="M121.21 31.0298V31.0498H121.2C120.99 31.0898 120.99 30.8998 120.93 30.7798C121.09 30.7898 121.21 30.8498 121.21 31.0298Z" fill="#020201"/>
<path d="M119.54 24.5601C120.45 23.9801 121.19 24.3001 121.82 25.0301C122.46 25.7801 122.54 26.6201 122 27.4301C121.47 28.2301 120.67 28.5801 119.72 28.3201C118.78 28.0601 118.29 27.3501 118.16 26.4201C118.11 26.0701 118.23 25.7101 118.61 25.5301L118.66 25.5701C118.66 25.8101 118.44 26.2401 118.9 26.1801C119.54 26.1101 119.95 25.6201 120.14 25.0401C120.28 24.6101 119.92 24.6401 119.63 24.6701C119.6 24.6301 119.57 24.6001 119.54 24.5601Z" fill="#B72D2D"/>
<path d="M118.6 25.53C118.54 25.31 118.59 25.13 118.8 25.02C118.86 25.07 118.92 25.13 118.98 25.18C118.87 25.31 118.76 25.45 118.65 25.58L118.6 25.54V25.53Z" fill="#B72D2D"/>
<path d="M119.04 24.7798C119.15 24.5798 119.33 24.5398 119.54 24.5598C119.57 24.5998 119.6 24.6298 119.63 24.6698C119.49 24.7698 119.34 24.8598 119.2 24.9598C119.15 24.8998 119.09 24.8398 119.04 24.7798Z" fill="#B72D2D"/>
<path d="M118.8 25.0198C118.88 24.9398 118.96 24.8598 119.04 24.7798C119.09 24.8398 119.15 24.8998 119.2 24.9598L118.98 25.1798C118.92 25.1298 118.86 25.0698 118.8 25.0198Z" fill="#B72D2D"/>
<path d="M118.98 25.1801C119.05 25.1101 119.13 25.0301 119.2 24.9601C119.34 24.8601 119.49 24.7701 119.63 24.6701C119.92 24.6401 120.28 24.6101 120.14 25.0401C119.95 25.6201 119.53 26.1101 118.9 26.1801C118.44 26.2301 118.66 25.8101 118.66 25.5701C118.77 25.4401 118.88 25.3001 118.99 25.1701L118.98 25.1801Z" fill="#FDFBFB"/>
</g>
<defs>
<clipPath id="clip0_443_2926">
<rect width="200.71" height="134.53" fill="white"/>
</clipPath>
</defs>
</svg>
