<svg width="181" height="108" viewBox="0 0 181 108" fill="none" xmlns="http://www.w3.org/2000/svg">
<g clip-path="url(#clip0_300_2220)">
<path opacity="0.05" d="M87.6208 108C136.012 108 175.242 95.5615 175.242 80.2176C175.242 64.8737 136.012 52.4351 87.6208 52.4351C39.2292 52.4351 0 64.8737 0 80.2176C0 95.5615 39.2292 108 87.6208 108Z" fill="url(#paint0_linear_300_2220)"/>
<path d="M123.554 17.37C123.554 17.37 115.564 4.82491 126.328 0.940547C131.811 -1.04624 140.069 -1.02191 139.6 12.8288C139.131 26.6795 123.554 17.37 123.554 17.37Z" fill="#FFD9CA"/>
<path opacity="0.1" d="M126.441 14.2968C126.441 14.2968 121.928 7.21737 128.002 5.01974C131.1 3.90066 135.758 3.91687 135.499 11.7343C135.24 19.5517 126.441 14.2968 126.441 14.2968Z" fill="black"/>
<path d="M113.137 55.5812C113.598 55.3541 114.027 55.127 114.447 54.9C104.92 51.4778 95.5305 47.4962 86.2783 42.9955C85.2027 42.4684 84.1998 41.8602 83.2617 41.1709C79.2907 47.3502 73.3787 58.5492 76.185 66.9667C81.9677 84.3125 119.72 78.344 119.72 78.344L123.174 67.8344C123.174 67.8344 109.74 57.2598 113.137 55.5812Z" fill="#8569BC"/>
<path d="M105.47 31.002C105.47 31.002 101.354 18.5785 65.0241 5.80631C54.85 2.2301 29.5763 -5.38456 15.0672 20.8167C6.28405 36.6866 13.9996 49.1344 25.5001 56.222C23.6885 56.4572 21.8203 56.8707 19.9359 57.5357C4.39156 62.9527 14.0562 82.853 18.5286 83.6883C23.0011 84.5235 22.257 80.9311 22.257 80.9311C22.257 80.9311 80.1883 94.4494 83.108 68.3211C83.3021 66.6019 83.5689 64.9476 83.8925 63.3501C94.6651 65.5477 108.43 68.9617 112.434 48.7046C114.358 38.9735 105.478 30.9939 105.478 30.9939L105.47 31.002Z" fill="#A17DD8"/>
<path d="M39.5401 80.2822C37.4131 76.3654 35.0192 72.5945 33.1024 68.5561C30.7247 63.5364 28.63 58.3627 25.2898 53.8863C25.7023 54.4053 26.1148 54.9243 26.5272 55.4433C25.3464 53.8539 24.3112 52.2644 23.4782 50.5858C23.0657 50.5858 22.6533 50.5696 22.2408 50.5372C21.2541 50.4642 20.2917 50.3588 19.3455 50.229C19.5396 50.375 19.7418 50.5291 19.9359 50.675C18.1081 50.7723 16.2237 51.0562 14.2907 51.5752C-1.60945 55.8407 6.57518 76.3978 10.9667 77.5574C15.3664 78.7171 14.8892 75.0841 14.8892 75.0841C14.8892 75.0841 26.4221 78.6846 39.5401 80.2822Z" fill="#8569BC"/>
<path d="M105.85 31.3668C93.3144 61.9876 48.9459 56.83 26.7941 40.3843C21.6584 36.5729 17.7198 32.9481 15.8677 26.5417C15.342 24.7252 15.0509 22.8601 14.97 20.9868C6.33248 36.7676 14.0319 49.1586 25.492 56.2218C23.6803 56.457 21.8121 56.8706 19.9277 57.5356C4.38337 62.9526 14.048 82.8529 18.5205 83.6881C22.9929 84.5234 22.2488 80.931 22.2488 80.931C22.2488 80.931 80.1802 94.4492 83.0998 68.321C83.2939 66.6018 83.5608 64.9475 83.8843 63.3499C94.6569 65.5476 108.422 68.9616 112.425 48.7045C114.108 40.1978 107.532 33.0292 105.85 31.3668Z" fill="#9172CE"/>
<path d="M104.087 37.8866C104.087 37.8866 105.769 14.7832 129.296 9.95C150.615 5.57096 166.677 15.2535 172.257 28.5285C177.83 41.8034 173.77 69.7806 154.998 78.4981C136.227 87.2157 100.723 73.9407 104.087 37.8866Z" fill="#FFD9CA"/>
<path opacity="0.08" d="M172.257 28.5288C170.947 25.3986 169.039 22.4793 166.628 19.8843C168.214 23.866 168.893 27.1259 169.629 32.2105C170.963 41.3659 167.405 51.2187 161.266 57.9738C155.338 64.4937 147.081 67.4211 138.459 67.705C132.248 67.9077 123.619 66.8697 118.378 63.0583C112.304 58.6469 108.713 54.73 105.907 47.5776C104.872 44.934 104.637 42.4201 104.734 39.89C104.484 39.6224 104.241 39.3467 103.998 39.0628C101.507 74.2249 136.438 87.1268 155.007 78.4985C173.778 69.781 177.838 41.8038 172.265 28.5288H172.257Z" fill="black"/>
<path d="M137.982 29.8667C137.982 29.8667 137.917 30.1911 137.812 30.7506C137.707 31.3102 137.562 32.0968 137.416 33.0212C137.278 33.9457 137.133 35.0161 137.117 36.1271C137.076 37.2381 137.165 38.3896 137.464 39.4276C137.602 39.9547 137.828 40.4331 138.071 40.8954C138.346 41.3333 138.637 41.7712 139.001 42.128L139.268 42.4037C139.365 42.4848 139.462 42.5659 139.559 42.6551C139.737 42.8335 139.947 42.9795 140.15 43.1254C140.344 43.2795 140.554 43.4093 140.764 43.5309C140.974 43.6526 141.161 43.7985 141.363 43.8958C141.767 44.0986 142.139 44.3175 142.495 44.4635C142.843 44.6176 143.15 44.7797 143.409 44.8771C143.926 45.0879 144.234 45.242 144.234 45.242C144.234 45.242 143.91 45.2906 143.328 45.3231C143.037 45.3474 142.689 45.3393 142.285 45.3069C141.872 45.2987 141.419 45.2258 140.918 45.1285C140.425 45.0068 139.875 44.8852 139.325 44.6176C139.05 44.504 138.758 44.3743 138.484 44.1959C138.192 44.0499 137.925 43.8553 137.659 43.6363C137.109 43.2228 136.623 42.6713 136.211 42.0712C135.815 41.4549 135.491 40.7737 135.297 40.0601C134.901 38.641 134.909 37.1894 135.135 35.9244C135.232 35.2837 135.418 34.6917 135.588 34.1403C135.766 33.5889 135.976 33.0861 136.195 32.6401C136.615 31.7318 137.076 31.0425 137.416 30.5803C137.756 30.1181 137.998 29.8748 137.998 29.8748L137.982 29.8667Z" fill="#897168"/>
<path d="M149.725 53.7729C149.725 53.7729 149.661 54.0973 149.555 54.6569C149.45 55.2164 149.305 56.003 149.159 56.9275C149.022 57.8519 148.876 58.9224 148.86 60.0333C148.819 61.1443 148.908 62.2959 149.208 63.3338C149.345 63.861 149.572 64.3394 149.814 64.8016C150.089 65.2395 150.38 65.6774 150.744 66.0343L151.011 66.31C151.108 66.3911 151.205 66.4722 151.302 66.5614C151.48 66.7398 151.691 66.8857 151.893 67.0317C152.087 67.1858 152.297 67.3155 152.507 67.4372C152.718 67.5588 152.904 67.7048 153.106 67.8021C153.51 68.0048 153.882 68.2238 154.238 68.3697C154.586 68.5238 154.893 68.686 155.152 68.7833C155.67 68.9942 155.977 69.1482 155.977 69.1482C155.977 69.1482 155.653 69.1969 155.071 69.2293C154.78 69.2537 154.432 69.2455 154.028 69.2212C153.615 69.2131 153.162 69.1401 152.661 69.0428C152.168 68.9212 151.618 68.7995 151.068 68.5319C150.793 68.4184 150.502 68.2886 150.227 68.1102C149.936 67.9643 149.669 67.7696 149.402 67.5507C148.852 67.1371 148.367 66.5857 147.954 65.9856C147.558 65.3693 147.234 64.6881 147.04 63.9745C146.644 62.5554 146.652 61.1038 146.878 59.8387C146.975 59.1981 147.161 58.6061 147.331 58.0547C147.509 57.5032 147.72 57.0005 147.938 56.5544C148.358 55.6462 148.819 54.9569 149.159 54.4947C149.499 54.0324 149.741 53.7892 149.741 53.7892L149.725 53.7729Z" fill="#897168"/>
<path d="M135.451 67.264C140.055 64.3828 141.17 57.843 137.942 52.6569C134.714 47.4707 128.364 45.6022 123.761 48.4834C119.157 51.3645 118.042 57.9044 121.27 63.0905C124.498 68.2766 130.847 70.1452 135.451 67.264Z" fill="#7162A0"/>
<path d="M136.424 68.284C141.028 65.4028 142.143 58.863 138.915 53.6769C135.687 48.4907 129.338 46.6222 124.734 49.5034C120.13 52.3846 119.015 58.9244 122.243 64.1105C125.471 69.2966 131.82 71.1652 136.424 68.284Z" fill="#A17DD8"/>
<path d="M128.309 55.2488C126.522 56.3679 126.085 58.9142 127.339 60.9253C128.592 62.9446 131.059 63.6663 132.855 62.5472C134.642 61.4281 135.079 58.8818 133.825 56.8707C132.572 54.8514 130.105 54.1297 128.309 55.2488Z" fill="#7C62BC"/>
<path d="M127.848 54.6324C125.996 55.8164 124.913 57.9248 125.268 60.1305C125.624 62.3363 127.509 63.8446 129.628 64.0879C130.849 64.2339 132.111 63.9014 133.154 63.2688C134.124 62.6769 133.235 61.1442 132.264 61.7443C131.561 62.1741 130.881 62.3768 130.097 62.3606C129.409 62.3444 128.706 62.1254 128.14 61.7119C127.573 61.2983 127.193 60.6739 127.032 60.0251C127.007 59.9359 126.991 59.8467 126.975 59.7575C126.943 59.6034 126.975 59.7899 126.959 59.6359C126.943 59.425 126.935 59.2142 126.959 59.0033C126.959 58.9628 126.983 58.7438 126.959 58.8736C126.975 58.7844 126.991 58.6952 127.007 58.606C127.048 58.4114 127.104 58.2167 127.177 58.0302C127.428 57.3328 128.043 56.6111 128.73 56.1732C129.134 55.9137 129.296 55.3866 129.045 54.9649C128.811 54.5675 128.245 54.3891 127.84 54.6486L127.848 54.6324Z" fill="#654D91"/>
<path d="M163.644 33.2725C161.978 36.4675 161.76 40.5871 164.841 42.7766C168.828 45.5905 173.123 43.7254 172.047 38.6733C172.055 38.6895 172.257 38.8598 172.524 38.8598C172.783 38.8598 172.864 38.7544 172.856 38.7625C171.44 40.6033 175.104 44.9823 177.312 44.0984C178.978 43.6119 180.191 41.917 181.016 40.36C180.879 41.325 180.587 42.2819 180.094 43.1821C178.194 46.8313 174.166 46.5393 171.707 43.6281C169.92 41.9981 168.877 38.6084 170.988 36.5892C172.411 35.2511 174.449 36.1999 174.91 37.9191C175.371 39.3707 175.258 40.8952 174.91 42.3387C173.511 47.8044 166.798 48.072 163.312 44.5606C159.859 41.4467 160.506 36.2324 163.644 33.2725Z" fill="#A37C5F"/>
<path d="M113.509 68.7183C113.509 68.7183 126.385 72.4404 125.147 78.9117C123.91 85.3829 122.802 83.2826 122.058 79.6983C122.058 79.6983 119.478 88.8051 118.265 79.4226C118.265 79.4226 118.168 87.6373 115.499 79.2198C115.499 79.2198 114.229 81.4661 110.064 79.2361L113.517 68.7264L113.509 68.7183Z" fill="#FFD9CA"/>
<path d="M96.2827 60.0331C97.787 59.279 100.068 58.1437 103.473 56.465C119.704 48.4611 112.611 36.8891 105.478 29.015C92.6999 14.9128 76.7997 37.4811 76.7997 37.4811C76.7997 37.4811 62.4442 55.6136 66.5204 67.8505C72.303 85.1964 110.056 79.2279 110.056 79.2279L113.509 68.7182L96.2827 60.0412V60.0331Z" fill="#796599"/>
</g>
<defs>
<linearGradient id="paint0_linear_300_2220" x1="0" y1="80.2176" x2="175.242" y2="80.2176" gradientUnits="userSpaceOnUse">
<stop stop-color="#4E3FA5"/>
<stop offset="1" stop-color="#1E183F"/>
</linearGradient>
<clipPath id="clip0_300_2220">
<rect width="181" height="108" fill="white"/>
</clipPath>
</defs>
</svg>
