<svg width="110" height="88" viewBox="0 0 110 88" fill="none" xmlns="http://www.w3.org/2000/svg">
<path d="M75.9735 0.0136719H32.113V43.8191H75.9735V0.0136719Z" fill="#C5B7D9"/>
<path d="M96.3805 0H75.9746V43.8054H96.3805V0Z" fill="#A997C2"/>
<path d="M32.1262 43.8441L32.1006 0.0385742H60.4101C60.4101 0.0385742 34.7522 0.844638 32.1262 43.8441Z" fill="#D3C4E8"/>
<path d="M43.8729 43.8447H0.0124512V87.6501H43.8729V43.8447Z" fill="#F9E792"/>
<path d="M64.2782 43.8184H43.8723V87.6238H64.2782V43.8184Z" fill="#F0DC82"/>
<path d="M0.0256445 87.6621L0 43.8566L35.3677 43.8311C35.3677 43.8311 0.742963 43.7799 0.0384276 87.6621H0.0256445Z" fill="#F9ECAC"/>
<path d="M108.139 43.8447H64.2783V87.6501H108.139V43.8447Z" fill="#FCB3CC"/>
<path d="M128.546 43.8184H108.14V87.6238H128.546V43.8184Z" fill="#ED98B5"/>
<path d="M64.2912 87.6621L64.2656 43.8566L99.313 43.8311C99.313 43.8311 63.5098 46.4026 64.2912 87.6621Z" fill="#FCC2D6"/>
</svg>
