<svg width="163" height="64" viewBox="0 0 163 64" fill="none" xmlns="http://www.w3.org/2000/svg">
<path d="M24.2422 27.3047C24.1641 27.7422 24.0234 28.3203 23.8203 29.0391C23.6172 29.7422 23.3281 30.4922 22.9531 31.2891C22.5781 32.0859 22.1016 32.8906 21.5234 33.7031C20.9609 34.5156 20.2734 35.25 19.4609 35.9062C18.6641 36.5469 17.7266 37.0703 16.6484 37.4766C15.5703 37.8984 14.3438 38.1094 12.9688 38.1094C11.4062 38.1094 9.89844 37.7344 8.44531 36.9844C6.99219 36.2344 5.70312 35.1562 4.57812 33.75C3.45312 32.3438 2.55469 30.625 1.88281 28.5938C1.21094 26.5469 0.875 24.2344 0.875 21.6562C0.875 19.8281 1.03906 18.0391 1.36719 16.2891C1.69531 14.5391 2.16406 12.8906 2.77344 11.3438C3.39844 9.79688 4.14844 8.375 5.02344 7.07812C5.91406 5.76562 6.92188 4.64062 8.04688 3.70312C9.17188 2.76562 10.4062 2.03906 11.75 1.52344C13.0938 0.992187 14.5234 0.726562 16.0391 0.726562C17.1797 0.726562 18.2031 0.898437 19.1094 1.24219C20.0156 1.58594 20.7812 2.05469 21.4062 2.64844C22.0469 3.24219 22.5312 3.94531 22.8594 4.75781C23.2031 5.55469 23.375 6.41406 23.375 7.33594C23.375 7.94531 23.2812 8.54688 23.0938 9.14062C22.9219 9.71875 22.7109 10.2656 22.4609 10.7812C22.2109 11.2812 21.9453 11.7422 21.6641 12.1641C21.3984 12.5703 21.1719 12.8984 20.9844 13.1484L20.7031 12.9141C20.8906 12.6641 21.0625 12.375 21.2188 12.0469C21.3906 11.7031 21.5391 11.3359 21.6641 10.9453C21.7891 10.5547 21.8906 10.1484 21.9688 9.72656C22.0469 9.28906 22.0859 8.84375 22.0859 8.39062C22.0859 7.5625 21.9375 6.78125 21.6406 6.04688C21.3594 5.3125 20.9453 4.67187 20.3984 4.125C19.8516 3.5625 19.1797 3.11719 18.3828 2.78906C17.6016 2.46094 16.7109 2.29688 15.7109 2.29688C14.2109 2.29688 12.8281 2.52344 11.5625 2.97656C10.3125 3.41406 9.1875 4.03906 8.1875 4.85156C7.1875 5.64844 6.30469 6.60938 5.53906 7.73438C4.78906 8.84375 4.16406 10.0703 3.66406 11.4141C3.16406 12.7578 2.78906 14.1875 2.53906 15.7031C2.28906 17.2188 2.16406 18.7812 2.16406 20.3906C2.16406 21.6562 2.26562 22.9375 2.46875 24.2344C2.6875 25.5156 3.00781 26.7578 3.42969 27.9609C3.85156 29.1641 4.375 30.2969 5 31.3594C5.64062 32.4062 6.375 33.3203 7.20312 34.1016C8.04688 34.8828 8.99219 35.5 10.0391 35.9531C11.1016 36.4062 12.2578 36.6328 13.5078 36.6328C15.1641 36.6328 16.5859 36.3438 17.7734 35.7656C18.9609 35.1719 19.9609 34.4219 20.7734 33.5156C21.5859 32.5938 22.2266 31.5781 22.6953 30.4688C23.1797 29.3594 23.5391 28.2734 23.7734 27.2109L24.2422 27.3047ZM29.9609 34.5234C30.3359 34.5234 30.7031 34.4453 31.0625 34.2891C31.4219 34.1172 31.7422 33.875 32.0234 33.5625C32.3047 33.2344 32.5234 32.8359 32.6797 32.3672C32.8516 31.8984 32.9375 31.3516 32.9375 30.7266C32.9375 30.2109 32.875 29.7266 32.75 29.2734C32.625 28.8047 32.4375 28.3984 32.1875 28.0547C31.9531 27.7109 31.6406 27.4375 31.25 27.2344C30.875 27.0312 30.4297 26.9297 29.9141 26.9297C29.5547 26.9297 29.1953 27 28.8359 27.1406C28.4766 27.2656 28.1562 27.4766 27.875 27.7734C27.5938 28.0547 27.3672 28.4219 27.1953 28.875C27.0234 29.3125 26.9375 29.8438 26.9375 30.4688C26.9375 30.9688 27 31.4609 27.125 31.9453C27.25 32.4141 27.4297 32.8438 27.6641 33.2344C27.9141 33.625 28.2266 33.9375 28.6016 34.1719C28.9922 34.4062 29.4453 34.5234 29.9609 34.5234ZM29.1406 35.7188C28.1094 35.7188 27.2656 35.3828 26.6094 34.7109C25.9531 34.0234 25.625 33.0312 25.625 31.7344C25.625 30.8594 25.7891 30.0547 26.1172 29.3203C26.4453 28.5703 26.8672 27.9297 27.3828 27.3984C27.9141 26.8516 28.5 26.4297 29.1406 26.1328C29.7812 25.8359 30.4062 25.6875 31.0156 25.6875C32 25.6875 32.7891 26.0234 33.3828 26.6953C33.9766 27.3672 34.2734 28.3594 34.2734 29.6719C34.2734 30.5469 34.1172 31.3516 33.8047 32.0859C33.5078 32.8203 33.1094 33.4609 32.6094 34.0078C32.125 34.5391 31.5781 34.9609 30.9688 35.2734C30.3594 35.5703 29.75 35.7188 29.1406 35.7188ZM37.7656 25.5469C37.8438 25.5469 37.9062 25.6094 37.9531 25.7344C38 25.8594 38.0312 26.0078 38.0469 26.1797C38.0781 26.3516 38.0938 26.5391 38.0938 26.7422C38.0938 26.9297 38.0938 27.1016 38.0938 27.2578C38.0938 27.6641 38.0781 28.0859 38.0469 28.5234C38.0312 28.9453 38.0078 29.3594 37.9766 29.7656C37.9609 30.1562 37.9453 30.5234 37.9297 30.8672C37.9141 31.1953 37.9062 31.4688 37.9062 31.6875C37.9062 32.0938 37.9219 32.4219 37.9531 32.6719C37.9844 32.9062 38.0625 33.0234 38.1875 33.0234C38.2656 33.0234 38.3672 32.9219 38.4922 32.7188C38.6172 32.5156 38.75 32.2734 38.8906 31.9922C39.0469 31.6953 39.1953 31.3828 39.3359 31.0547C39.4766 30.7266 39.6094 30.4375 39.7344 30.1875C39.8906 29.8594 40.0625 29.5 40.25 29.1094C40.4531 28.7031 40.6641 28.3281 40.8828 27.9844C41.1016 27.625 41.3281 27.3281 41.5625 27.0938C41.8125 26.8594 42.0703 26.7422 42.3359 26.7422C42.5078 26.7422 42.6562 26.7891 42.7812 26.8828C42.9219 26.9766 43.0391 27.1016 43.1328 27.2578C43.2266 27.3984 43.2969 27.5547 43.3438 27.7266C43.4062 27.8828 43.4531 28.0312 43.4844 28.1719C43.5312 28.5312 43.5781 29.1016 43.625 29.8828C43.6875 30.6484 43.7656 31.4688 43.8594 32.3438C43.9375 33.2188 44.1484 33.8594 44.4922 34.2656C44.8359 34.6562 45.2812 34.8516 45.8281 34.8516C46.0469 34.8516 46.2188 34.8359 46.3438 34.8047C46.4844 34.7734 46.6016 34.7578 46.6953 34.7578C46.7734 34.7578 46.7891 34.8359 46.7422 34.9922C46.7266 35.0234 46.6875 35.0703 46.625 35.1328C46.5781 35.1797 46.4922 35.2344 46.3672 35.2969C46.2422 35.3594 46.0703 35.4141 45.8516 35.4609C45.6484 35.5078 45.3984 35.5312 45.1016 35.5312C44.6016 35.5312 44.1875 35.4531 43.8594 35.2969C43.5312 35.125 43.2656 34.8594 43.0625 34.5C42.8594 34.1406 42.7109 33.6797 42.6172 33.1172C42.5234 32.5391 42.4609 31.8516 42.4297 31.0547C42.3984 30.6797 42.3672 30.3203 42.3359 29.9766C42.3203 29.6172 42.2812 29.3047 42.2188 29.0391C42.1719 28.7578 42.1016 28.5391 42.0078 28.3828C41.9141 28.2109 41.7812 28.125 41.6094 28.125C41.4688 28.125 41.2969 28.2656 41.0938 28.5469C40.9062 28.8281 40.7188 29.1641 40.5312 29.5547C40.3438 29.9297 40.1641 30.3203 39.9922 30.7266C39.8359 31.1328 39.7031 31.4531 39.5938 31.6875C39.25 32.4219 38.9609 33.0234 38.7266 33.4922C38.5078 33.9609 38.2656 34.4141 38 34.8516C37.9219 34.9766 37.8359 35.0781 37.7422 35.1562C37.6641 35.2344 37.5625 35.2734 37.4375 35.2734C37.25 35.2734 37.1016 35.1172 36.9922 34.8047C36.8828 34.4922 36.7969 34.1328 36.7344 33.7266C36.6875 33.3203 36.6562 32.9141 36.6406 32.5078C36.625 32.0859 36.6172 31.7656 36.6172 31.5469C36.6172 31.2969 36.6172 30.9922 36.6172 30.6328C36.6328 30.2734 36.6484 29.9219 36.6641 29.5781C36.6797 29.2344 36.6875 28.9219 36.6875 28.6406C36.7031 28.3594 36.7109 28.1719 36.7109 28.0781C36.7109 27.9844 36.7031 27.8594 36.6875 27.7031C36.6875 27.5312 36.6875 27.3672 36.6875 27.2109C36.6875 27.0391 36.6797 26.8906 36.6641 26.7656C36.6641 26.625 36.6641 26.5312 36.6641 26.4844C36.6641 26.3594 36.6953 26.2578 36.7578 26.1797C36.8359 26.0859 36.9141 26.0156 36.9922 25.9688C37.0703 25.9219 37.1953 25.8438 37.3672 25.7344C37.5391 25.6094 37.6719 25.5469 37.7656 25.5469ZM54.6875 25.6875C55.125 25.6875 55.4922 25.7188 55.7891 25.7812C56.0859 25.8438 56.3203 25.9297 56.4922 26.0391C56.6641 26.1328 56.7812 26.2422 56.8438 26.3672C56.9219 26.4766 56.9609 26.5859 56.9609 26.6953C56.9609 26.8672 56.875 27.0625 56.7031 27.2812C56.5469 27.5 56.4062 27.6094 56.2812 27.6094C56.2188 27.6094 56.1328 27.5859 56.0234 27.5391C55.9297 27.4766 55.7812 27.4219 55.5781 27.375C55.3906 27.3125 55.1484 27.2578 54.8516 27.2109C54.5703 27.1484 54.2109 27.1172 53.7734 27.1172C51.9766 27.1172 50.5859 27.5156 49.6016 28.3125C48.6172 29.0938 48.125 30.1719 48.125 31.5469C48.125 31.7812 48.1719 32.0391 48.2656 32.3203C48.375 32.6016 48.5312 32.8594 48.7344 33.0938C48.9531 33.3281 49.2266 33.5312 49.5547 33.7031C49.8984 33.8594 50.3125 33.9375 50.7969 33.9375C51.7188 33.9375 52.5 33.7656 53.1406 33.4219C53.7969 33.0781 54.3438 32.6875 54.7812 32.25C54.7812 32.1719 54.7891 32.1016 54.8047 32.0391C54.8203 31.9766 54.8438 31.9062 54.875 31.8281C54.9844 31.2969 55.125 30.8047 55.2969 30.3516C55.4844 29.8828 55.6797 29.4844 55.8828 29.1562C56.0859 28.8125 56.2891 28.5469 56.4922 28.3594C56.6953 28.1719 56.8672 28.0781 57.0078 28.0781C57.1797 28.0781 57.2734 28.1328 57.2891 28.2422C57.3203 28.3516 57.3359 28.4453 57.3359 28.5234C57.3359 28.8047 57.1719 29.2734 56.8438 29.9297C56.5312 30.5703 56.1016 31.25 55.5547 31.9688C55.4297 32.7188 55.3047 33.6641 55.1797 34.8047C55.0547 35.9453 54.9375 37.25 54.8281 38.7188C54.7188 40.1875 54.625 41.7969 54.5469 43.5469C54.4844 45.3125 54.4531 47.1797 54.4531 49.1484C54.4531 50.7891 54.4844 52.3672 54.5469 53.8828C54.6094 55.4141 54.6719 56.7656 54.7344 57.9375C54.8125 59.1094 54.8828 60.0547 54.9453 60.7734C55.0078 61.5078 55.0391 61.9062 55.0391 61.9688C55.0391 62.1875 55.0156 62.3516 54.9688 62.4609C54.9375 62.5859 54.8594 62.7109 54.7344 62.8359C54.6406 62.9297 54.5234 63.0312 54.3828 63.1406C54.2578 63.25 54.125 63.3047 53.9844 63.3047C53.7969 63.3047 53.6641 63.2422 53.5859 63.1172C53.4922 63.0078 53.3906 62.7812 53.2812 62.4375C53.1719 62.0938 53.0703 61.5156 52.9766 60.7031C52.8984 59.9062 52.8281 58.8125 52.7656 57.4219C52.7031 56.0312 52.6719 54.2188 52.6719 51.9844C52.6719 50.0156 52.7344 48.1094 52.8594 46.2656C52.9844 44.4375 53.1406 42.7109 53.3281 41.0859C53.5312 39.4766 53.75 37.9844 53.9844 36.6094C54.2188 35.25 54.4375 34.0547 54.6406 33.0234C53.9844 33.6797 53.2578 34.2344 52.4609 34.6875C51.6797 35.1406 50.8438 35.3672 49.9531 35.3672C49.5469 35.3672 49.1484 35.3125 48.7578 35.2031C48.3828 35.0781 48.0469 34.8906 47.75 34.6406C47.4688 34.3906 47.2422 34.0781 47.0703 33.7031C46.8984 33.3281 46.8125 32.8906 46.8125 32.3906C46.8125 31.7188 47 30.9922 47.375 30.2109C47.7656 29.4141 48.3047 28.6875 48.9922 28.0312C49.6953 27.3594 50.5312 26.8047 51.5 26.3672C52.4688 25.9141 53.5312 25.6875 54.6875 25.6875ZM56 30.1875C55.9375 30.2656 55.8828 30.3828 55.8359 30.5391C55.7891 30.6953 55.7422 30.8828 55.6953 31.1016C55.7578 31.0234 55.8125 30.9609 55.8594 30.9141C55.9062 30.8516 55.9453 30.7969 55.9766 30.75C56.0078 30.6875 56.0312 30.6328 56.0469 30.5859C56.1094 30.3672 56.1562 30.1953 56.1875 30.0703C56.2188 29.9609 56.2266 29.9062 56.2109 29.9062C56.1953 29.8906 56.125 29.9844 56 30.1875ZM63.7578 26.1094C64.1484 26.1094 64.4609 26.1953 64.6953 26.3672C64.9297 26.5234 65.1016 26.7188 65.2109 26.9531C65.3359 27.1719 65.4141 27.3984 65.4453 27.6328C65.4766 27.8672 65.4922 28.0625 65.4922 28.2188C65.4922 28.4062 65.4688 28.7031 65.4219 29.1094C65.375 29.5156 65.3281 29.9375 65.2812 30.375C65.2344 30.8125 65.1875 31.2188 65.1406 31.5938C65.0938 31.9688 65.0703 32.2188 65.0703 32.3438C65.0703 32.6562 65.0938 32.9453 65.1406 33.2109C65.1875 33.4609 65.2734 33.6875 65.3984 33.8906C65.5234 34.0938 65.6953 34.25 65.9141 34.3594C66.1328 34.4688 66.4219 34.5234 66.7812 34.5234C67.4375 34.5234 68.125 34.1953 68.8438 33.5391C69.5625 32.8828 70.2344 31.9766 70.8594 30.8203L71 30.9141C70.8281 31.4922 70.5625 32.0859 70.2031 32.6953C69.8438 33.2891 69.4297 33.8359 68.9609 34.3359C68.4922 34.8359 67.9922 35.25 67.4609 35.5781C66.9297 35.8906 66.4141 36.0469 65.9141 36.0469C65.4922 36.0469 65.1484 35.9609 64.8828 35.7891C64.6328 35.6016 64.4375 35.375 64.2969 35.1094C64.1562 34.8281 64.0625 34.5312 64.0156 34.2188C63.9688 33.8906 63.9453 33.5859 63.9453 33.3047C63.9453 32.9609 63.9766 32.5625 64.0391 32.1094C64.1016 31.6406 64.1641 31.1797 64.2266 30.7266C64.3047 30.2578 64.375 29.8203 64.4375 29.4141C64.5 29.0078 64.5312 28.6875 64.5312 28.4531C64.5312 28.25 64.4922 28.0859 64.4141 27.9609C64.3516 27.8359 64.2656 27.7422 64.1562 27.6797C64.0469 27.6016 63.9375 27.5547 63.8281 27.5391C63.7188 27.5234 63.6328 27.5156 63.5703 27.5156C63.3984 27.5156 63.1719 27.5391 62.8906 27.5859C62.625 27.6328 62.2422 27.6562 61.7422 27.6562C61.6016 27.6562 61.4609 27.6484 61.3203 27.6328C61.1797 27.6172 61.0312 27.5938 60.875 27.5625C60.8281 28.1719 60.7266 28.7656 60.5703 29.3438C60.4297 29.9219 60.2656 30.4531 60.0781 30.9375C59.9062 31.4219 59.7266 31.8438 59.5391 32.2031C59.3516 32.5469 59.1953 32.7891 59.0703 32.9297C58.8672 32.9297 58.7656 32.8359 58.7656 32.6484C58.7812 32.5547 58.8594 32.3672 59 32.0859C59.1562 31.7891 59.3203 31.4141 59.4922 30.9609C59.6797 30.5078 59.8516 29.9688 60.0078 29.3438C60.1797 28.7188 60.2812 28.0234 60.3125 27.2578C59.5781 26.8359 59.2109 26.0859 59.2109 25.0078C59.2109 24.7109 59.2656 24.4609 59.375 24.2578C59.5 24.0547 59.6797 23.9531 59.9141 23.9531C60.2578 23.9531 60.5 24.1562 60.6406 24.5625C60.7969 24.9531 60.8906 25.4844 60.9219 26.1562C61.0312 26.1875 61.1328 26.2109 61.2266 26.2266C61.3359 26.2422 61.4609 26.25 61.6016 26.25C62.0078 26.25 62.3828 26.2266 62.7266 26.1797C63.0859 26.1328 63.4297 26.1094 63.7578 26.1094ZM60.1719 25.5469C60.1719 25.6094 60.2031 25.6719 60.2656 25.7344C60.25 25.6562 60.2344 25.5781 60.2188 25.5C60.2188 25.4219 60.2109 25.3594 60.1953 25.3125C60.1797 25.25 60.1719 25.1953 60.1719 25.1484C60.125 25.1484 60.0859 25.1719 60.0547 25.2188C60.0234 25.2656 60.0625 25.375 60.1719 25.5469ZM78.2891 27.8906C78.1484 27.8906 78.0156 27.8125 77.8906 27.6562C77.7812 27.4844 77.6328 27.3047 77.4453 27.1172C77.2578 26.9297 77.0156 26.7578 76.7188 26.6016C76.4375 26.4297 76.0625 26.3438 75.5938 26.3438C74.9375 26.3438 74.3281 26.5156 73.7656 26.8594C73.2031 27.1875 72.7188 27.6094 72.3125 28.125C71.9062 28.625 71.5859 29.1797 71.3516 29.7891C71.1328 30.3828 71.0234 30.9453 71.0234 31.4766C71.0234 32.3047 71.2344 32.9844 71.6562 33.5156C72.0781 34.0469 72.6406 34.3125 73.3438 34.3125C73.8906 34.3125 74.3672 34.2109 74.7734 34.0078C75.1953 33.7891 75.5469 33.5078 75.8281 33.1641C75.7344 32.7422 75.6875 32.2188 75.6875 31.5938C75.6875 30.9219 75.7344 30.375 75.8281 29.9531C75.9375 29.5312 76.0625 29.2031 76.2031 28.9688C76.3594 28.7344 76.5156 28.5781 76.6719 28.5C76.8281 28.4062 76.9609 28.3594 77.0703 28.3594C77.1953 28.3594 77.3359 28.4453 77.4922 28.6172C77.6641 28.7891 77.75 29.0938 77.75 29.5312C77.75 30.0781 77.6484 30.6562 77.4453 31.2656C77.2578 31.8594 76.9922 32.4297 76.6484 32.9766C76.8359 33.4609 77.125 33.8125 77.5156 34.0312C77.9062 34.25 78.3516 34.3594 78.8516 34.3594C79.2891 34.3594 79.6953 34.2656 80.0703 34.0781C80.4609 33.875 80.8203 33.6094 81.1484 33.2812C81.4922 32.9531 81.8125 32.5781 82.1094 32.1562C82.4062 31.7188 82.6797 31.2734 82.9297 30.8203L83.0703 30.9141C82.8828 31.5078 82.6328 32.0859 82.3203 32.6484C82.0078 33.2109 81.6484 33.7109 81.2422 34.1484C80.8359 34.5859 80.3906 34.9375 79.9062 35.2031C79.4375 35.4531 78.9453 35.5781 78.4297 35.5781C78.0391 35.5781 77.6094 35.4531 77.1406 35.2031C76.6875 34.9375 76.3125 34.4688 76.0156 33.7969C75.5312 34.375 74.9766 34.8594 74.3516 35.25C73.7266 35.625 73.0547 35.8125 72.3359 35.8125C71.9297 35.8125 71.5625 35.7188 71.2344 35.5312C70.9062 35.3438 70.625 35.0938 70.3906 34.7812C70.1719 34.4688 70 34.1016 69.875 33.6797C69.75 33.2578 69.6875 32.8125 69.6875 32.3438C69.6875 31.5469 69.8594 30.75 70.2031 29.9531C70.5625 29.1562 71.0312 28.4375 71.6094 27.7969C72.2031 27.1562 72.875 26.6406 73.625 26.25C74.3906 25.8438 75.1875 25.6406 76.0156 25.6406C76.625 25.6406 77.1328 25.7109 77.5391 25.8516C77.9609 25.9766 78.2969 26.1328 78.5469 26.3203C78.7969 26.4922 78.9766 26.6719 79.0859 26.8594C79.1953 27.0469 79.25 27.1953 79.25 27.3047C79.25 27.5234 79.1328 27.6797 78.8984 27.7734C78.6797 27.8516 78.4766 27.8906 78.2891 27.8906ZM76.3203 31.0078C76.3203 31.5234 76.3672 31.9688 76.4609 32.3438C76.6953 31.9062 76.8672 31.4609 76.9766 31.0078C77.0859 30.5391 77.1406 30.1406 77.1406 29.8125C77.1406 29.4219 77.0703 29.2266 76.9297 29.2266C76.7891 29.2266 76.6484 29.3984 76.5078 29.7422C76.3828 30.0859 76.3203 30.5078 76.3203 31.0078ZM90.7578 30.9141C90.6484 31.2266 90.4766 31.6484 90.2422 32.1797C90.0078 32.7109 89.6875 33.2344 89.2812 33.75C88.8906 34.25 88.4062 34.6797 87.8281 35.0391C87.2656 35.3984 86.6094 35.5625 85.8594 35.5312C85.1875 35.4844 84.625 35.2891 84.1719 34.9453C83.7188 34.6016 83.3516 34.0781 83.0703 33.375C82.7891 32.6562 82.5859 31.7578 82.4609 30.6797C82.3359 29.5859 82.2734 28.2734 82.2734 26.7422C82.2734 25.2734 82.3125 23.9531 82.3906 22.7812C82.4688 21.5938 82.5703 20.5469 82.6953 19.6406C81.9766 19.6719 81.3516 19.6875 80.8203 19.6875C80.2734 19.6875 79.8906 19.6875 79.6719 19.6875C79.2188 19.6875 78.7734 19.6562 78.3359 19.5938C77.8828 19.5312 77.4609 19.4219 77.0703 19.2656C76.6797 19.1094 76.3203 18.9062 75.9922 18.6562C75.6641 18.3906 75.3906 18.0625 75.1719 17.6719L75.2656 17.4609C75.2812 17.4922 75.3594 17.5703 75.5 17.6953C75.625 17.8047 75.8594 17.9219 76.2031 18.0469C76.5469 18.1719 77.0156 18.2891 77.6094 18.3984C78.2031 18.4922 78.9688 18.5391 79.9062 18.5391H82.8359C83.0859 17.1328 83.3359 16.0859 83.5859 15.3984C83.8516 14.6953 84.0312 14.25 84.125 14.0625C84.25 13.7969 84.4297 13.5703 84.6641 13.3828C84.9141 13.1953 85.125 13.1016 85.2969 13.1016C85.625 13.1016 85.8906 13.4141 86.0938 14.0391C86.2969 14.6641 86.3984 15.6328 86.3984 16.9453C86.3984 17.1797 86.3906 17.4297 86.375 17.6953C86.3594 17.9453 86.3516 18.2031 86.3516 18.4688C87.1016 18.4531 87.8125 18.4375 88.4844 18.4219C89.1719 18.4062 89.7812 18.3906 90.3125 18.375C90.8594 18.3594 91.3125 18.3438 91.6719 18.3281C92.0469 18.3125 92.2891 18.2969 92.3984 18.2812C92.4766 18.2812 92.6094 18.2734 92.7969 18.2578C92.9844 18.2422 93.1094 18.2344 93.1719 18.2344C93.4219 18.2344 93.5469 18.3125 93.5469 18.4688C93.5469 18.6875 93.4766 18.8906 93.3359 19.0781C93.2109 19.25 92.9453 19.3516 92.5391 19.3828C92.4609 19.3984 92.2266 19.4141 91.8359 19.4297C91.4609 19.4297 90.9844 19.4375 90.4062 19.4531C89.8281 19.4688 89.1797 19.4922 88.4609 19.5234C87.7422 19.5391 87.0078 19.5625 86.2578 19.5938C86.1016 20.9219 85.8203 22.375 85.4141 23.9531C85.0078 25.5156 84.4375 27.1953 83.7031 28.9922C83.7656 30.0234 83.8516 30.8828 83.9609 31.5703C84.0859 32.2578 84.25 32.8125 84.4531 33.2344C84.6562 33.6406 84.9062 33.9297 85.2031 34.1016C85.5156 34.2734 85.8828 34.3594 86.3047 34.3594C86.7578 34.3594 87.1797 34.2734 87.5703 34.1016C87.9609 33.9297 88.3125 33.7188 88.625 33.4688C88.9531 33.2031 89.2344 32.9219 89.4688 32.625C89.7188 32.3125 89.9219 32.0234 90.0781 31.7578C90.25 31.4922 90.375 31.2734 90.4531 31.1016C90.5469 30.9297 90.6016 30.8359 90.6172 30.8203L90.7578 30.9141ZM85.3438 19.5938C85.0781 19.5938 84.8203 19.6016 84.5703 19.6172C84.3203 19.6328 84.0625 19.6406 83.7969 19.6406C83.75 20.5312 83.7109 21.4453 83.6797 22.3828C83.6641 23.3203 83.6562 24.2109 83.6562 25.0547V27.7031C84.1094 26.2812 84.4766 24.8984 84.7578 23.5547C85.0547 22.2109 85.25 20.8906 85.3438 19.5938ZM83.8906 18.5391C84.1406 18.5391 84.3906 18.5312 84.6406 18.5156C84.9062 18.4844 85.1719 18.4688 85.4375 18.4688V17.6719C85.4375 16.8906 85.4141 16.2656 85.3672 15.7969C85.3203 15.3281 85.2656 14.9688 85.2031 14.7188C85.1562 14.4531 85.0938 14.2812 85.0156 14.2031C84.9531 14.1094 84.8984 14.0625 84.8516 14.0625C84.7266 14.0625 84.6172 14.1797 84.5234 14.4141C84.4297 14.6484 84.3438 14.9688 84.2656 15.375C84.1875 15.7656 84.1172 16.2344 84.0547 16.7812C83.9922 17.3281 83.9375 17.9141 83.8906 18.5391ZM96.6172 31.1953C96.6172 31.0859 96.6172 30.9531 96.6172 30.7969C96.6328 30.6406 96.6406 30.4844 96.6406 30.3281C96.6406 30.1719 96.6406 30.0391 96.6406 29.9297C96.6562 29.8047 96.6641 29.7188 96.6641 29.6719C96.6641 29.5625 96.6406 29.4922 96.5938 29.4609C96.5625 29.4297 96.5234 29.5156 96.4766 29.7188C96.4453 29.7812 96.3828 29.9609 96.2891 30.2578C96.1953 30.5547 96.0625 30.9141 95.8906 31.3359C95.7188 31.7422 95.5078 32.1875 95.2578 32.6719C95.0234 33.1406 94.7422 33.5781 94.4141 33.9844C94.0859 34.375 93.7188 34.7031 93.3125 34.9688C92.9062 35.2344 92.4609 35.3672 91.9766 35.3672C91.2422 35.3672 90.7188 35.1719 90.4062 34.7812C90.1094 34.375 89.9609 33.7734 89.9609 32.9766C89.9609 32.7422 89.9844 32.4062 90.0312 31.9688C90.0781 31.5156 90.1328 31.0547 90.1953 30.5859C90.2578 30.1016 90.3125 29.6484 90.3594 29.2266C90.4062 28.7891 90.4297 28.4531 90.4297 28.2188C90.4297 27.5469 90.2578 27.2109 89.9141 27.2109C89.8359 27.2109 89.7656 27.2188 89.7031 27.2344C89.6406 27.25 89.5938 27.2578 89.5625 27.2578C89.4375 27.2578 89.375 27.1953 89.375 27.0703C89.375 27.0234 89.4375 26.9453 89.5625 26.8359C89.7031 26.7109 89.9922 26.6484 90.4297 26.6484C90.9297 26.6484 91.2734 26.8359 91.4609 27.2109C91.6641 27.5859 91.7656 28.0234 91.7656 28.5234C91.7656 28.7422 91.7422 29.0547 91.6953 29.4609C91.6641 29.8516 91.625 30.2656 91.5781 30.7031C91.5312 31.1406 91.4844 31.5625 91.4375 31.9688C91.4062 32.3594 91.3906 32.6484 91.3906 32.8359C91.3906 33.4297 91.4844 33.8516 91.6719 34.1016C91.875 34.3359 92.1484 34.4531 92.4922 34.4531C92.8203 34.4531 93.1406 34.3281 93.4531 34.0781C93.7812 33.8125 94.0781 33.5 94.3438 33.1406C94.625 32.7656 94.8672 32.3828 95.0703 31.9922C95.2734 31.6016 95.4375 31.2734 95.5625 31.0078C95.6875 30.6641 95.7969 30.2891 95.8906 29.8828C95.9844 29.4766 96.0703 29.0703 96.1484 28.6641C96.2422 28.2422 96.3203 27.8438 96.3828 27.4688C96.4453 27.0938 96.5078 26.7656 96.5703 26.4844C96.6016 26.3438 96.75 26.25 97.0156 26.2031C97.2812 26.1406 97.5469 26.1094 97.8125 26.1094C97.9531 26.1094 98.0234 26.1562 98.0234 26.25C98.0234 26.6406 98.0156 27.1719 98 27.8438C97.9844 28.5156 97.9766 29.2031 97.9766 29.9062C97.9766 31.6562 98.0781 32.9219 98.2812 33.7031C98.5 34.4688 98.9219 34.8516 99.5469 34.8516C99.6875 34.8516 99.8047 34.8359 99.8984 34.8047C100.008 34.7734 100.102 34.7578 100.18 34.7578C100.242 34.7578 100.273 34.7891 100.273 34.8516C100.273 34.8047 100.273 34.8125 100.273 34.875C100.273 34.9375 100.234 35.0234 100.156 35.1328C100.094 35.2266 99.9609 35.3203 99.7578 35.4141C99.5703 35.4922 99.2812 35.5312 98.8906 35.5312C98.4688 35.5312 98.1172 35.4609 97.8359 35.3203C97.5703 35.1641 97.3516 34.9141 97.1797 34.5703C97.0078 34.2266 96.875 33.7812 96.7812 33.2344C96.7031 32.6719 96.6484 31.9922 96.6172 31.1953ZM110.398 30.9141C110.367 31.0234 110.242 31.3203 110.023 31.8047C109.82 32.2734 109.531 32.7812 109.156 33.3281C108.797 33.8594 108.359 34.3438 107.844 34.7812C107.344 35.2031 106.773 35.4141 106.133 35.4141C105.305 35.4141 104.555 35.1016 103.883 34.4766C103.211 33.8359 102.633 32.9375 102.148 31.7812C101.68 30.6094 101.312 29.1953 101.047 27.5391C100.797 25.8828 100.672 24.0312 100.672 21.9844C100.672 20.8594 100.711 19.6797 100.789 18.4453C100.867 17.1953 100.992 15.9688 101.164 14.7656C101.336 13.5625 101.547 12.4141 101.797 11.3203C102.062 10.2266 102.375 9.26562 102.734 8.4375C103.094 7.60938 103.508 6.95313 103.977 6.46875C104.461 5.96875 104.992 5.71875 105.57 5.71875C106.43 5.71875 107.055 6.24219 107.445 7.28906C107.852 8.33594 108.055 9.95313 108.055 12.1406C108.055 13.4219 107.961 14.8594 107.773 16.4531C107.586 18.0312 107.266 19.6484 106.812 21.3047C106.219 23.3984 105.594 25.1875 104.938 26.6719C104.297 28.1406 103.75 29.3125 103.297 30.1875C103.469 30.7969 103.656 31.3516 103.859 31.8516C104.078 32.3516 104.32 32.7891 104.586 33.1641C104.852 33.5234 105.141 33.8047 105.453 34.0078C105.766 34.2109 106.109 34.3125 106.484 34.3125C106.953 34.3125 107.391 34.1719 107.797 33.8906C108.203 33.6094 108.562 33.2812 108.875 32.9062C109.203 32.5312 109.484 32.1484 109.719 31.7578C109.953 31.3672 110.133 31.0547 110.258 30.8203L110.398 30.9141ZM102.102 20.3438C102.102 21 102.117 21.7109 102.148 22.4766C102.195 23.2266 102.258 23.9922 102.336 24.7734C102.414 25.5547 102.508 26.3359 102.617 27.1172C102.742 27.8984 102.891 28.6484 103.062 29.3672C103.391 28.6797 103.773 27.7969 104.211 26.7188C104.664 25.6406 105.094 24.4297 105.5 23.0859C105.922 21.7266 106.273 20.2578 106.555 18.6797C106.852 17.1016 107 15.4688 107 13.7812C107 12.7188 106.953 11.75 106.859 10.875C106.781 9.98438 106.656 9.22656 106.484 8.60156C106.312 7.96094 106.094 7.46875 105.828 7.125C105.578 6.76563 105.281 6.58594 104.938 6.58594C104.609 6.58594 104.312 6.82031 104.047 7.28906C103.781 7.74219 103.539 8.34375 103.32 9.09375C103.117 9.84375 102.938 10.7031 102.781 11.6719C102.625 12.6406 102.492 13.6328 102.383 14.6484C102.289 15.6641 102.219 16.6719 102.172 17.6719C102.125 18.6562 102.102 19.5469 102.102 20.3438ZM117.711 27.8906C117.57 27.8906 117.438 27.8125 117.312 27.6562C117.203 27.4844 117.055 27.3047 116.867 27.1172C116.68 26.9297 116.438 26.7578 116.141 26.6016C115.859 26.4297 115.484 26.3438 115.016 26.3438C114.359 26.3438 113.75 26.5156 113.188 26.8594C112.625 27.1875 112.141 27.6094 111.734 28.125C111.328 28.625 111.008 29.1797 110.773 29.7891C110.555 30.3828 110.445 30.9453 110.445 31.4766C110.445 32.3047 110.656 32.9844 111.078 33.5156C111.5 34.0469 112.062 34.3125 112.766 34.3125C113.312 34.3125 113.789 34.2109 114.195 34.0078C114.617 33.7891 114.969 33.5078 115.25 33.1641C115.156 32.7422 115.109 32.2188 115.109 31.5938C115.109 30.9219 115.156 30.375 115.25 29.9531C115.359 29.5312 115.484 29.2031 115.625 28.9688C115.781 28.7344 115.938 28.5781 116.094 28.5C116.25 28.4062 116.383 28.3594 116.492 28.3594C116.617 28.3594 116.758 28.4453 116.914 28.6172C117.086 28.7891 117.172 29.0938 117.172 29.5312C117.172 30.0781 117.07 30.6562 116.867 31.2656C116.68 31.8594 116.414 32.4297 116.07 32.9766C116.258 33.4609 116.547 33.8125 116.938 34.0312C117.328 34.25 117.773 34.3594 118.273 34.3594C118.711 34.3594 119.117 34.2656 119.492 34.0781C119.883 33.875 120.242 33.6094 120.57 33.2812C120.914 32.9531 121.234 32.5781 121.531 32.1562C121.828 31.7188 122.102 31.2734 122.352 30.8203L122.492 30.9141C122.305 31.5078 122.055 32.0859 121.742 32.6484C121.43 33.2109 121.07 33.7109 120.664 34.1484C120.258 34.5859 119.812 34.9375 119.328 35.2031C118.859 35.4531 118.367 35.5781 117.852 35.5781C117.461 35.5781 117.031 35.4531 116.562 35.2031C116.109 34.9375 115.734 34.4688 115.438 33.7969C114.953 34.375 114.398 34.8594 113.773 35.25C113.148 35.625 112.477 35.8125 111.758 35.8125C111.352 35.8125 110.984 35.7188 110.656 35.5312C110.328 35.3438 110.047 35.0938 109.812 34.7812C109.594 34.4688 109.422 34.1016 109.297 33.6797C109.172 33.2578 109.109 32.8125 109.109 32.3438C109.109 31.5469 109.281 30.75 109.625 29.9531C109.984 29.1562 110.453 28.4375 111.031 27.7969C111.625 27.1562 112.297 26.6406 113.047 26.25C113.812 25.8438 114.609 25.6406 115.438 25.6406C116.047 25.6406 116.555 25.7109 116.961 25.8516C117.383 25.9766 117.719 26.1328 117.969 26.3203C118.219 26.4922 118.398 26.6719 118.508 26.8594C118.617 27.0469 118.672 27.1953 118.672 27.3047C118.672 27.5234 118.555 27.6797 118.32 27.7734C118.102 27.8516 117.898 27.8906 117.711 27.8906ZM115.742 31.0078C115.742 31.5234 115.789 31.9688 115.883 32.3438C116.117 31.9062 116.289 31.4609 116.398 31.0078C116.508 30.5391 116.562 30.1406 116.562 29.8125C116.562 29.4219 116.492 29.2266 116.352 29.2266C116.211 29.2266 116.07 29.3984 115.93 29.7422C115.805 30.0859 115.742 30.5078 115.742 31.0078ZM130.18 30.9141C130.07 31.2266 129.898 31.6484 129.664 32.1797C129.43 32.7109 129.109 33.2344 128.703 33.75C128.312 34.25 127.828 34.6797 127.25 35.0391C126.688 35.3984 126.031 35.5625 125.281 35.5312C124.609 35.4844 124.047 35.2891 123.594 34.9453C123.141 34.6016 122.773 34.0781 122.492 33.375C122.211 32.6562 122.008 31.7578 121.883 30.6797C121.758 29.5859 121.695 28.2734 121.695 26.7422C121.695 25.2734 121.734 23.9531 121.812 22.7812C121.891 21.5938 121.992 20.5469 122.117 19.6406C121.398 19.6719 120.773 19.6875 120.242 19.6875C119.695 19.6875 119.312 19.6875 119.094 19.6875C118.641 19.6875 118.195 19.6562 117.758 19.5938C117.305 19.5312 116.883 19.4219 116.492 19.2656C116.102 19.1094 115.742 18.9062 115.414 18.6562C115.086 18.3906 114.812 18.0625 114.594 17.6719L114.688 17.4609C114.703 17.4922 114.781 17.5703 114.922 17.6953C115.047 17.8047 115.281 17.9219 115.625 18.0469C115.969 18.1719 116.438 18.2891 117.031 18.3984C117.625 18.4922 118.391 18.5391 119.328 18.5391H122.258C122.508 17.1328 122.758 16.0859 123.008 15.3984C123.273 14.6953 123.453 14.25 123.547 14.0625C123.672 13.7969 123.852 13.5703 124.086 13.3828C124.336 13.1953 124.547 13.1016 124.719 13.1016C125.047 13.1016 125.312 13.4141 125.516 14.0391C125.719 14.6641 125.82 15.6328 125.82 16.9453C125.82 17.1797 125.812 17.4297 125.797 17.6953C125.781 17.9453 125.773 18.2031 125.773 18.4688C126.523 18.4531 127.234 18.4375 127.906 18.4219C128.594 18.4062 129.203 18.3906 129.734 18.375C130.281 18.3594 130.734 18.3438 131.094 18.3281C131.469 18.3125 131.711 18.2969 131.82 18.2812C131.898 18.2812 132.031 18.2734 132.219 18.2578C132.406 18.2422 132.531 18.2344 132.594 18.2344C132.844 18.2344 132.969 18.3125 132.969 18.4688C132.969 18.6875 132.898 18.8906 132.758 19.0781C132.633 19.25 132.367 19.3516 131.961 19.3828C131.883 19.3984 131.648 19.4141 131.258 19.4297C130.883 19.4297 130.406 19.4375 129.828 19.4531C129.25 19.4688 128.602 19.4922 127.883 19.5234C127.164 19.5391 126.43 19.5625 125.68 19.5938C125.523 20.9219 125.242 22.375 124.836 23.9531C124.43 25.5156 123.859 27.1953 123.125 28.9922C123.188 30.0234 123.273 30.8828 123.383 31.5703C123.508 32.2578 123.672 32.8125 123.875 33.2344C124.078 33.6406 124.328 33.9297 124.625 34.1016C124.938 34.2734 125.305 34.3594 125.727 34.3594C126.18 34.3594 126.602 34.2734 126.992 34.1016C127.383 33.9297 127.734 33.7188 128.047 33.4688C128.375 33.2031 128.656 32.9219 128.891 32.625C129.141 32.3125 129.344 32.0234 129.5 31.7578C129.672 31.4922 129.797 31.2734 129.875 31.1016C129.969 30.9297 130.023 30.8359 130.039 30.8203L130.18 30.9141ZM124.766 19.5938C124.5 19.5938 124.242 19.6016 123.992 19.6172C123.742 19.6328 123.484 19.6406 123.219 19.6406C123.172 20.5312 123.133 21.4453 123.102 22.3828C123.086 23.3203 123.078 24.2109 123.078 25.0547V27.7031C123.531 26.2812 123.898 24.8984 124.18 23.5547C124.477 22.2109 124.672 20.8906 124.766 19.5938ZM123.312 18.5391C123.562 18.5391 123.812 18.5312 124.062 18.5156C124.328 18.4844 124.594 18.4688 124.859 18.4688V17.6719C124.859 16.8906 124.836 16.2656 124.789 15.7969C124.742 15.3281 124.688 14.9688 124.625 14.7188C124.578 14.4531 124.516 14.2812 124.438 14.2031C124.375 14.1094 124.32 14.0625 124.273 14.0625C124.148 14.0625 124.039 14.1797 123.945 14.4141C123.852 14.6484 123.766 14.9688 123.688 15.375C123.609 15.7656 123.539 16.2344 123.477 16.7812C123.414 17.3281 123.359 17.9141 123.312 18.5391ZM130.391 26.25C130.516 26.25 130.633 26.2891 130.742 26.3672C130.867 26.4297 130.969 26.5 131.047 26.5781C131.141 26.6562 131.211 26.7422 131.258 26.8359C131.32 26.9141 131.352 26.9609 131.352 26.9766C131.352 26.9922 131.328 27.0781 131.281 27.2344C131.25 27.375 131.203 27.6172 131.141 27.9609C131.094 28.3047 131.047 28.7578 131 29.3203C130.969 29.8672 130.953 30.5547 130.953 31.3828C130.953 32.4922 131.086 33.2656 131.352 33.7031C131.633 34.1406 131.969 34.3594 132.359 34.3594C132.75 34.3594 133.133 34.2422 133.508 34.0078C133.898 33.7734 134.266 33.4688 134.609 33.0938C134.953 32.7188 135.273 32.2969 135.57 31.8281C135.883 31.3438 136.156 30.8594 136.391 30.375L136.531 30.4688C136.469 30.625 136.375 30.8672 136.25 31.1953C136.125 31.5078 135.969 31.8516 135.781 32.2266C135.594 32.6016 135.367 32.9922 135.102 33.3984C134.852 33.7891 134.555 34.1484 134.211 34.4766C133.883 34.7891 133.516 35.0547 133.109 35.2734C132.719 35.4766 132.289 35.5781 131.82 35.5781C131.492 35.5781 131.188 35.5156 130.906 35.3906C130.641 35.2656 130.398 35.0391 130.18 34.7109C129.977 34.3672 129.812 33.8984 129.688 33.3047C129.578 32.7109 129.523 31.9453 129.523 31.0078C129.523 30.5234 129.539 30.0078 129.57 29.4609C129.617 28.8984 129.672 28.3828 129.734 27.9141C129.812 27.4297 129.906 27.0312 130.016 26.7188C130.125 26.4062 130.25 26.25 130.391 26.25ZM130.953 20.4375C131.344 20.4375 131.625 20.5781 131.797 20.8594C131.969 21.125 132.055 21.4531 132.055 21.8438C132.055 22.2969 131.93 22.6484 131.68 22.8984C131.43 23.1484 131.125 23.2734 130.766 23.2734C130.5 23.2734 130.242 23.1719 129.992 22.9688C129.742 22.7656 129.617 22.4375 129.617 21.9844C129.617 21.4844 129.742 21.1016 129.992 20.8359C130.242 20.5703 130.562 20.4375 130.953 20.4375ZM139.695 34.5234C140.07 34.5234 140.438 34.4453 140.797 34.2891C141.156 34.1172 141.477 33.875 141.758 33.5625C142.039 33.2344 142.258 32.8359 142.414 32.3672C142.586 31.8984 142.672 31.3516 142.672 30.7266C142.672 30.2109 142.609 29.7266 142.484 29.2734C142.359 28.8047 142.172 28.3984 141.922 28.0547C141.688 27.7109 141.375 27.4375 140.984 27.2344C140.609 27.0312 140.164 26.9297 139.648 26.9297C139.289 26.9297 138.93 27 138.57 27.1406C138.211 27.2656 137.891 27.4766 137.609 27.7734C137.328 28.0547 137.102 28.4219 136.93 28.875C136.758 29.3125 136.672 29.8438 136.672 30.4688C136.672 30.9688 136.734 31.4609 136.859 31.9453C136.984 32.4141 137.164 32.8438 137.398 33.2344C137.648 33.625 137.961 33.9375 138.336 34.1719C138.727 34.4062 139.18 34.5234 139.695 34.5234ZM138.875 35.7188C137.844 35.7188 137 35.3828 136.344 34.7109C135.688 34.0234 135.359 33.0312 135.359 31.7344C135.359 30.8594 135.523 30.0547 135.852 29.3203C136.18 28.5703 136.602 27.9297 137.117 27.3984C137.648 26.8516 138.234 26.4297 138.875 26.1328C139.516 25.8359 140.141 25.6875 140.75 25.6875C141.734 25.6875 142.523 26.0234 143.117 26.6953C143.711 27.3672 144.008 28.3594 144.008 29.6719C144.008 30.5469 143.852 31.3516 143.539 32.0859C143.242 32.8203 142.844 33.4609 142.344 34.0078C141.859 34.5391 141.312 34.9609 140.703 35.2734C140.094 35.5703 139.484 35.7188 138.875 35.7188ZM147.5 25.5469C147.578 25.5469 147.641 25.6094 147.688 25.7344C147.734 25.8594 147.766 26.0078 147.781 26.1797C147.812 26.3516 147.828 26.5391 147.828 26.7422C147.828 26.9297 147.828 27.1016 147.828 27.2578C147.828 27.6641 147.812 28.0859 147.781 28.5234C147.766 28.9453 147.742 29.3594 147.711 29.7656C147.695 30.1562 147.68 30.5234 147.664 30.8672C147.648 31.1953 147.641 31.4688 147.641 31.6875C147.641 32.0938 147.656 32.4219 147.688 32.6719C147.719 32.9062 147.797 33.0234 147.922 33.0234C148 33.0234 148.102 32.9219 148.227 32.7188C148.352 32.5156 148.484 32.2734 148.625 31.9922C148.781 31.6953 148.93 31.3828 149.07 31.0547C149.211 30.7266 149.344 30.4375 149.469 30.1875C149.625 29.8594 149.797 29.5 149.984 29.1094C150.188 28.7031 150.398 28.3281 150.617 27.9844C150.836 27.625 151.062 27.3281 151.297 27.0938C151.547 26.8594 151.805 26.7422 152.07 26.7422C152.242 26.7422 152.391 26.7891 152.516 26.8828C152.656 26.9766 152.773 27.1016 152.867 27.2578C152.961 27.3984 153.031 27.5547 153.078 27.7266C153.141 27.8828 153.188 28.0312 153.219 28.1719C153.266 28.5312 153.312 29.1016 153.359 29.8828C153.422 30.6484 153.5 31.4688 153.594 32.3438C153.672 33.2188 153.883 33.8594 154.227 34.2656C154.57 34.6562 155.016 34.8516 155.562 34.8516C155.781 34.8516 155.953 34.8359 156.078 34.8047C156.219 34.7734 156.336 34.7578 156.43 34.7578C156.508 34.7578 156.523 34.8359 156.477 34.9922C156.461 35.0234 156.422 35.0703 156.359 35.1328C156.312 35.1797 156.227 35.2344 156.102 35.2969C155.977 35.3594 155.805 35.4141 155.586 35.4609C155.383 35.5078 155.133 35.5312 154.836 35.5312C154.336 35.5312 153.922 35.4531 153.594 35.2969C153.266 35.125 153 34.8594 152.797 34.5C152.594 34.1406 152.445 33.6797 152.352 33.1172C152.258 32.5391 152.195 31.8516 152.164 31.0547C152.133 30.6797 152.102 30.3203 152.07 29.9766C152.055 29.6172 152.016 29.3047 151.953 29.0391C151.906 28.7578 151.836 28.5391 151.742 28.3828C151.648 28.2109 151.516 28.125 151.344 28.125C151.203 28.125 151.031 28.2656 150.828 28.5469C150.641 28.8281 150.453 29.1641 150.266 29.5547C150.078 29.9297 149.898 30.3203 149.727 30.7266C149.57 31.1328 149.438 31.4531 149.328 31.6875C148.984 32.4219 148.695 33.0234 148.461 33.4922C148.242 33.9609 148 34.4141 147.734 34.8516C147.656 34.9766 147.57 35.0781 147.477 35.1562C147.398 35.2344 147.297 35.2734 147.172 35.2734C146.984 35.2734 146.836 35.1172 146.727 34.8047C146.617 34.4922 146.531 34.1328 146.469 33.7266C146.422 33.3203 146.391 32.9141 146.375 32.5078C146.359 32.0859 146.352 31.7656 146.352 31.5469C146.352 31.2969 146.352 30.9922 146.352 30.6328C146.367 30.2734 146.383 29.9219 146.398 29.5781C146.414 29.2344 146.422 28.9219 146.422 28.6406C146.438 28.3594 146.445 28.1719 146.445 28.0781C146.445 27.9844 146.438 27.8594 146.422 27.7031C146.422 27.5312 146.422 27.3672 146.422 27.2109C146.422 27.0391 146.414 26.8906 146.398 26.7656C146.398 26.625 146.398 26.5312 146.398 26.4844C146.398 26.3594 146.43 26.2578 146.492 26.1797C146.57 26.0859 146.648 26.0156 146.727 25.9688C146.805 25.9219 146.93 25.8438 147.102 25.7344C147.273 25.6094 147.406 25.5469 147.5 25.5469ZM156.078 33.1641C156.609 32.3203 157.086 31.4609 157.508 30.5859C157.93 29.6953 158.281 28.8281 158.562 27.9844C158.188 27.4531 157.867 26.9141 157.602 26.3672C157.352 25.8047 157.227 25.2266 157.227 24.6328C157.227 24.0547 157.281 23.5312 157.391 23.0625C157.5 22.5938 157.648 22.1953 157.836 21.8672C158.023 21.5391 158.234 21.2891 158.469 21.1172C158.703 20.9297 158.945 20.8359 159.195 20.8359C159.539 20.8359 159.812 21.0078 160.016 21.3516C160.234 21.6953 160.328 22.1328 160.297 22.6641C160.266 23.2891 160.18 23.9609 160.039 24.6797C159.914 25.3984 159.727 26.1328 159.477 26.8828C159.789 27.2422 160.109 27.6016 160.438 27.9609C160.781 28.3047 161.086 28.6641 161.352 29.0391C161.633 29.4141 161.859 29.8203 162.031 30.2578C162.219 30.6797 162.312 31.1406 162.312 31.6406C162.312 32.3281 162.18 32.9609 161.914 33.5391C161.664 34.1172 161.359 34.6172 161 35.0391C160.641 35.4609 160.266 35.7891 159.875 36.0234C159.484 36.2578 159.148 36.375 158.867 36.375C158.383 36.375 158.008 36.25 157.742 36C157.492 35.75 157.367 35.4766 157.367 35.1797C157.367 34.9453 157.406 34.7109 157.484 34.4766C157.562 34.2422 157.648 34.0312 157.742 33.8438C157.852 33.6406 157.953 33.4766 158.047 33.3516C158.156 33.2266 158.234 33.1641 158.281 33.1641C158.359 33.1641 158.406 33.1953 158.422 33.2578C158.453 33.3047 158.469 33.3516 158.469 33.3984C158.469 33.4766 158.461 33.5859 158.445 33.7266C158.43 33.8672 158.422 33.9844 158.422 34.0781C158.422 34.3438 158.508 34.5625 158.68 34.7344C158.867 34.9062 159.164 34.9922 159.57 34.9922C159.742 34.9922 159.938 34.9531 160.156 34.875C160.375 34.7969 160.586 34.6719 160.789 34.5C160.992 34.3281 161.156 34.1172 161.281 33.8672C161.422 33.6016 161.492 33.2891 161.492 32.9297C161.492 32.6016 161.414 32.2578 161.258 31.8984C161.102 31.5391 160.898 31.1719 160.648 30.7969C160.398 30.4219 160.117 30.0391 159.805 29.6484C159.508 29.2578 159.211 28.8594 158.914 28.4531C158.555 29.3438 158.156 30.2109 157.719 31.0547C157.297 31.8828 156.844 32.6484 156.359 33.3516L156.078 33.1641ZM157.859 23.4141C157.859 24.0078 157.969 24.5391 158.188 25.0078C158.406 25.4609 158.695 25.9062 159.055 26.3438C159.18 25.8594 159.266 25.3984 159.312 24.9609C159.359 24.5078 159.383 24.0781 159.383 23.6719C159.383 22.5781 159.141 22.0312 158.656 22.0312C158.516 22.0312 158.344 22.1406 158.141 22.3594C157.953 22.5625 157.859 22.9141 157.859 23.4141Z" fill="#BB227E"/>
</svg>
