<svg width="98" height="119" viewBox="0 0 98 119" fill="none" xmlns="http://www.w3.org/2000/svg">
<path d="M89.6551 115.777H2.12569C-1.9134 115.777 -5.22782 112.834 -5.86932 108.99C-5.9406 109.429 -6 109.868 -6 110.319C-6 114.804 -2.36483 118.435 2.12569 118.435H89.6551C94.1456 118.435 97.7808 114.804 97.7808 110.319C97.7808 109.868 97.7214 109.429 97.6501 108.99C97.0086 112.834 93.6942 115.777 89.6551 115.777Z" fill="#BFE2ED"/>
<path d="M2.13662 115.776H89.666C93.7051 115.776 97.0195 112.834 97.661 108.99C97.0195 105.146 93.7051 102.203 89.666 102.203H2.13662C-1.90247 102.203 -5.2169 105.146 -5.8584 108.99C-5.2169 112.834 -1.90247 115.776 2.13662 115.776Z" fill="#D4EBF8"/>
<path d="M84.2371 99.5333H7.75581C3.71673 99.5333 0.402306 96.5908 -0.239196 92.7466C-0.310474 93.1856 -0.369873 93.6246 -0.369873 94.0754C-0.369873 98.5603 3.2653 102.191 7.75581 102.191H84.2371C88.7276 102.191 92.3628 98.5603 92.3628 94.0754C92.3628 93.6246 92.3034 93.1856 92.2321 92.7466C91.5906 96.5908 88.2762 99.5333 84.2371 99.5333Z" fill="#ED98B5"/>
<path d="M7.75673 99.5337H84.238C88.2771 99.5337 91.5915 96.5912 92.233 92.747C91.5915 88.9029 88.2771 85.9604 84.238 85.9604H7.75673C3.71764 85.9604 0.403221 88.9029 -0.238281 92.747C0.403221 96.5912 3.71764 99.5337 7.75673 99.5337Z" fill="#FCB3CC"/>
<path d="M78.2028 83.1481H14.219C10.2155 83.1481 6.90107 80.2412 6.23581 76.4326C6.15265 76.8953 6.09326 77.3581 6.09326 77.8327C6.09326 82.3176 9.72844 85.9482 14.219 85.9482H78.2028C82.6934 85.9482 86.3285 82.3176 86.3285 77.8327C86.3285 77.3463 86.2691 76.8835 86.186 76.4326C85.5207 80.2412 82.2063 83.1481 78.2028 83.1481Z" fill="#8779B0"/>
<path d="M14.2195 83.1482H78.2033C82.2068 83.1482 85.5212 80.2413 86.1865 76.4327C85.5212 72.6241 82.2068 69.7173 78.2033 69.7173H14.2195C10.216 69.7173 6.90159 72.6241 6.23633 76.4327C6.90159 80.2413 10.216 83.1482 14.2195 83.1482Z" fill="#A997C2"/>
<path d="M71.9431 67.0717H20.0527C15.7879 67.0717 12.331 63.7851 11.9983 59.6206C11.832 60.2613 11.7251 60.9257 11.7251 61.6139C11.7251 66.0987 15.3603 69.7294 19.8508 69.7294H71.7412C76.2317 69.7294 79.8669 66.0987 79.8669 61.6139C79.8669 61.3884 79.8193 61.1749 79.7956 60.9495C78.9046 64.4614 75.7446 67.0717 71.9431 67.0717Z" fill="#F0DC82"/>
<path d="M20.0512 67.0713H71.9415C75.743 67.0713 78.903 64.461 79.794 60.9491C79.4495 56.7845 75.9925 53.498 71.7277 53.498H19.8373C16.0358 53.498 12.8758 56.1083 11.9849 59.6202C12.3294 63.7847 15.7864 67.0713 20.0393 67.0713H20.0512Z" fill="#F9E792"/>
<path d="M65.4794 50.9949H26.5141C22.2136 50.9949 18.7329 47.6491 18.4359 43.4253C18.2815 44.0541 18.1746 44.6948 18.1746 45.3829C18.1746 49.8678 21.8097 53.4984 26.3002 53.4984H65.2656C69.7561 53.4984 73.3912 49.8678 73.3912 45.3829C73.3912 45.1931 73.3437 45.0151 73.3318 44.8371C72.4528 48.3728 69.2809 51.0068 65.4675 51.0068L65.4794 50.9949Z" fill="#BFE2ED"/>
<path d="M26.5144 50.9947H65.4798C69.2931 50.9947 72.465 48.3608 73.3441 44.8251C73.059 40.6012 69.5783 37.2554 65.2659 37.2554H26.3006C22.4872 37.2554 19.3154 39.8894 18.4363 43.4251C18.7214 47.6489 22.2021 50.9947 26.5144 50.9947Z" fill="#D4EBF8"/>
<path d="M58.6142 34.752H32.5621C28.4993 34.752 25.1611 31.774 24.5552 27.8823C24.4958 28.2976 24.4246 28.701 24.4246 29.1281C24.4246 33.613 28.0597 37.2436 32.5502 37.2436H58.6024C63.0929 37.2436 66.728 33.613 66.728 29.1281C66.728 28.701 66.6686 28.2857 66.5974 27.8823C65.9915 31.774 62.6533 34.752 58.5905 34.752H58.6142Z" fill="#ED98B5"/>
<path d="M32.5613 34.7515H58.6134C62.6763 34.7515 66.0145 31.7735 66.6203 27.8819C66.0145 23.9902 62.6763 21.0122 58.6134 21.0122H32.5613C28.4985 21.0122 25.1603 23.9902 24.5544 27.8819C25.1603 31.7735 28.4985 34.7515 32.5613 34.7515Z" fill="#FCB3CC"/>
<path d="M51.4504 1.77979C52.4008 3.3578 52.9829 5.19682 52.9829 7.17823C52.9829 12.9801 48.2667 17.6904 42.4575 17.6904C40.2835 17.6904 38.2759 17.0379 36.6008 15.9107C38.4422 18.96 41.7566 21.0244 45.5819 21.0244C51.391 21.0244 56.1072 16.3141 56.1072 10.5122C56.1072 6.86974 54.254 3.66628 51.4385 1.77979H51.4504Z" fill="#8779B0"/>
<path d="M52.9829 7.17816C52.9829 5.19674 52.4008 3.35772 51.4504 1.77971C49.7754 0.652561 47.7558 0 45.5937 0C39.7846 0 35.0684 4.71029 35.0684 10.5121C35.0684 12.4936 35.6505 14.3327 36.6008 15.9107C38.2759 17.0378 40.2954 17.6904 42.4575 17.6904C48.2667 17.6904 52.9829 12.98 52.9829 7.17816Z" fill="#A997C2"/>
<path d="M44.0017 8.6614C41.7683 11.1411 38.7984 12.114 37.3728 10.8208C35.9354 9.5394 36.5769 6.47829 38.8103 3.99856C41.0436 1.51883 44.0136 0.545913 45.4391 1.83917C46.8647 3.13243 46.2351 6.18167 44.0017 8.6614Z" fill="#C5B7D9"/>
</svg>
