<svg width="60" height="69" viewBox="0 0 60 69" fill="none" xmlns="http://www.w3.org/2000/svg">
<path d="M30.2293 68.6196C46.468 68.6196 59.632 53.3647 59.632 34.5468C59.632 15.7289 46.468 0.473877 30.2293 0.473877C13.9907 0.473877 0.82666 15.7289 0.82666 34.5468C0.82666 53.3647 13.9907 68.6196 30.2293 68.6196Z" fill="url(#paint0_radial_245_1556)"/>
<path d="M30.4162 35.4428C22.0764 35.4428 10.5762 36.0278 10.5762 36.0278C10.5762 57.5753 23.6171 57.5753 30.4162 57.5753C37.2154 57.5753 50.2563 57.5753 50.2563 36.0278C50.2563 36.0278 38.7561 35.4428 30.4162 35.4428Z" fill="#211206"/>
<path d="M48.0653 35.923C47.9077 38.8954 45.9875 41.3741 43.4225 41.834C40.3965 42.3717 35.9815 42.906 30.4167 42.906C24.8519 42.906 20.4368 42.3683 17.4136 41.834C14.8457 41.3775 12.9257 38.8954 12.771 35.923C16.512 35.7539 24.312 35.4428 30.4167 35.4428C36.5213 35.4428 44.3243 35.7539 48.0653 35.923Z" fill="white"/>
<path d="M40.5711 56.1009C37.0227 57.5753 33.1971 57.5753 30.4191 57.5753C27.6411 57.5753 23.8155 57.5753 20.2642 56.1009C21.2359 51.6575 23.8767 50.5449 26.2812 50.5449C28.4581 50.5449 29.8268 51.2246 30.422 51.6034C31.0173 51.2246 32.3859 50.5449 34.5628 50.5449C36.9673 50.5449 39.6081 51.6575 40.574 56.1009H40.5711Z" fill="#EF2626"/>
<path d="M50.1329 21.8927C50.1329 24.8821 48.9541 27.5501 47.1069 29.3119C46.3307 28.5714 45.4319 27.9931 44.4573 27.6177C43.6402 27.3033 42.7677 27.1342 41.8602 27.1342C40.9527 27.1342 40.0772 27.3033 39.2601 27.6177C38.2826 27.9897 37.3868 28.5714 36.6106 29.3119C34.7605 27.5501 33.5845 24.8821 33.5845 21.8927C33.5845 16.5972 37.2905 12.3026 41.8631 12.3026C46.4358 12.3026 50.1388 16.5972 50.1388 21.8927H50.1329Z" fill="white"/>
<path d="M46.7778 22.5758C46.7778 24.7603 45.7098 26.6642 44.1486 27.6212C43.4278 27.3439 42.6604 27.1951 41.8608 27.1951C41.0613 27.1951 40.2909 27.3439 39.5701 27.6212C38.0089 26.6642 36.9409 24.7637 36.9409 22.5758C36.9409 19.4343 39.147 16.8779 41.8579 16.8779C44.5688 16.8779 46.7778 19.4343 46.7778 22.5758Z" fill="#211206"/>
<path d="M27.2501 21.8927C27.2501 24.8821 26.0712 27.5501 24.2241 29.3119C23.4479 28.5714 22.5491 27.9931 21.5715 27.6177C20.7545 27.3033 19.882 27.1342 18.9745 27.1342C18.0669 27.1342 17.1915 27.3033 16.3744 27.6177C15.3968 27.9897 14.501 28.5714 13.7248 29.3119C11.8747 27.5501 10.6987 24.8821 10.6987 21.8927C10.6987 16.5972 14.4047 12.3026 18.9773 12.3026C23.55 12.3026 27.253 16.5972 27.253 21.8927H27.2501Z" fill="white"/>
<path d="M23.8906 22.5758C23.8906 24.7603 22.8226 26.6642 21.2614 27.6212C20.5406 27.3439 19.7732 27.1951 18.9736 27.1951C18.1741 27.1951 17.4037 27.3439 16.6829 27.6212C15.1217 26.6642 14.0537 24.7637 14.0537 22.5758C14.0537 19.4343 16.2598 16.8779 18.9707 16.8779C21.6816 16.8779 23.8906 19.4343 23.8906 22.5758Z" fill="#211206"/>
<defs>
<radialGradient id="paint0_radial_245_1556" cx="0" cy="0" r="1" gradientUnits="userSpaceOnUse" gradientTransform="translate(35.5986 26.2517) scale(38.5392 44.6606)">
<stop stop-color="#FFEF99"/>
<stop offset="0.52" stop-color="#FFD71B"/>
<stop offset="1" stop-color="#E69900"/>
</radialGradient>
</defs>
</svg>
