<svg width="58" height="68" viewBox="0 0 58 68" fill="none" xmlns="http://www.w3.org/2000/svg">
<path d="M28.7829 67.3672C44.6374 67.3672 57.4901 52.4746 57.4901 34.1037C57.4901 15.7328 44.6374 0.840271 28.7829 0.840271C12.9283 0.840271 0.0756836 15.7328 0.0756836 34.1037C0.0756836 52.4746 12.9283 67.3672 28.7829 67.3672Z" fill="url(#paint0_radial_276_1704)"/>
<path d="M25.2301 21.6282C24.8313 21.6282 24.4352 21.8263 24.1589 22.2092C22.948 23.8928 20.9537 25.9 18.3439 25.9C15.7342 25.9 13.7398 23.8928 12.529 22.2092C12.0361 21.5225 11.1557 21.4301 10.5631 22.0045C9.97053 22.5756 9.89076 23.5957 10.3865 24.2791C12.6714 27.4516 15.4236 29.1286 18.3439 29.1286C21.2642 29.1286 24.0164 27.4516 26.3014 24.2791C26.7943 23.5924 26.7145 22.5756 26.1247 22.0045C25.8626 21.7536 25.5464 21.6282 25.233 21.6282H25.2301Z" fill="#211206"/>
<path d="M46.609 21.6282C46.2102 21.6282 45.8142 21.8263 45.5378 22.2092C44.327 23.8928 42.3355 25.9 39.7229 25.9C37.1103 25.9 35.1188 23.8928 33.9079 22.2092C33.415 21.5225 32.5347 21.4301 31.9421 22.0045C31.3494 22.5756 31.2697 23.5957 31.7626 24.2791C34.0475 27.4516 36.7997 29.1286 39.72 29.1286C42.6403 29.1286 45.3925 27.4516 47.6774 24.2791C48.1703 23.5924 48.0906 22.5756 47.5008 22.0045C47.2387 21.7536 46.9224 21.6282 46.609 21.6282Z" fill="#211206"/>
<path d="M29.0313 40.6868C23.6238 40.6868 18.7091 43.0307 16.5097 46.6555C16.0652 47.385 16.219 48.3952 16.8487 48.9069C17.4783 49.4186 18.3502 49.2437 18.7918 48.5141C20.4613 45.7641 24.5754 43.9187 29.0313 43.9187C33.4872 43.9187 37.607 45.7641 39.2737 48.5141C39.7153 49.2437 40.5871 49.4186 41.2168 48.9069C41.8464 48.3919 41.9974 47.385 41.5558 46.6555C39.3563 43.0307 34.4388 40.6868 29.0313 40.6868Z" fill="#211206"/>
<defs>
<radialGradient id="paint0_radial_276_1704" cx="0" cy="0" r="1" gradientUnits="userSpaceOnUse" gradientTransform="translate(34.0252 26.0057) scale(37.6276 43.5997)">
<stop stop-color="#FFEF99"/>
<stop offset="0.52" stop-color="#FFD71B"/>
<stop offset="1" stop-color="#E69900"/>
</radialGradient>
</defs>
</svg>
