<svg width="67" height="74" viewBox="0 0 67 74" fill="none" xmlns="http://www.w3.org/2000/svg">
<path d="M33.84 73.058C49.6946 73.058 62.5472 58.1655 62.5472 39.7946C62.5472 21.4237 49.6946 6.5311 33.84 6.5311C17.9855 6.5311 5.13281 21.4237 5.13281 39.7946C5.13281 58.1655 17.9855 73.058 33.84 73.058Z" fill="url(#paint0_radial_276_1706)"/>
<path d="M51.0142 7.49149C50.7407 7.41226 50.4843 7.23399 50.2877 6.96329C49.2193 5.48762 47.7976 4.45434 46.1765 3.97896C44.5554 3.50358 42.8801 3.62902 41.3359 4.33879C40.6208 4.66892 39.8088 4.26286 39.5239 3.43424C39.239 2.60563 39.5894 1.66477 40.3046 1.33465C42.3986 0.37068 44.6636 0.202313 46.8603 0.846058C49.054 1.4898 50.98 2.88624 52.4274 4.8868C52.9231 5.57016 52.8462 6.59025 52.2536 7.16467C51.8974 7.5113 51.433 7.61694 51.0142 7.49149Z" fill="#EF2626"/>
<path d="M16.5464 7.49149C16.8199 7.41226 17.0763 7.23399 17.2729 6.96329C18.3413 5.48762 19.763 4.45434 21.3841 3.97896C23.0053 3.50358 24.6805 3.62902 26.2247 4.33879C26.9398 4.66892 27.7518 4.26286 28.0367 3.43424C28.3216 2.60563 27.9712 1.66477 27.2561 1.33465C25.162 0.37068 22.897 0.202313 20.7004 0.846058C18.5066 1.4898 16.5806 2.88624 15.1333 4.8868C14.6375 5.57016 14.7145 6.59025 15.3071 7.16467C15.6632 7.5113 16.1276 7.61694 16.5464 7.49149Z" fill="#EF2626"/>
<path d="M33.9231 39.9926C25.7804 39.9926 14.5522 40.5638 14.5522 40.5638C14.5522 61.5994 27.2848 61.5994 33.9231 61.5994C40.5614 61.5994 53.2939 61.5994 53.2939 40.5638C53.2939 40.5638 42.0657 39.9926 33.9231 39.9926Z" fill="#211206"/>
<path d="M51.0112 40.4614C50.8574 43.3632 48.9827 45.783 46.4784 46.232C43.5239 46.7569 39.2133 47.2785 33.7801 47.2785C28.3469 47.2785 24.0363 46.7536 21.0846 46.232C18.5775 45.7863 16.7028 43.3632 16.5518 40.4614C20.2043 40.2964 27.8198 39.9926 33.7801 39.9926C39.7403 39.9926 47.3587 40.2964 51.0112 40.4614Z" fill="white"/>
<path d="M43.6919 60.1594C40.2274 61.5987 36.4923 61.5987 33.78 61.5987C31.0677 61.5987 27.3325 61.5987 23.8652 60.1594C24.8111 55.8215 27.3924 54.7354 29.74 54.7354C31.8654 54.7354 33.2016 55.399 33.7828 55.7687C34.364 55.399 35.7003 54.7354 37.8257 54.7354C40.1733 54.7354 42.7517 55.8215 43.6947 60.1594H43.6919Z" fill="#EF2626"/>
<path d="M16.0731 27.345C15.7568 27.345 15.4406 27.2228 15.1813 26.9686C14.5887 26.3975 14.5089 25.3774 15.0018 24.6907C17.4292 21.3202 20.3495 19.5375 23.4493 19.5375C26.5491 19.5375 29.4694 21.3202 31.8968 24.6907C32.3897 25.3774 32.3099 26.3942 31.7201 26.9686C31.1275 27.5397 30.25 27.4473 29.7543 26.7639C28.4437 24.9416 26.2841 22.7727 23.4493 22.7727C20.6145 22.7727 18.4549 24.9449 17.1443 26.7639C16.868 27.1469 16.4719 27.345 16.0731 27.345Z" fill="#211206"/>
<path d="M51.4841 27.345C51.0852 27.345 50.6892 27.1469 50.4129 26.7639C49.1023 24.9416 46.9456 22.7727 44.1079 22.7727C41.2702 22.7727 39.1135 24.9449 37.8029 26.7639C37.31 27.4506 36.4297 27.543 35.8371 26.9686C35.2445 26.3975 35.1647 25.3774 35.6604 24.6907C38.0878 21.3202 41.0081 19.5375 44.1079 19.5375C47.2077 19.5375 50.128 21.3202 52.5554 24.6907C53.0483 25.3774 52.9685 26.3942 52.3759 26.9686C52.1166 27.2195 51.7975 27.345 51.4841 27.345Z" fill="#211206"/>
<path d="M8.10173 45.2084C6.44642 47.1264 3.76259 47.1264 2.11013 45.2084C0.454825 43.2903 0.454825 40.1806 2.11013 38.2658C3.76544 36.3478 11.7229 34.0732 11.7229 34.0732C11.7229 34.0732 9.757 43.2936 8.10455 45.2117L8.10173 45.2084Z" fill="url(#paint1_radial_276_1706)"/>
<path d="M59.4566 45.2084C61.1119 47.1264 63.7957 47.1264 65.4482 45.2084C67.1035 43.2903 67.1035 40.1806 65.4482 38.2658C63.7929 36.3478 55.8354 34.0732 55.8354 34.0732C55.8354 34.0732 57.8013 43.2936 59.4538 45.2117L59.4566 45.2084Z" fill="url(#paint2_radial_276_1706)"/>
<defs>
<radialGradient id="paint0_radial_276_1706" cx="0" cy="0" r="1" gradientUnits="userSpaceOnUse" gradientTransform="translate(39.0823 31.6966) scale(37.6276 43.5997)">
<stop stop-color="#FFEF99"/>
<stop offset="0.52" stop-color="#FFD71B"/>
<stop offset="1" stop-color="#E69900"/>
</radialGradient>
<radialGradient id="paint1_radial_276_1706" cx="0" cy="0" r="1" gradientUnits="userSpaceOnUse" gradientTransform="translate(5.76875 40.9721) rotate(49.205) scale(6.12992 9.45985)">
<stop offset="0.31" stop-color="#87FFF5"/>
<stop offset="0.44" stop-color="#6BEEF7"/>
<stop offset="0.7" stop-color="#38D1FB"/>
<stop offset="0.89" stop-color="#18BEFE"/>
<stop offset="1" stop-color="#0DB8FF"/>
</radialGradient>
<radialGradient id="paint2_radial_276_1706" cx="0" cy="0" r="1" gradientUnits="userSpaceOnUse" gradientTransform="translate(61.8322 41.0231) rotate(130.795) scale(6.12992 9.45985)">
<stop offset="0.31" stop-color="#87FFF5"/>
<stop offset="0.44" stop-color="#6BEEF7"/>
<stop offset="0.7" stop-color="#38D1FB"/>
<stop offset="0.89" stop-color="#18BEFE"/>
<stop offset="1" stop-color="#0DB8FF"/>
</radialGradient>
</defs>
</svg>
