<svg width="73" height="82" viewBox="0 0 73 82" fill="none" xmlns="http://www.w3.org/2000/svg">
<path d="M40.9533 81.243C57.1926 81.243 70.3572 65.989 70.3572 47.1722C70.3572 28.3554 57.1926 13.1014 40.9533 13.1014C24.7139 13.1014 11.5493 28.3554 11.5493 47.1722C11.5493 65.989 24.7139 81.243 40.9533 81.243Z" fill="url(#paint0_radial_245_1574)"/>
<path d="M40.9039 64.6469C35.2572 64.6469 30.124 62.2021 27.8274 58.4184C27.3721 57.6711 27.5297 56.6364 28.1746 56.1123C28.8196 55.5882 29.7125 55.7674 30.1649 56.5146C31.9158 59.399 36.2318 61.3365 40.9039 61.3365C45.576 61.3365 49.8949 59.399 51.6459 56.5146C52.0982 55.7674 52.9911 55.5882 53.6361 56.1123C54.281 56.6398 54.4357 57.6711 53.9833 58.4184C51.6867 62.2021 46.5507 64.6469 40.9039 64.6469Z" fill="#211206"/>
<path d="M61.299 40.9726C62.0167 35.151 58.5256 29.7575 53.5014 28.9258C48.4772 28.0942 43.8225 32.1393 43.1047 37.9609C42.387 43.7825 45.8781 49.1761 50.9023 50.0077C55.9265 50.8394 60.5812 46.7942 61.299 40.9726Z" fill="white"/>
<path d="M54.2656 38.5364C53.9241 35.4762 51.2744 35.412 50.2122 36.9877C50.1684 37.052 50.0867 37.052 50.0429 36.9877C48.9807 35.412 46.331 35.4729 45.9895 38.5364C45.6393 41.6811 49.4418 44.5485 50.1276 44.5485C50.8133 44.5485 54.6158 41.6811 54.2656 38.5364Z" fill="#211206"/>
<path d="M38.6209 41.4882C39.5901 35.7157 36.3373 30.1257 31.3555 29.0026C26.3738 27.8795 21.5495 31.6486 20.5802 37.4211C19.6109 43.1935 22.8637 48.7835 27.8455 49.9066C32.8273 51.0297 37.6516 47.2606 38.6209 41.4882Z" fill="white"/>
<path d="M31.6674 38.5364C31.326 35.4762 28.6763 35.412 27.614 36.9877C27.5703 37.052 27.4885 37.052 27.4448 36.9877C26.3825 35.412 23.7328 35.4729 23.3914 38.5364C23.0412 41.6811 26.8436 44.5485 27.5294 44.5485C28.2152 44.5485 32.0176 41.6811 31.6674 38.5364Z" fill="#211206"/>
<path d="M1.02877 31.4959C0.413022 24.395 6.35451 22.6435 9.45658 25.5481C9.58206 25.6664 9.76883 25.6157 9.83886 25.4466C11.5168 21.2503 17.5138 19.7828 19.6674 26.4712C21.8794 33.3456 14.6072 42.1135 13.0693 42.5294C11.5314 42.9453 1.66202 38.7963 1.02877 31.4959Z" fill="#EF2626"/>
<path d="M72.8403 7.94807C73.348 2.07799 68.4396 0.634153 65.8745 3.03493C65.7723 3.13299 65.6148 3.08904 65.5593 2.9504C64.1732 -0.515517 59.218 -1.72943 57.4379 3.79574C55.6082 9.47647 61.6197 16.7228 62.8921 17.0677C64.1644 17.4092 72.3179 13.9805 72.8403 7.94807Z" fill="#EF2626"/>
<defs>
<radialGradient id="paint0_radial_245_1574" cx="0" cy="0" r="1" gradientUnits="userSpaceOnUse" gradientTransform="translate(46.3228 38.8777) scale(38.5409 44.6579)">
<stop stop-color="#FFEF99"/>
<stop offset="0.52" stop-color="#FFD71B"/>
<stop offset="1" stop-color="#E69900"/>
</radialGradient>
</defs>
</svg>
