<svg width="63" height="64" viewBox="0 0 63 64" fill="none" xmlns="http://www.w3.org/2000/svg">
<path d="M31.2521 63.4098C48.5122 63.4098 62.5043 49.4307 62.5043 32.1866C62.5043 14.9425 48.5122 0.963379 31.2521 0.963379C13.9921 0.963379 0 14.9425 0 32.1866C0 49.4307 13.9921 63.4098 31.2521 63.4098Z" fill="url(#paint0_radial_276_1708)"/>
<path d="M11.9101 21.6076C11.5658 21.6076 11.2215 21.4929 10.9392 21.2543C10.2941 20.7182 10.2073 19.7607 10.7438 19.1162C13.3864 15.9523 16.5656 14.279 19.9402 14.279C23.3148 14.279 26.494 15.9523 29.1366 19.1162C29.6731 19.7607 29.5863 20.7151 28.9443 21.2543C28.2991 21.7904 27.3438 21.7036 26.8041 21.0622C25.3774 19.3517 23.0263 17.3158 19.9402 17.3158C16.8541 17.3158 14.503 19.3547 13.0763 21.0622C12.7754 21.4216 12.3443 21.6076 11.9101 21.6076Z" fill="#211206"/>
<path d="M50.4602 21.6076C50.026 21.6076 49.5948 21.4216 49.294 21.0622C47.8672 19.3517 45.5193 17.3158 42.4301 17.3158C39.3408 17.3158 36.9929 19.3547 35.5661 21.0622C35.0296 21.7067 34.0711 21.7935 33.426 21.2543C32.7809 20.7182 32.694 19.7607 33.2337 19.1162C35.8763 15.9523 39.0555 14.279 42.4301 14.279C45.8047 14.279 48.9838 15.9523 51.6264 19.1162C52.163 19.7607 52.0762 20.7151 51.431 21.2543C51.1488 21.4898 50.8014 21.6076 50.4602 21.6076Z" fill="#211206"/>
<path d="M31.3422 30.6867C22.3598 30.6867 9.96875 31.229 9.96875 31.229C9.96875 51.2409 24.0192 51.2408 31.3422 51.2408C38.6651 51.2408 52.7156 51.2409 52.7156 31.229C52.7156 31.229 40.3276 30.6867 31.3422 30.6867Z" fill="#211206"/>
<path d="M50.1968 31.1329C50.0294 33.8908 47.9606 36.1963 45.1939 36.6208C41.9341 37.1197 37.1762 37.6187 31.1838 37.6187C25.1914 37.6187 20.4335 37.1197 17.1768 36.6208C14.4101 36.1963 12.3444 33.8908 12.1738 31.1329C16.206 30.9749 24.6083 30.6867 31.1838 30.6867C37.7593 30.6867 46.1647 30.9749 50.1968 31.1329Z" fill="white"/>
<path d="M49.5298 44.0579C44.989 51.2439 36.3882 51.2439 31.1836 51.2439C25.9791 51.2439 17.3782 51.2439 12.8374 44.0579V44.0517C13.4112 41.9817 15.2505 40.5129 17.3968 40.4106C17.4992 40.4044 17.6046 40.4013 17.7101 40.3951C20.4705 40.2743 24.8253 40.1503 31.1805 40.1503C37.5358 40.1503 42.2223 40.2836 44.9642 40.4106C47.1136 40.5098 48.956 41.9817 49.5267 44.0548L49.5298 44.0579Z" fill="white"/>
<defs>
<radialGradient id="paint0_radial_276_1708" cx="0" cy="0" r="1" gradientUnits="userSpaceOnUse" gradientTransform="translate(36.9592 24.5853) scale(40.9634 40.9255)">
<stop stop-color="#FFEF99"/>
<stop offset="0.52" stop-color="#FFD71B"/>
<stop offset="1" stop-color="#E69900"/>
</radialGradient>
</defs>
</svg>
