<svg width="61" height="62" viewBox="0 0 61 62" fill="none" xmlns="http://www.w3.org/2000/svg">
<path d="M30.4043 61.4335C47.1962 61.4335 60.8087 47.8337 60.8087 31.0574C60.8087 14.2811 47.1962 0.681152 30.4043 0.681152C13.6125 0.681152 0 14.2811 0 31.0574C0 47.8337 13.6125 61.4335 30.4043 61.4335Z" fill="url(#paint0_radial_276_1709)"/>
<path d="M11.5569 17.3583C11.2219 17.3583 10.887 17.4698 10.6124 17.7019C9.98475 18.2235 9.90026 19.155 10.4223 19.7821C12.9932 22.8601 16.0861 24.4881 19.3692 24.4881C22.6522 24.4881 25.7451 22.8601 28.316 19.7821C28.8381 19.155 28.7536 18.2265 28.129 17.7019C27.5013 17.1804 26.572 17.2648 26.0469 17.8889C24.6589 19.553 22.3716 21.5336 19.3692 21.5336C16.3668 21.5336 14.0795 19.55 12.6915 17.8889C12.3988 17.5392 11.9793 17.3583 11.5569 17.3583Z" fill="#211206"/>
<path d="M49.0609 17.3585C48.6385 17.3585 48.219 17.5394 47.9263 17.8891C46.5383 19.5532 44.2541 21.5338 41.2486 21.5338C38.2432 21.5338 35.9589 19.5502 34.5709 17.8891C34.0489 17.262 33.1165 17.1776 32.4888 17.7022C31.8612 18.2237 31.7767 19.1552 32.3017 19.7823C34.8726 22.8603 37.9656 24.4883 41.2486 24.4883C44.5317 24.4883 47.6246 22.8603 50.1955 19.7823C50.7175 19.1552 50.633 18.2267 50.0054 17.7022C49.7308 17.4731 49.3928 17.3585 49.0609 17.3585Z" fill="#211206"/>
<path d="M24.743 46.7912C24.5439 46.7912 24.3447 46.752 24.1516 46.6676C23.4033 46.342 23.0623 45.4708 23.3882 44.7231C25.0538 40.9185 29.8517 37.7018 35.6121 36.5291C41.3755 35.3564 47.0514 36.4417 50.075 39.2906C50.6694 39.8513 50.6935 40.7829 50.1353 41.3768C49.574 41.9707 48.6386 41.9978 48.0472 41.4371C45.7388 39.2604 40.9802 38.4495 36.2035 39.4202C31.4298 40.391 27.3683 42.9987 26.0979 45.9049C25.8565 46.4596 25.3133 46.7912 24.743 46.7912Z" fill="#211206"/>
<defs>
<radialGradient id="paint0_radial_276_1709" cx="0" cy="0" r="1" gradientUnits="userSpaceOnUse" gradientTransform="translate(35.9565 23.6623) scale(39.8521 39.8152)">
<stop stop-color="#FFCF99"/>
<stop offset="0.52" stop-color="#FF8E1B"/>
<stop offset="1" stop-color="#E64100"/>
</radialGradient>
</defs>
</svg>
