<svg width="63" height="63" viewBox="0 0 63 63" fill="none" xmlns="http://www.w3.org/2000/svg">
<path d="M31.2521 62.4464C48.5122 62.4464 62.5043 48.4673 62.5043 31.2232C62.5043 13.9791 48.5122 0 31.2521 0C13.9921 0 0 13.9791 0 31.2232C0 48.4673 13.9921 62.4464 31.2521 62.4464Z" fill="url(#paint0_radial_277_1712)"/>
<path d="M15.2692 26.3615C14.7512 26.3615 14.2487 26.0981 13.9634 25.6209C13.5323 24.902 13.7711 23.9693 14.4907 23.5416L23.1908 18.3574L16.0477 14.2794C15.3188 13.8642 15.0676 12.9376 15.4832 12.2094C15.8988 11.4812 16.8262 11.2302 17.5551 11.6454L26.9562 17.0125C27.4245 17.279 27.7161 17.7748 27.7223 18.314C27.7285 18.8532 27.4462 19.3552 26.981 19.631L16.0477 26.1477C15.8027 26.2933 15.5359 26.3615 15.2723 26.3615H15.2692Z" fill="#211206"/>
<path d="M47.7777 26.3615C47.514 26.3615 47.2442 26.2933 47.0022 26.1477L36.069 19.631C35.6037 19.3552 35.3246 18.8532 35.3277 18.314C35.3339 17.7748 35.6223 17.279 36.0938 17.0125L45.4949 11.6454C46.2237 11.2302 47.1511 11.4812 47.5667 12.2094C47.9823 12.9376 47.7311 13.8642 47.0022 14.2794L39.8592 18.3574L48.5593 23.5416C49.2789 23.9724 49.5146 24.902 49.0865 25.6209C48.8012 26.0981 48.2987 26.3615 47.7808 26.3615H47.7777Z" fill="#211206"/>
<path d="M31.6764 31.6975C22.8119 31.6975 10.5884 32.2336 10.5884 32.2336C10.5884 51.979 24.4496 51.979 31.6764 51.979C38.9033 51.979 52.7645 51.979 52.7645 32.2336C52.7645 32.2336 40.5409 31.6975 31.6764 31.6975Z" fill="#211206"/>
<path d="M50.2804 32.1375C50.113 34.8613 48.0721 37.1327 45.3458 37.5542C42.1294 38.0469 37.4366 38.5365 31.5217 38.5365C25.6069 38.5365 20.9141 38.0438 17.7008 37.5542C14.9714 37.1358 12.9305 34.8613 12.7661 32.1375C16.7424 31.9826 25.0331 31.6975 31.5217 31.6975C38.0104 31.6975 46.3041 31.9826 50.2804 32.1375Z" fill="white"/>
<path d="M42.3158 50.6279C38.5442 51.979 34.4779 51.979 31.5252 51.979C28.5724 51.979 24.5061 51.979 20.7314 50.6279C21.7643 46.5561 24.5713 45.5367 27.127 45.5367C29.4409 45.5367 30.8955 46.1595 31.5283 46.5066C32.161 46.1595 33.6157 45.5367 35.9295 45.5367C38.4852 45.5367 41.2923 46.5561 42.3189 50.6279H42.3158Z" fill="#EF2626"/>
<defs>
<radialGradient id="paint0_radial_277_1712" cx="0" cy="0" r="1" gradientUnits="userSpaceOnUse" gradientTransform="translate(36.9592 23.6219) scale(40.9634 40.9255)">
<stop stop-color="#FFEF99"/>
<stop offset="0.52" stop-color="#FFD71B"/>
<stop offset="1" stop-color="#E69900"/>
</radialGradient>
</defs>
</svg>
