<svg width="64" height="76" viewBox="0 0 64 76" fill="none" xmlns="http://www.w3.org/2000/svg">
<path d="M33.7404 69.4117C50.2651 69.4117 63.661 53.8897 63.661 34.7423C63.661 15.5949 50.2651 0.0728455 33.7404 0.0728455C17.2157 0.0728455 3.81982 15.5949 3.81982 34.7423C3.81982 53.8897 17.2157 69.4117 33.7404 69.4117Z" fill="url(#paint0_radial_277_1714)"/>
<path d="M30.4949 26.987C30.0791 26.987 29.6664 26.7805 29.3783 26.3814C28.1163 24.6266 26.0377 22.5346 23.3176 22.5346C20.5976 22.5346 18.5189 24.6266 17.2569 26.3814C16.7432 27.0971 15.8256 27.1934 15.2079 26.5947C14.5903 25.9995 14.5071 24.9363 15.0208 24.2206C17.4024 20.914 20.2709 19.166 23.3147 19.166C26.3584 19.166 29.2269 20.914 31.6084 24.2206C32.1222 24.9363 32.039 25.996 31.4243 26.5947C31.1511 26.8562 30.8215 26.987 30.4949 26.987Z" fill="#211206"/>
<path d="M52.051 26.987C51.6352 26.987 51.2225 26.7805 50.9344 26.3814C49.6724 24.6266 47.5967 22.5346 44.8737 22.5346C42.1507 22.5346 40.075 24.6266 38.813 26.3814C38.2993 27.0971 37.3817 27.1934 36.764 26.5947C36.1464 25.9995 36.0632 24.9363 36.5799 24.2206C38.9615 20.914 41.83 19.166 44.8737 19.166C47.9175 19.166 50.786 20.914 53.1675 24.2206C53.6812 24.9363 53.5981 25.996 52.9804 26.5947C52.7072 26.8562 52.3776 26.987 52.051 26.987Z" fill="#211206"/>
<path d="M34.0938 48.4064C28.4577 48.4064 23.3353 45.9634 21.0429 42.1854C20.5796 41.425 20.74 40.3721 21.3962 39.8388C22.0525 39.3055 22.9612 39.4878 23.4214 40.2483C25.1616 43.1144 29.4495 45.0378 34.0938 45.0378C38.7381 45.0378 43.032 43.1144 44.7691 40.2483C45.2294 39.4878 46.138 39.3055 46.7943 39.8388C47.4505 40.3756 47.6079 41.425 47.1477 42.1854C44.8552 45.9634 39.7299 48.4064 34.0938 48.4064Z" fill="#211206"/>
<path d="M2.64969 45.3158C4.49672 45.0578 6.42095 48.8496 7.68001 51.9704L9.80913 48.0444L15.4571 37.6326C16.2114 36.2425 17.7941 35.8261 18.9908 36.6967C20.1905 37.5706 20.5498 39.4046 19.7985 40.7912L22.0405 36.6554C22.7947 35.2653 24.3775 34.849 25.5742 35.7195C26.7738 36.5935 27.1331 38.4274 26.3789 39.814L25.1287 42.1159C25.883 40.7258 27.4657 40.3095 28.6624 41.18C29.8621 42.054 30.2214 43.8879 29.4672 45.2746L27.7627 48.416C28.5169 47.0259 30.0997 46.6096 31.2964 47.4801C32.496 48.3541 32.8554 50.188 32.1011 51.5746L27.1628 60.679L22.7918 68.7408L22.2513 69.7386C19.2373 75.2955 12.9063 76.9677 8.11356 73.4753C5.24207 71.3833 3.57321 67.9115 3.34456 64.2712C3.34456 64.2712 2.28741 54.0279 0.885815 51.1342C-0.515785 48.244 -0.465311 45.7425 2.64078 45.309L2.64969 45.3158Z" fill="url(#paint1_linear_277_1714)"/>
<g style="mix-blend-mode:multiply">
<path d="M28.1132 40.8805C28.9179 41.8371 29.0842 43.3476 28.4428 44.5278L21.5803 57.1796L21.417 60.1421L29.4791 45.2813C30.2334 43.8912 29.8711 42.0573 28.6715 41.1833C28.4933 41.0526 28.3062 40.9528 28.1162 40.8771L28.1132 40.8805Z" fill="#D3B589"/>
</g>
<g style="mix-blend-mode:multiply">
<path d="M7.61723 73.0868C7.78055 73.2244 7.94982 73.3552 8.12205 73.4825C12.9178 76.9749 19.2458 75.3026 22.2598 69.7457L32.1126 51.5852C32.8668 50.1952 32.5045 48.3612 31.3049 47.4872C31.1267 47.3565 30.9396 47.2567 30.7496 47.181C31.5543 48.1376 31.7236 49.6481 31.0792 50.8317L21.2264 68.9922C18.3222 74.3495 12.3357 76.094 7.61426 73.0868H7.61723Z" fill="#D3B589"/>
</g>
<g style="mix-blend-mode:multiply">
<path d="M25.0221 35.417C25.8268 36.3736 25.9961 37.8841 25.3517 39.0677L17.239 54.0248L17.0728 56.9839L26.3851 39.8178C27.1393 38.4277 26.7771 36.5938 25.5774 35.7198C25.3992 35.5891 25.2121 35.4893 25.0221 35.4136V35.417Z" fill="#D3B589"/>
</g>
<g style="mix-blend-mode:multiply">
<path d="M18.4348 36.3936C19.2396 37.3502 19.4059 38.8573 18.7645 40.0375L12.8938 50.8588L12.7305 53.8213L19.7979 40.791C20.5521 39.4009 20.1869 37.5704 18.9902 36.6964C18.812 36.5657 18.6249 36.4659 18.4348 36.3902V36.3936Z" fill="#D3B589"/>
</g>
<defs>
<radialGradient id="paint0_radial_277_1714" cx="0" cy="0" r="1" gradientUnits="userSpaceOnUse" gradientTransform="translate(39.2043 26.302) scale(0.148475 0.17204)">
<stop stop-color="#FFEF99"/>
<stop offset="0.52" stop-color="#FFD71B"/>
<stop offset="1" stop-color="#E69900"/>
</radialGradient>
<linearGradient id="paint1_linear_277_1714" x1="23.1273" y1="35.107" x2="0.51107" y2="69.2665" gradientUnits="userSpaceOnUse">
<stop stop-color="#FFF1AA"/>
<stop offset="0.38" stop-color="#FCD38D"/>
<stop offset="0.76" stop-color="#F9BD77"/>
<stop offset="1" stop-color="#F9B570"/>
</linearGradient>
</defs>
</svg>
