<svg width="61" height="70" viewBox="0 0 61 70" fill="none" xmlns="http://www.w3.org/2000/svg">
<path d="M30.0969 69.4117C46.6215 69.4117 60.0175 53.8897 60.0175 34.7423C60.0175 15.5949 46.6215 0.0728455 30.0969 0.0728455C13.5722 0.0728455 0.17627 15.5949 0.17627 34.7423C0.17627 53.8897 13.5722 69.4117 30.0969 69.4117Z" fill="url(#paint0_radial_277_1715)"/>
<path d="M30.0497 48.6637C25.2778 48.6637 20.9275 46.582 18.9735 43.3615C18.5103 42.601 18.6706 41.5516 19.3269 41.0148C19.9832 40.4781 20.8918 40.6639 21.3521 41.4243C22.7596 43.7399 26.2547 45.2986 30.0527 45.2986C33.8507 45.2986 37.3487 43.7434 38.7533 41.4243C39.2136 40.6639 40.1222 40.4815 40.7785 41.0148C41.4348 41.5516 41.5921 42.601 41.1319 43.3615C39.175 46.582 34.8276 48.6637 30.0527 48.6637H30.0497Z" fill="#211206"/>
<path d="M12.1604 40.3144C14.2905 39.2815 15.2946 36.4432 14.4031 33.975C13.5117 31.5069 11.0622 30.3434 8.93208 31.3764C6.80198 32.4093 5.79788 35.2476 6.68936 37.7157C7.58084 40.1839 10.0303 41.3474 12.1604 40.3144Z" fill="#EF2626"/>
<path d="M53.7296 36.3454C53.9565 33.6827 52.2776 31.311 49.9797 31.0481C47.6817 30.7851 45.6349 32.7305 45.408 35.3931C45.181 38.0558 46.8599 40.4275 49.1579 40.6904C51.4558 40.9534 53.5027 39.008 53.7296 36.3454Z" fill="#EF2626"/>
<path d="M22.67 24.6366C23.996 22.2515 23.4023 19.0725 21.3439 17.536C19.2856 15.9995 16.542 16.6874 15.2159 19.0725C13.8899 21.4576 14.4836 24.6367 16.542 26.1731C18.6003 27.7096 21.344 27.0217 22.67 24.6366Z" fill="#211206"/>
<path d="M44.9195 24.5496C46.2131 22.1407 45.5764 18.9728 43.4974 17.474C41.4185 15.9752 38.6845 16.7129 37.391 19.1219C36.0974 21.5308 36.7342 24.6986 38.8131 26.1975C40.8921 27.6963 43.626 26.9585 44.9195 24.5496Z" fill="#211206"/>
<defs>
<radialGradient id="paint0_radial_277_1715" cx="0" cy="0" r="1" gradientUnits="userSpaceOnUse" gradientTransform="translate(-89.1549 26.302) scale(0.148475 0.17204)">
<stop stop-color="#FFEF99"/>
<stop offset="0.52" stop-color="#FFD71B"/>
<stop offset="1" stop-color="#E69900"/>
</radialGradient>
</defs>
</svg>
