<svg width="59" height="80" viewBox="0 0 59 80" fill="none" xmlns="http://www.w3.org/2000/svg">
<path d="M29.404 74.2427C45.6433 74.2427 58.8079 58.9887 58.8079 40.1719C58.8079 21.3551 45.6433 6.10107 29.404 6.10107C13.1646 6.10107 0 21.3551 0 40.1719C0 58.9887 13.1646 74.2427 29.404 74.2427Z" fill="url(#paint0_radial_277_1717)"/>
<path d="M41.7922 40.3371C46.83 39.6245 50.4154 34.3147 49.8004 28.4773C49.1854 22.64 44.6029 18.4855 39.5651 19.1981C34.5273 19.9107 30.9419 25.2205 31.5569 31.0579C32.1719 36.8953 36.7544 41.0497 41.7922 40.3371Z" fill="white"/>
<path d="M39.6345 37.3519C42.492 37.3519 44.8084 34.6678 44.8084 31.3568C44.8084 28.0457 42.492 25.3616 39.6345 25.3616C36.7769 25.3616 34.4604 28.0457 34.4604 31.3568C34.4604 34.6678 36.7769 37.3519 39.6345 37.3519Z" fill="#211206"/>
<path d="M27.0636 32.134C28.188 26.3994 25.0875 20.6944 20.1384 19.3916C15.1893 18.0887 10.2658 21.6813 9.14138 27.4159C8.01698 33.1505 11.1175 38.8554 16.0666 40.1583C21.0156 41.4612 25.9392 37.8685 27.0636 32.134Z" fill="white"/>
<path d="M19.1755 37.3519C22.033 37.3519 24.3495 34.6678 24.3495 31.3568C24.3495 28.0457 22.033 25.3616 19.1755 25.3616C16.3179 25.3616 14.0015 28.0457 14.0015 31.3568C14.0015 34.6678 16.3179 37.3519 19.1755 37.3519Z" fill="#211206"/>
<path d="M51.0424 10.0849C50.5171 10.0849 50.0122 9.75015 49.7613 9.16855C49.0025 7.40347 47.7973 5.9799 46.2798 5.06017C44.7624 4.13705 43.0698 3.79892 41.3831 4.07958C40.6039 4.20807 39.8773 3.58251 39.7664 2.6763C39.6555 1.77009 40.1954 0.93151 40.9774 0.803017C43.2595 0.424303 45.5532 0.880783 47.6076 2.12851C49.6621 3.37624 51.2904 5.30026 52.3176 7.69428C52.6707 8.51257 52.3818 9.5067 51.6756 9.91246C51.4714 10.0308 51.2525 10.0883 51.0395 10.0883L51.0424 10.0849Z" fill="#EF2626"/>
<path d="M7.76842 10.0847C7.55539 10.0847 7.33653 10.0272 7.13225 9.90884C6.42604 9.49969 6.14006 8.50556 6.49024 7.69065C7.52037 5.29663 9.14874 3.37262 11.2002 2.12489C13.2547 0.877158 15.5455 0.417296 17.8304 0.799392C18.6125 0.927884 19.1524 1.76646 19.0415 2.67267C18.9306 3.57888 18.2069 4.20783 17.4248 4.07595C15.741 3.7953 14.0455 4.13683 12.528 5.05656C11.0106 5.97968 9.80534 7.39985 9.0466 9.16493C8.79563 9.74653 8.29078 10.0813 7.7655 10.0813L7.76842 10.0847Z" fill="#EF2626"/>
<path d="M29.4032 44.0911C25.5453 44.0911 22.4141 47.716 22.4141 52.1895V71.7677C22.4141 76.2379 25.5424 79.8661 29.4032 79.8661C33.2611 79.8661 36.3923 76.2413 36.3923 71.7677V52.1895C36.3923 47.7193 33.264 44.0911 29.4032 44.0911Z" fill="#211206"/>
<path d="M36.2533 73.3872C35.6054 77.083 32.7864 79.8625 29.4042 79.8625C26.022 79.8625 23.203 77.0797 22.5552 73.3872C23.203 69.6913 26.022 66.9084 29.4042 66.9084C31.3332 66.9084 33.0812 67.8147 34.3448 69.2788C35.2961 70.3811 35.9731 71.7979 36.2504 73.3872H36.2533Z" fill="#EF2626"/>
<defs>
<radialGradient id="paint0_radial_277_1717" cx="0" cy="0" r="1" gradientUnits="userSpaceOnUse" gradientTransform="translate(34.7735 31.8773) scale(38.5409 44.6579)">
<stop stop-color="#FFEF99"/>
<stop offset="0.52" stop-color="#FFD71B"/>
<stop offset="1" stop-color="#E69900"/>
</radialGradient>
</defs>
</svg>
