<svg width="60" height="69" viewBox="0 0 60 69" fill="none" xmlns="http://www.w3.org/2000/svg">
<path d="M30.1344 68.3202C46.416 68.3202 59.6149 53.0265 59.6149 34.1607C59.6149 15.2949 46.416 0.00109863 30.1344 0.00109863C13.8527 0.00109863 0.653809 15.2949 0.653809 34.1607C0.653809 53.0265 13.8527 68.3202 30.1344 68.3202Z" fill="url(#paint0_radial_278_1725)"/>
<path d="M22.7785 18.1081C22.4333 17.7081 22.2723 17.1148 22.4011 16.5249C22.5942 15.6367 23.3754 15.0977 24.1419 15.3214L33.408 18.0336L31.3658 9.35807C31.158 8.47323 31.6086 7.56127 32.3723 7.32056C33.1359 7.07986 33.9229 7.60193 34.1307 8.48337L36.8166 19.8982C36.9512 20.4677 36.8137 21.0779 36.4567 21.4983C36.0998 21.9187 35.576 22.0882 35.0845 21.9458L23.4397 18.5353C23.1793 18.4607 22.9541 18.3048 22.7785 18.1013V18.1081Z" fill="#211206"/>
<path d="M44.4619 43.2329C44.2863 43.0295 44.1518 42.7684 44.0874 42.4667L41.144 28.9738C41.0182 28.4008 41.1674 27.7974 41.5302 27.3838C41.893 26.9702 42.4197 26.8108 42.9112 26.9668L52.7654 30.079C53.529 30.3197 53.9796 31.2317 53.7689 32.1165C53.5612 33.0013 52.7741 33.5234 52.0105 33.2827L44.5233 30.9163L46.8669 41.6531C47.06 42.5413 46.5948 43.4431 45.8283 43.6702C45.3221 43.8194 44.8071 43.6329 44.4619 43.2329Z" fill="#211206"/>
<path d="M29.8006 34.6009C23.8085 27.6578 15.1832 18.5009 15.1832 18.5009C1.82096 33.9839 11.1953 44.8427 16.0785 50.5009C20.9617 56.1591 30.336 67.0213 43.6953 51.5383C43.6953 51.5383 35.7926 41.544 29.8006 34.6009Z" fill="#211206"/>
<path d="M42.1828 49.6403C40.2283 51.6439 37.3083 51.8269 35.1813 50.02C32.6738 47.8841 29.1687 44.5956 25.172 39.9613C21.1783 35.3337 18.3344 31.2688 16.4941 28.3634C14.9346 25.8988 15.0926 22.5154 16.8218 20.2507C19.6159 23.2443 25.412 29.5127 29.8007 34.598C34.1894 39.6833 39.6022 46.4026 42.1857 49.6403H42.1828Z" fill="white"/>
<path d="M33.1094 59.1224C25.2828 61.1735 19.5453 54.5253 16.0753 50.5012C12.6053 46.4804 6.86772 39.8322 8.63492 30.7634H8.64077C10.405 29.6006 12.6111 29.8854 14.1121 31.4686C14.1823 31.5432 14.2554 31.6212 14.3315 31.6991C16.2538 33.74 19.241 37.0082 23.4805 41.9206C27.8839 47.0228 30.757 50.5588 32.5008 52.776C33.8672 54.5151 34.1159 57.0747 33.1094 59.1224Z" fill="white"/>
<defs>
<radialGradient id="paint0_radial_278_1725" cx="0" cy="0" r="1" gradientUnits="userSpaceOnUse" gradientTransform="translate(35.5179 -426.044) scale(0.146291 0.16951)">
<stop stop-color="#FFEF99"/>
<stop offset="0.52" stop-color="#FFD71B"/>
<stop offset="1" stop-color="#E69900"/>
</radialGradient>
</defs>
</svg>
