<svg width="61" height="63" viewBox="0 0 61 63" fill="none" xmlns="http://www.w3.org/2000/svg">
<path d="M30.1997 62.6333C46.8785 62.6333 60.3993 49.125 60.3993 32.4616C60.3993 15.7982 46.8785 2.28988 30.1997 2.28988C13.5209 2.28988 0 15.7982 0 32.4616C0 49.125 13.5209 62.6333 30.1997 62.6333Z" fill="url(#paint0_radial_275_1683)"/>
<path d="M42.4557 6.60756L34.672 5.67928C33.7759 5.57148 33.1464 6.53868 33.608 7.31423L37.6062 14.0517C37.789 14.3601 37.8071 14.7374 37.6572 15.0638L34.3693 22.1755C33.9917 22.993 34.7169 23.8913 35.5951 23.6937L43.2439 21.9749C43.5946 21.897 43.9603 21.9958 44.221 22.2384L49.9726 27.5595C50.635 28.1703 51.711 27.7601 51.7949 26.8618L52.5232 19.0643C52.5562 18.708 52.763 18.3906 53.0747 18.2169L59.9173 14.396C60.7056 13.9558 60.6456 12.806 59.8184 12.4496L52.6192 9.34743C52.2895 9.2067 52.0527 8.91025 51.9838 8.5599L50.4612 0.876247C50.2874 -0.00710533 49.1724 -0.306547 48.5759 0.37019L43.3998 6.25122C43.163 6.52072 42.8094 6.65546 42.4527 6.61353L42.4557 6.60756Z" fill="#EF2626"/>
<path d="M18.3251 6.60756L26.1088 5.67928C27.005 5.57148 27.6344 6.53868 27.1728 7.31423L23.1745 14.0517C22.9917 14.3601 22.9738 14.7374 23.1236 15.0638L26.4115 22.1755C26.7892 22.993 26.0638 23.8913 25.1856 23.6937L17.5368 21.9749C17.1862 21.897 16.8205 21.9958 16.5597 22.2384L10.8082 27.5595C10.1458 28.1703 9.06976 27.7601 8.98584 26.8618L8.25754 19.0643C8.22457 18.708 8.01774 18.3906 7.70603 18.2169L0.863503 14.396C0.0752429 13.9558 0.135137 12.806 0.962361 12.4496L8.16161 9.34743C8.4913 9.2067 8.72811 8.91025 8.79705 8.5599L10.3196 0.876247C10.4935 -0.00710533 11.6084 -0.306547 12.2048 0.37019L17.381 6.25122C17.6177 6.52072 17.9715 6.65546 18.3281 6.61353L18.3251 6.60756Z" fill="#EF2626"/>
<path d="M30.541 31.7575C21.975 31.7575 10.1631 32.2755 10.1631 32.2755C10.1631 51.3559 23.5575 51.3559 30.541 51.3559C37.5244 51.3559 50.9188 51.3559 50.9188 32.2755C50.9188 32.2755 39.1069 31.7575 30.541 31.7575Z" fill="#211206"/>
<path d="M48.519 32.1827C48.3572 34.8147 46.385 37.0096 43.7505 37.4169C40.6424 37.893 36.1077 38.3661 30.392 38.3661C24.6764 38.3661 20.1417 37.89 17.0366 37.4169C14.399 37.0126 12.4269 34.8147 12.2681 32.1827C16.1105 32.0329 24.1219 31.7575 30.392 31.7575C36.6622 31.7575 44.6766 32.0329 48.519 32.1827Z" fill="white"/>
<path d="M40.8212 50.0503C37.1767 51.3558 33.2474 51.3558 30.3941 51.3558C27.5408 51.3558 23.6114 51.3558 19.9639 50.0503C20.9619 46.1156 23.6743 45.1305 26.144 45.1305C28.3799 45.1305 29.7857 45.7323 30.3971 46.0677C31.0085 45.7323 32.4142 45.1305 34.6501 45.1305C37.1198 45.1305 39.8322 46.1156 40.8242 50.0503H40.8212Z" fill="#EF2626"/>
<defs>
<radialGradient id="paint0_radial_275_1683" cx="0" cy="0" r="1" gradientUnits="userSpaceOnUse" gradientTransform="translate(35.7145 25.1163) scale(39.5839 39.5472)">
<stop stop-color="#FFEF99"/>
<stop offset="0.52" stop-color="#FFD71B"/>
<stop offset="1" stop-color="#E69900"/>
</radialGradient>
</defs>
</svg>
