<svg width="61" height="70" viewBox="0 0 61 70" fill="none" xmlns="http://www.w3.org/2000/svg">
<path d="M30.611 69.4117C47.1357 69.4117 60.5316 53.8897 60.5316 34.7423C60.5316 15.5949 47.1357 0.0728455 30.611 0.0728455C14.0863 0.0728455 0.69043 15.5949 0.69043 34.7423C0.69043 53.8897 14.0863 69.4117 30.611 69.4117Z" fill="url(#paint0_radial_277_1713)"/>
<path d="M30.9141 51.7468C25.278 51.7468 20.1556 49.3038 17.8632 45.5259C17.3999 44.7654 17.5603 43.7126 18.2166 43.1792C18.8728 42.6459 19.7815 42.8283 20.2417 43.5887C21.9819 46.4549 26.2698 48.3783 30.9141 48.3783C35.5584 48.3783 39.8523 46.4549 41.5894 43.5887C42.0527 42.8283 42.9583 42.6459 43.6146 43.1792C44.2709 43.716 44.4283 44.7654 43.968 45.5259C41.6755 49.3038 36.5502 51.7468 30.9141 51.7468Z" fill="#211206"/>
<path d="M42.1657 34.6355C37.6402 34.6355 33.958 30.3689 33.958 25.1251C33.958 19.8814 37.6402 15.6148 42.1657 15.6148C46.6912 15.6148 50.3733 19.8814 50.3733 25.1251C50.3733 30.3689 46.6912 34.6355 42.1657 34.6355Z" fill="#211206"/>
<path d="M49.0753 23.5044C47.2817 23.5044 45.8297 21.8219 45.8297 19.7437C45.8297 21.8219 44.3776 23.5044 42.584 23.5044C44.3776 23.5044 45.8297 25.187 45.8297 27.2652C45.8297 25.187 47.2817 23.5044 49.0753 23.5044Z" fill="white"/>
<path d="M43.8403 20.2225C42.9138 20.2225 42.1655 19.352 42.1655 18.2819C42.1655 19.3554 41.4142 20.2225 40.4907 20.2225C41.4172 20.2225 42.1655 21.093 42.1655 22.1631C42.1655 21.0896 42.9168 20.2225 43.8403 20.2225Z" fill="white"/>
<path d="M20.4391 34.4757C24.9082 33.5971 27.9164 28.6868 27.1581 23.5084C26.3998 18.33 22.1622 14.8444 17.6931 15.7231C13.224 16.6017 10.2158 21.5119 10.9741 26.6903C11.7324 31.8687 15.97 35.3544 20.4391 34.4757Z" fill="#211206"/>
<path d="M25.9664 23.5044C24.1728 23.5044 22.7207 21.8219 22.7207 19.7437C22.7207 21.8219 21.2687 23.5044 19.4751 23.5044C21.2687 23.5044 22.7207 25.187 22.7207 27.2652C22.7207 25.187 24.1728 23.5044 25.9664 23.5044Z" fill="white"/>
<path d="M20.7319 20.2225C19.8054 20.2225 19.0571 19.352 19.0571 18.2819C19.0571 19.3554 18.3058 20.2225 17.3823 20.2225C18.3088 20.2225 19.0571 21.093 19.0571 22.1631C19.0571 21.0896 19.8084 20.2225 20.7319 20.2225Z" fill="white"/>
<defs>
<radialGradient id="paint0_radial_277_1713" cx="0" cy="0" r="1" gradientUnits="userSpaceOnUse" gradientTransform="translate(36.0749 26.302) scale(39.2181 45.4426)">
<stop stop-color="#FFEF99"/>
<stop offset="0.52" stop-color="#FFD71B"/>
<stop offset="1" stop-color="#E69900"/>
</radialGradient>
</defs>
</svg>
