<svg width="40" height="40" viewBox="0 0 40 40" fill="none" xmlns="http://www.w3.org/2000/svg">
<path d="M20 40C31.0457 40 40 31.0457 40 20C40 8.9543 31.0457 0 20 0C8.95431 0 0 8.9543 0 20C0 31.0457 8.95431 40 20 40Z" fill="url(#paint0_radial_245_1567)"/>
<path d="M21.6636 13.7812C21.6636 17.0127 24.2856 19.6348 27.5171 19.6348C30.7485 19.6348 33.3706 17.0127 33.3706 13.7812C33.3706 12.3303 32.8406 11.0024 31.9693 9.97815L29.8891 10.6371L23.7676 12.5724L21.6894 13.2314C21.6735 13.4101 21.6636 13.5947 21.6636 13.7812Z" fill="#211206"/>
<path d="M24.5635 14.5276C24.5635 16.06 25.81 17.3065 27.3424 17.3065C28.8747 17.3065 30.1213 16.06 30.1213 14.5276C30.1213 13.6245 29.6866 12.8186 29.0157 12.3085L24.6945 13.6741C24.6092 13.9421 24.5615 14.2299 24.5615 14.5276H24.5635Z" fill="white"/>
<path d="M19.9702 25.8038C23.16 25.8038 26.0679 27.0047 27.374 28.8626C27.6836 29.3013 27.5764 29.9067 27.1378 30.2163C26.6991 30.5259 26.0917 30.4188 25.784 29.9801C24.8432 28.6442 22.5069 27.7451 19.9682 27.7451C17.4295 27.7451 15.0913 28.6423 14.1524 29.9801C13.8428 30.4188 13.2374 30.524 12.7987 30.2163C12.3601 29.9067 12.2549 29.3013 12.5625 28.8626C13.8706 27.0047 16.7765 25.8038 19.9682 25.8038H19.9702Z" fill="#211206"/>
<path d="M18.2417 13.7812C18.2417 17.0127 15.6196 19.6348 12.3882 19.6348C9.15674 19.6348 6.53467 17.0127 6.53467 13.7812C6.53467 12.3303 7.06464 11.0024 7.93602 9.97815L10.0162 10.6371L16.1377 12.5724L18.2159 13.2314C18.2318 13.4101 18.2417 13.5947 18.2417 13.7812Z" fill="#211206"/>
<path d="M15.3395 14.5276C15.3395 16.06 14.093 17.3065 12.5606 17.3065C11.0283 17.3065 9.78174 16.06 9.78174 14.5276C9.78174 13.6245 10.2164 12.8186 10.8873 12.3085L15.2085 13.6741C15.2939 13.9421 15.3415 14.2299 15.3415 14.5276H15.3395Z" fill="white"/>
<defs>
<radialGradient id="paint0_radial_245_1567" cx="0" cy="0" r="1" gradientUnits="userSpaceOnUse" gradientTransform="translate(23.6522 15.131) scale(26.2148)">
<stop stop-color="#FFCF99"/>
<stop offset="0.52" stop-color="#FF8E1B"/>
<stop offset="1" stop-color="#E64100"/>
</radialGradient>
</defs>
</svg>
