    <svg width="62" height="62" viewBox="0 0 62 62" fill="none" xmlns="http://www.w3.org/2000/svg">
<path d="M30.7025 61.326C47.5633 61.326 61.2316 47.6703 61.2316 30.8251C61.2316 13.9799 47.5633 0.324219 30.7025 0.324219C13.8417 0.324219 0.17334 13.9799 0.17334 30.8251C0.17334 47.6703 13.8417 61.326 30.7025 61.326Z" fill="url(#paint0_radial_275_1692)"/>
<path d="M30.8536 31.2758C22.0791 31.2758 9.97461 31.8056 9.97461 31.8056C9.97461 51.3545 23.7 51.3545 30.8536 51.3545C38.0072 51.3545 51.7325 51.3545 51.7325 31.8056C51.7325 31.8056 39.6312 31.2758 30.8536 31.2758Z" fill="#211206"/>
<path d="M49.2757 31.7117C49.1121 34.4058 47.0912 36.658 44.3885 37.0727C41.2041 37.56 36.5563 38.0474 30.7025 38.0474C24.8488 38.0474 20.2009 37.56 17.0195 37.0727C14.3168 36.658 12.299 34.4058 12.1323 31.7117C16.0712 31.5573 24.2792 31.2758 30.7025 31.2758C37.1259 31.2758 45.3368 31.5573 49.2757 31.7117Z" fill="white"/>
<path d="M48.6248 44.3379C44.1891 51.3577 35.7872 51.3577 30.7031 51.3577C25.6189 51.3577 17.217 51.3577 12.7812 44.3379V44.3319C13.3418 42.3098 15.1385 40.8749 17.2352 40.775C17.3352 40.769 17.4382 40.7659 17.5412 40.7599C20.2378 40.6418 24.4918 40.5208 30.7 40.5208C36.9083 40.5208 41.4864 40.6509 44.1648 40.775C46.2646 40.8719 48.0643 42.3098 48.6218 44.3349L48.6248 44.3379Z" fill="white"/>
<path d="M44.7728 24.6723C46.5394 22.9074 46.5394 20.0458 44.7728 18.2809C43.0062 16.5159 40.142 16.5159 38.3754 18.2809C36.6088 20.0458 36.6089 22.9074 38.3754 24.6723C40.142 26.4373 43.0062 26.4373 44.7728 24.6723Z" fill="#211206"/>
<path d="M34.1627 13.3167C34.5475 12.9323 35.1323 12.7749 35.6837 12.9595C37.3592 13.5195 39.1438 13.5377 40.8436 13.008C42.5434 12.4782 44.0007 11.452 45.0612 10.0384C45.552 9.38454 46.4822 9.25135 47.1367 9.74174C47.7911 10.2321 47.9245 11.1614 47.4336 11.8153C45.9974 13.7284 44.025 15.1209 41.7253 15.8383C39.4256 16.5557 37.0108 16.5315 34.7414 15.7717C33.9657 15.5114 33.5446 14.6729 33.8052 13.8949C33.8809 13.6709 34.0051 13.4741 34.1627 13.3167Z" fill="#211206"/>
<path d="M24.3519 21.4772C24.3519 23.9715 22.3279 25.9966 19.8283 25.9966C17.3286 25.9966 15.3047 23.9745 15.3047 21.4772C15.3047 18.9798 17.3286 16.9577 19.8283 16.9577C22.3279 16.9577 24.3519 18.9798 24.3519 21.4772Z" fill="#211206"/>
<path d="M27.2417 13.3167C26.8569 12.9323 26.2722 12.7749 25.7207 12.9595C24.0452 13.5195 22.2607 13.5377 20.5609 13.008C18.8611 12.4782 17.4037 11.452 16.3432 10.0384C15.8524 9.38454 14.9223 9.25135 14.2678 9.74174C13.6134 10.2321 13.4801 11.1614 13.9709 11.8153C15.4071 13.7284 17.3795 15.1209 19.6792 15.8383C21.9758 16.5557 24.3937 16.5315 26.6631 15.7717C27.4387 15.5114 27.8599 14.6729 27.5993 13.8949C27.5236 13.6709 27.3993 13.4741 27.2417 13.3167Z" fill="#211206"/>
<defs>
<radialGradient id="paint0_radial_275_1692" cx="0" cy="0" r="1" gradientUnits="userSpaceOnUse" gradientTransform="translate(36.2775 23.3997) scale(39.4249 39.3884)">
<stop stop-color="#99DCFF"/>
<stop offset="0.14" stop-color="#7FD6FF"/>
<stop offset="0.41" stop-color="#54CDFF"/>
<stop offset="0.65" stop-color="#34C6FF"/>
<stop offset="0.86" stop-color="#21C2FF"/>
<stop offset="1" stop-color="#1BC1FF"/>
</radialGradient>
</defs>
</svg>
