<svg width="58" height="67" viewBox="0 0 58 67" fill="none" xmlns="http://www.w3.org/2000/svg">
<path d="M29.193 66.8246C45.0476 66.8246 57.9002 51.9321 57.9002 33.5612C57.9002 15.1903 45.0476 0.297729 29.193 0.297729C13.3385 0.297729 0.48584 15.1903 0.48584 33.5612C0.48584 51.9321 13.3385 66.8246 29.193 66.8246Z" fill="url(#paint0_radial_276_1707)"/>
<path d="M19.0447 22.8519C15.9877 22.8519 13.0902 21.3201 10.6685 18.4183C10.1329 17.7779 10.1472 16.7545 10.6999 16.1338C11.2526 15.5132 12.1358 15.5297 12.6714 16.1702C14.5575 18.4249 16.7598 19.62 19.0447 19.62C21.3297 19.62 23.5349 18.4282 25.4181 16.1702C25.9537 15.5297 26.8369 15.5132 27.3897 16.1338C27.9424 16.7545 27.9566 17.7779 27.421 18.4183C24.9993 21.3168 22.1018 22.8519 19.0419 22.8519H19.0447Z" fill="#211206"/>
<path d="M39.7034 22.8519C36.6464 22.8519 33.7489 21.3201 31.3272 18.4183C30.7916 17.7779 30.8058 16.7545 31.3586 16.1338C31.9113 15.5132 32.7945 15.5297 33.3301 16.1702C35.2162 18.4249 37.4185 19.62 39.7034 19.62C41.9884 19.62 44.1936 18.4282 46.0768 16.1702C46.6124 15.5297 47.4956 15.5132 48.0483 16.1338C48.6011 16.7545 48.6153 17.7779 48.0797 18.4183C45.658 21.3168 42.7605 22.8519 39.7006 22.8519H39.7034Z" fill="#211206"/>
<path d="M22.8202 55.5147C22.6321 55.5147 22.4441 55.4717 22.2618 55.3793C21.5552 55.0228 21.2332 54.0687 21.5409 53.25C23.1136 49.0838 27.6437 45.5614 33.0825 44.2772C38.5242 42.993 43.8834 44.1814 46.7381 47.3011C47.2994 47.9152 47.3222 48.9353 46.7951 49.5856C46.2652 50.236 45.3819 50.2657 44.8235 49.6516C42.644 47.2681 38.151 46.3801 33.6409 47.4431C29.1337 48.5061 25.2989 51.3617 24.0994 54.5441C23.8715 55.1515 23.3587 55.5147 22.8202 55.5147Z" fill="#211206"/>
<path d="M32.1562 26.7739C32.4526 32.1417 36.3159 36.9187 41.0226 36.9187C45.7292 36.9187 49.5925 32.1417 49.8888 26.7739H32.1562Z" fill="white"/>
<path d="M39.7034 27.17C39.7034 30.4911 37.6806 33.2576 34.9854 33.9178C33.3672 32.046 32.3073 29.4875 32.1562 26.7739H39.6921C39.6978 26.9059 39.7034 27.0314 39.7034 27.1667V27.17Z" fill="#211206"/>
<path d="M8.85889 26.7739C9.15519 32.1417 13.0186 36.9187 17.7252 36.9187C22.4319 36.9187 26.2952 32.1417 26.5915 26.7739H8.85889Z" fill="white"/>
<path d="M16.4061 27.17C16.4061 30.4911 14.3833 33.2576 11.6881 33.9178C10.0698 32.046 9.00989 29.4875 8.85889 26.7739H16.3947C16.4004 26.9059 16.4061 27.0314 16.4061 27.1667V27.17Z" fill="#211206"/>
<defs>
<radialGradient id="paint0_radial_276_1707" cx="0" cy="0" r="1" gradientUnits="userSpaceOnUse" gradientTransform="translate(34.4325 25.4632) scale(37.0721 42.9559)">
<stop stop-color="#FFEF99"/>
<stop offset="0.52" stop-color="#FFD71B"/>
<stop offset="1" stop-color="#E69900"/>
</radialGradient>
</defs>
</svg>
