<svg width="61" height="62" viewBox="0 0 61 62" fill="none" xmlns="http://www.w3.org/2000/svg">
<path d="M30.4043 61.4457C47.1962 61.4457 60.8087 47.8459 60.8087 31.0696C60.8087 14.2933 47.1962 0.693359 30.4043 0.693359C13.6125 0.693359 0 14.2933 0 31.0696C0 47.8459 13.6125 61.4457 30.4043 61.4457Z" fill="url(#paint0_radial_277_1720)"/>
<path d="M30.6664 31.5609C22.0424 31.5609 10.1504 32.0824 10.1504 32.0824C10.1504 51.2921 23.6356 51.2921 30.6664 51.2921C37.6971 51.2921 51.1823 51.2921 51.1823 32.0824C51.1823 32.0824 39.2904 31.5609 30.6664 31.5609Z" fill="#211206"/>
<path d="M48.9156 31.989C48.7526 34.6389 46.7672 36.8487 44.1148 37.2587C40.9856 37.738 36.4201 38.2143 30.6658 38.2143C24.9114 38.2143 20.3459 37.735 17.2198 37.2587C14.5644 36.8517 12.5789 34.6389 12.4189 31.989C16.2874 31.8382 24.3531 31.5609 30.6658 31.5609C36.9784 31.5609 45.0472 31.8382 48.9156 31.989Z" fill="white"/>
<path d="M41.1678 49.9778C37.4985 51.2922 33.5425 51.2922 30.6699 51.2922C27.7972 51.2922 23.8412 51.2922 20.1689 49.9778C21.1738 46.0165 23.9046 45.0246 26.391 45.0246C28.6421 45.0246 30.0573 45.6306 30.6729 45.9682C31.2884 45.6306 32.7036 45.0246 34.9547 45.0246C37.4411 45.0246 40.172 46.0165 41.1708 49.9778H41.1678Z" fill="#EF2626"/>
<path d="M32.9307 18.3956C32.9307 23.3036 36.9168 27.286 41.8293 27.286C46.7418 27.286 50.7279 23.3036 50.7279 18.3956C50.7279 16.1919 49.9222 14.175 48.5975 12.6194L45.4352 13.6203L36.1292 16.5597L32.9699 17.5605C32.9458 17.8319 32.9307 18.1122 32.9307 18.3956Z" fill="white"/>
<path d="M36.6236 17.9885C36.6236 20.8555 38.9592 23.1889 41.8288 23.1889C44.6985 23.1889 47.034 20.8555 47.034 17.9885C47.034 16.2972 46.2193 14.7899 44.964 13.8372L36.8711 16.3907C36.7112 16.8941 36.6206 17.4308 36.6206 17.9885H36.6236Z" fill="#211206"/>
<path d="M27.7787 18.3956C27.7787 23.3036 23.7926 27.286 18.8801 27.286C13.9676 27.286 9.98145 23.3036 9.98145 18.3956C9.98145 16.1919 10.7871 14.175 12.1118 12.6194L15.2742 13.6203L24.5801 16.5597L27.7395 17.5605C27.7636 17.8319 27.7787 18.1122 27.7787 18.3956Z" fill="white"/>
<path d="M24.0852 17.9885C24.0852 20.8555 21.7496 23.1889 18.88 23.1889C16.0103 23.1889 13.6748 20.8555 13.6748 17.9885C13.6748 16.2972 14.4895 14.7899 15.7448 13.8372L23.8377 16.3907C23.9976 16.8941 24.0882 17.4308 24.0882 17.9885H24.0852Z" fill="#211206"/>
<defs>
<radialGradient id="paint0_radial_277_1720" cx="0" cy="0" r="1" gradientUnits="userSpaceOnUse" gradientTransform="translate(35.9565 23.6745) scale(39.8521 39.8152)">
<stop stop-color="#FFEF99"/>
<stop offset="0.52" stop-color="#FFD71B"/>
<stop offset="1" stop-color="#E69900"/>
</radialGradient>
</defs>
</svg>
