<svg width="40" height="40" viewBox="0 0 40 40" fill="none" xmlns="http://www.w3.org/2000/svg">
<path d="M20 40C31.0457 40 40 31.0457 40 20C40 8.95432 31.0457 0 20 0C8.95431 0 0 8.95432 0 20C0 31.0457 8.95431 40 20 40Z" fill="url(#paint0_radial_245_1557)"/>
<path d="M20.1268 20.526C14.4539 20.526 6.63135 20.8694 6.63135 20.8694C6.63135 33.5173 15.5019 33.5173 20.1268 33.5173C24.7516 33.5173 33.6222 33.5173 33.6222 20.8694C33.6222 20.8694 25.7997 20.526 20.1268 20.526Z" fill="#211206"/>
<path d="M32.132 20.8079C32.0249 22.5526 30.7188 24.0075 28.974 24.2775C26.9157 24.5931 23.9125 24.9067 20.1273 24.9067C16.3421 24.9067 13.3389 24.5911 11.2825 24.2775C9.53577 24.0095 8.22971 22.5526 8.12451 20.8079C10.6692 20.7086 15.9748 20.526 20.1273 20.526C24.2797 20.526 29.5874 20.7086 32.132 20.8079Z" fill="white"/>
<path d="M27.0342 32.6519C24.6205 33.5173 22.0183 33.5173 20.1287 33.5173C18.2391 33.5173 15.6368 33.5173 13.2212 32.6519C13.8822 30.0437 15.6785 29.3906 17.3141 29.3906C18.7948 29.3906 19.7258 29.7896 20.1307 30.0119C20.5356 29.7896 21.4665 29.3906 22.9473 29.3906C24.5828 29.3906 26.3792 30.0437 27.0362 32.6519H27.0342Z" fill="#EF2626"/>
<path d="M33.5392 12.5723C33.5392 14.327 32.7373 15.8931 31.4808 16.9272C30.9528 16.4925 30.3415 16.1531 29.6785 15.9328C29.1227 15.7482 28.5293 15.649 27.912 15.649C27.2946 15.649 26.6991 15.7482 26.1434 15.9328C25.4784 16.1511 24.8691 16.4925 24.3411 16.9272C23.0827 15.8931 22.2827 14.327 22.2827 12.5723C22.2827 9.46395 24.8036 6.94312 27.9139 6.94312C31.0243 6.94312 33.5431 9.46395 33.5431 12.5723H33.5392Z" fill="white"/>
<path d="M31.2566 12.9734C31.2566 14.2556 30.5301 15.3731 29.4682 15.9349C28.9779 15.7721 28.4559 15.6848 27.912 15.6848C27.3682 15.6848 26.8441 15.7721 26.3538 15.9349C25.2919 15.3731 24.5654 14.2576 24.5654 12.9734C24.5654 11.1294 26.066 9.62878 27.91 9.62878C29.754 9.62878 31.2566 11.1294 31.2566 12.9734Z" fill="#211206"/>
<path d="M17.9733 12.5723C17.9733 14.327 17.1714 15.8931 15.9149 16.9272C15.387 16.4925 14.7756 16.1531 14.1106 15.9328C13.5549 15.7482 12.9614 15.649 12.3441 15.649C11.7268 15.649 11.1313 15.7482 10.5755 15.9328C9.91055 16.1511 9.30116 16.4925 8.77318 16.9272C7.51474 15.8931 6.71484 14.327 6.71484 12.5723C6.71484 9.46395 9.23566 6.94312 12.346 6.94312C15.4564 6.94312 17.9753 9.46395 17.9753 12.5723H17.9733Z" fill="white"/>
<path d="M15.6887 12.9734C15.6887 14.2556 14.9622 15.3731 13.9003 15.9349C13.41 15.7721 12.888 15.6848 12.3441 15.6848C11.8003 15.6848 11.2762 15.7721 10.786 15.9349C9.72404 15.3731 8.99756 14.2576 8.99756 12.9734C8.99756 11.1294 10.4982 9.62878 12.3422 9.62878C14.1861 9.62878 15.6887 11.1294 15.6887 12.9734Z" fill="#211206"/>
<defs>
<radialGradient id="paint0_radial_245_1557" cx="0" cy="0" r="1" gradientUnits="userSpaceOnUse" gradientTransform="translate(23.6522 15.131) scale(26.2148)">
<stop stop-color="#FFEF99"/>
<stop offset="0.52" stop-color="#FFD71B"/>
<stop offset="1" stop-color="#E69900"/>
</radialGradient>
</defs>
</svg>
