<svg width="59" height="75" viewBox="0 0 59 75" fill="none" xmlns="http://www.w3.org/2000/svg">
<path d="M29.4805 74.3201C45.7622 74.3201 58.9611 59.0263 58.9611 40.1605C58.9611 21.2947 45.7622 6.00098 29.4805 6.00098C13.1989 6.00098 0 21.2947 0 40.1605C0 59.0263 13.1989 74.3201 29.4805 74.3201Z" fill="url(#paint0_radial_278_1727)"/>
<path d="M51.1753 9.99149C50.6487 9.99149 50.1425 9.65588 49.8909 9.07276C49.1302 7.30308 47.9218 5.87581 46.4004 4.95367C44.8789 4.02815 43.182 3.68913 41.4908 3.97051C40.7096 4.09934 39.9811 3.47219 39.8699 2.56362C39.7588 1.65504 40.3 0.814264 41.0842 0.685437C43.3721 0.305736 45.6718 0.763385 47.7316 2.01436C49.7914 3.26534 51.424 5.19439 52.4539 7.59465C52.8079 8.41507 52.5183 9.41177 51.8102 9.81859C51.6054 9.93724 51.386 9.99488 51.1724 9.99488L51.1753 9.99149Z" fill="#EF2626"/>
<path d="M7.78874 9.99132C7.57516 9.99132 7.35572 9.93368 7.15091 9.81502C6.44287 9.40481 6.15614 8.41151 6.50723 7.59108C7.54005 5.19082 9.17265 3.26182 11.2295 2.01084C13.2893 0.75986 15.586 0.298779 17.877 0.681871C18.6611 0.810698 19.2024 1.65148 19.0912 2.56005C18.98 3.46862 18.2544 4.09916 17.4703 3.96695C15.7821 3.68556 14.0822 4.02798 12.5608 4.95011C11.0393 5.87563 9.83096 7.29952 9.07025 9.0692C8.81863 9.65231 8.31246 9.98793 7.78582 9.98793L7.78874 9.99132Z" fill="#EF2626"/>
<path d="M49.2534 29.783C49.2534 32.7799 48.0714 35.4548 46.2194 37.2211C45.4411 36.4786 44.54 35.8989 43.5627 35.5226C42.7435 35.2073 41.8687 35.0378 40.9588 35.0378C40.0488 35.0378 39.1711 35.2073 38.3519 35.5226C37.3717 35.8955 36.4735 36.4786 35.6952 37.2211C33.8402 35.4548 32.6611 32.7799 32.6611 29.783C32.6611 24.4739 36.3769 20.1684 40.9617 20.1684C45.5464 20.1684 49.2593 24.4739 49.2593 29.783H49.2534Z" fill="white"/>
<path d="M45.8859 30.4648C45.8859 32.6549 44.815 34.5636 43.2497 35.523C42.527 35.245 41.7576 35.0959 40.9559 35.0959C40.1542 35.0959 39.3818 35.245 38.6591 35.523C37.0938 34.5636 36.0229 32.6583 36.0229 30.4648C36.0229 27.3154 38.2349 24.7524 40.953 24.7524C43.671 24.7524 45.8859 27.3154 45.8859 30.4648Z" fill="#211206"/>
<path d="M26.3057 29.783C26.3057 32.7799 25.1237 35.4548 23.2716 37.2211C22.4934 36.4786 21.5922 35.8989 20.615 35.5226C19.7957 35.2073 18.9209 35.0378 18.011 35.0378C17.1011 35.0378 16.2233 35.2073 15.4041 35.5226C14.4239 35.8955 13.5257 36.4786 12.7445 37.2211C10.8896 35.4548 9.71045 32.7799 9.71045 29.783C9.71045 24.4739 13.4262 20.1684 18.011 20.1684C22.5958 20.1684 26.3086 24.4739 26.3086 29.783H26.3057Z" fill="white"/>
<path d="M22.9381 30.4648C22.9381 32.6549 21.8673 34.5636 20.302 35.523C19.5793 35.245 18.8098 35.0959 18.0081 35.0959C17.2065 35.0959 16.434 35.245 15.7114 35.523C14.146 34.5636 13.0752 32.6583 13.0752 30.4648C13.0752 27.3154 15.2871 24.7524 18.0052 24.7524C20.7233 24.7524 22.9381 27.3154 22.9381 30.4648Z" fill="#211206"/>
<path d="M29.4806 58.4304C24.7788 58.4304 20.4925 56.3794 18.5673 53.2028C18.1109 52.4536 18.2689 51.4195 18.9155 50.8907C19.5621 50.3618 20.4574 50.5449 20.9109 51.2941C22.2977 53.5757 25.7414 55.1115 29.4835 55.1115C33.2256 55.1115 36.6723 53.5791 38.0562 51.2941C38.5097 50.5449 39.405 50.3652 40.0516 50.8907C40.6982 51.4195 40.8533 52.4536 40.3997 53.2028C38.4716 56.376 34.1882 58.4304 29.4835 58.4304H29.4806Z" fill="#211206"/>
<path d="M11.8271 50.2263C13.9291 49.2175 14.9273 46.4252 14.0566 43.9896C13.1859 41.554 10.7761 40.3974 8.67413 41.4063C6.57216 42.4151 5.57398 45.2074 6.44464 47.643C7.31531 50.0786 9.72511 51.2352 11.8271 50.2263Z" fill="#EF2626"/>
<path d="M52.7018 47.015C53.263 44.4602 51.9306 41.862 49.7257 41.2117C47.5208 40.5615 45.2785 42.1054 44.7173 44.6602C44.1561 47.215 45.4886 49.8133 47.6934 50.4635C49.8983 51.1138 52.1406 49.5699 52.7018 47.015Z" fill="#EF2626"/>
<defs>
<radialGradient id="paint0_radial_278_1727" cx="0" cy="0" r="1" gradientUnits="userSpaceOnUse" gradientTransform="translate(34.8641 -420.044) scale(38.6413 44.7742)">
<stop stop-color="#FFEF99"/>
<stop offset="0.52" stop-color="#FFD71B"/>
<stop offset="1" stop-color="#E69900"/>
</radialGradient>
</defs>
</svg>
