<svg width="64" height="64" viewBox="0 0 64 64" fill="none" xmlns="http://www.w3.org/2000/svg">
<path d="M31.2521 63.3555C48.5122 63.3555 62.5043 49.3764 62.5043 32.1323C62.5043 14.8882 48.5122 0.909073 31.2521 0.909073C13.9921 0.909073 0 14.8882 0 32.1323C0 49.3764 13.9921 63.3555 31.2521 63.3555Z" fill="url(#paint0_radial_275_1684)"/>
<path d="M31.6551 30.6329C22.6728 30.6329 10.2817 31.1752 10.2817 31.1752C10.2817 51.187 24.3321 51.187 31.6551 51.187C38.9781 51.187 53.0286 51.187 53.0286 31.1752C53.0286 31.1752 40.6406 30.6329 31.6551 30.6329Z" fill="#211206"/>
<path d="M50.5103 31.0791C50.3428 33.837 48.274 36.1425 45.5074 36.567C42.2475 37.0659 37.4896 37.5648 31.4972 37.5648C25.5048 37.5648 20.7469 37.0659 17.4902 36.567C14.7236 36.1425 12.6579 33.837 12.4873 31.0791C16.5194 30.921 24.9217 30.6329 31.4972 30.6329C38.0727 30.6329 46.4781 30.921 50.5103 31.0791Z" fill="white"/>
<path d="M49.8433 44.004C45.3025 51.1901 36.7016 51.1901 31.4971 51.1901C26.2925 51.1901 17.6917 51.1901 13.1509 44.004V43.9978C13.7247 41.9279 15.5639 40.459 17.7103 40.3568C17.8126 40.3506 17.9181 40.3475 18.0235 40.3413C20.784 40.2204 25.1387 40.0965 31.494 40.0965C37.8492 40.0965 42.5359 40.2297 45.2777 40.3568C47.4271 40.4559 49.2695 41.9279 49.8402 44.0009L49.8433 44.004Z" fill="white"/>
<path d="M1.43867 12.0928C0.570207 3.46578 8.93845 1.34002 13.3118 4.86952C13.4886 5.01206 13.7522 4.95008 13.8483 4.74556C16.2118 -0.348818 24.6606 -2.13371 27.694 5.98817C30.8112 14.3363 20.5665 24.9898 18.3984 25.4918C16.2304 25.9969 2.32884 20.9552 1.43867 12.0897V12.0928Z" fill="#EF2626"/>
<path d="M63.1591 12.0928C64.0275 3.46578 55.6593 1.34002 51.286 4.86952C51.1092 5.01206 50.8455 4.95008 50.7494 4.74556C48.3859 -0.348818 39.9371 -2.13371 36.9037 5.98817C33.7866 14.3363 44.0313 24.9898 46.1993 25.4918C48.3674 25.9969 62.2689 20.9552 63.1591 12.0897V12.0928Z" fill="#EF2626"/>
<defs>
<radialGradient id="paint0_radial_275_1684" cx="0" cy="0" r="1" gradientUnits="userSpaceOnUse" gradientTransform="translate(36.9592 24.531) scale(40.9634 40.9255)">
<stop stop-color="#FFEF99"/>
<stop offset="0.52" stop-color="#FFD71B"/>
<stop offset="1" stop-color="#E69900"/>
</radialGradient>
</defs>
</svg>
