<svg width="64" height="69" viewBox="0 0 64 69" fill="none" xmlns="http://www.w3.org/2000/svg">
<path d="M30.0768 68.243C46.3161 68.243 59.4808 52.9891 59.4808 34.1723C59.4808 15.3555 46.3161 0.10144 30.0768 0.10144C13.8374 0.10144 0.672852 15.3555 0.672852 34.1723C0.672852 52.9891 13.8374 68.243 30.0768 68.243Z" fill="url(#paint0_radial_277_1719)"/>
<path d="M41.4321 34.1008C36.9848 34.1008 33.3662 29.9079 33.3662 24.7547C33.3662 19.6014 36.9848 15.4085 41.4321 15.4085C45.8795 15.4085 49.4981 19.6014 49.4981 24.7547C49.4981 29.9079 45.8795 34.1008 41.4321 34.1008Z" fill="#211206"/>
<path d="M48.222 23.1629C46.4594 23.1629 45.0324 21.5094 45.0324 19.467C45.0324 21.5094 43.6054 23.1629 41.8428 23.1629C43.6054 23.1629 45.0324 24.8164 45.0324 26.8588C45.0324 24.8164 46.4594 23.1629 48.222 23.1629Z" fill="white"/>
<path d="M43.0774 19.9366C42.1669 19.9366 41.4315 19.0812 41.4315 18.0295C41.4315 19.0845 40.6932 19.9366 39.7856 19.9366C40.6961 19.9366 41.4315 20.7921 41.4315 21.8437C41.4315 20.7887 42.1698 19.9366 43.0774 19.9366Z" fill="white"/>
<path d="M21.3564 33.6035C25.5641 31.9086 27.7892 26.5821 26.3264 21.7066C24.8636 16.8311 20.2668 14.2528 16.0591 15.9478C11.8514 17.6427 9.62626 22.9692 11.0891 27.8447C12.5519 32.7202 17.1487 35.2985 21.3564 33.6035Z" fill="#211206"/>
<path d="M25.5125 23.1629C23.7499 23.1629 22.3229 21.5094 22.3229 19.467C22.3229 21.5094 20.8959 23.1629 19.1333 23.1629C20.8959 23.1629 22.3229 24.8164 22.3229 26.8588C22.3229 24.8164 23.7499 23.1629 25.5125 23.1629Z" fill="white"/>
<path d="M20.3679 19.9366C19.4574 19.9366 18.7221 19.0812 18.7221 18.0295C18.7221 19.0845 17.9837 19.9366 17.0762 19.9366C17.9867 19.9366 18.7221 20.7921 18.7221 21.8437C18.7221 20.7887 19.4604 19.9366 20.3679 19.9366Z" fill="white"/>
<path d="M28.6287 54.8187C27.8407 54.8187 27.1987 54.0782 27.1987 53.1618C27.1987 52.2455 27.8378 51.505 28.6287 51.505C30.1345 51.505 31.3601 50.0848 31.3601 48.34C31.3601 47.4 31.0012 46.5141 30.3767 45.9088C30.0528 45.5943 29.8631 45.1277 29.8631 44.6374C29.8631 44.1471 30.0498 43.6805 30.3767 43.366C31.0012 42.7607 31.3601 41.8748 31.3601 40.9348C31.3601 39.19 30.1345 37.7698 28.6287 37.7698C27.8407 37.7698 27.1987 37.0293 27.1987 36.1129C27.1987 35.1966 27.8378 34.4561 28.6287 34.4561C31.7103 34.4561 34.217 37.3607 34.217 40.9314C34.217 42.2704 33.861 43.5587 33.2161 44.6306C33.8639 45.7059 34.217 46.9908 34.217 48.3299C34.217 51.9006 31.7103 54.8052 28.6287 54.8052V54.8187Z" fill="#211206"/>
<path d="M63.146 49.7875C63.9631 40.3737 56.0898 38.0541 51.9751 41.9055C51.8087 42.061 51.5607 41.9934 51.4702 41.7702C49.2465 36.2112 41.2973 34.2636 38.4433 43.1262C35.5105 52.2356 45.1494 63.8608 47.1892 64.4086C49.2291 64.9597 62.3085 59.4582 63.146 49.7841V49.7875Z" fill="#EF2626"/>
<defs>
<radialGradient id="paint0_radial_277_1719" cx="0" cy="0" r="1" gradientUnits="userSpaceOnUse" gradientTransform="translate(35.4463 25.8777) scale(38.5409 44.6579)">
<stop stop-color="#FFEF99"/>
<stop offset="0.52" stop-color="#FFD71B"/>
<stop offset="1" stop-color="#E69900"/>
</radialGradient>
</defs>
</svg>
