<svg width="60" height="79" viewBox="0 0 60 79" fill="none" xmlns="http://www.w3.org/2000/svg">
<path d="M30.3072 68.3202C46.5889 68.3202 59.7878 53.0265 59.7878 34.1607C59.7878 15.2949 46.5889 0.00109863 30.3072 0.00109863C14.0256 0.00109863 0.82666 15.2949 0.82666 34.1607C0.82666 53.0265 14.0256 68.3202 30.3072 68.3202Z" fill="url(#paint0_radial_278_1726)"/>
<path d="M13.9697 21.3083C13.3085 21.3083 12.6414 21.254 11.9772 21.1422C11.1931 21.0133 10.6518 20.1726 10.763 19.264C10.8742 18.3554 11.5998 17.7248 12.3839 17.857C14.6982 18.2435 17.0272 17.7757 19.1104 16.5078C21.1965 15.2398 22.8496 13.2871 23.8912 10.8631C24.2423 10.0427 25.1054 9.71043 25.8105 10.1173C26.5185 10.5275 26.8082 11.5208 26.4542 12.3446C25.1405 15.3992 23.0602 17.857 20.4387 19.4504C18.414 20.6811 16.208 21.3117 13.9639 21.3117L13.9697 21.3083Z" fill="#211206"/>
<path d="M46.5545 21.3083C44.3133 21.3083 42.1043 20.6777 40.0826 19.4471C37.4611 17.8537 35.3808 15.3958 34.0671 12.3412C33.7131 11.5208 34.0027 10.5241 34.7108 10.1173C35.4188 9.71043 36.279 10.0427 36.633 10.8631C37.6776 13.2905 39.3307 15.2432 41.4168 16.5078C43.4999 17.7757 45.826 18.2401 48.1432 17.857C48.9273 17.7282 49.6529 18.3554 49.7641 19.264C49.8753 20.1726 49.334 21.0133 48.5499 21.1422C47.8858 21.254 47.2187 21.3083 46.5574 21.3083H46.5545Z" fill="#211206"/>
<path d="M25.2429 27.8682H13.9053C13.1154 27.8682 12.4717 27.1258 12.4717 26.207C12.4717 25.2883 13.1124 24.5458 13.9053 24.5458H25.2429C26.0328 24.5458 26.6765 25.2883 26.6765 26.207C26.6765 27.1258 26.0358 27.8682 25.2429 27.8682Z" fill="#211206"/>
<path d="M46.6154 27.8682H35.2779C34.4879 27.8682 33.8442 27.1258 33.8442 26.207C33.8442 25.2883 34.485 24.5458 35.2779 24.5458H46.6154C47.4054 24.5458 48.0491 25.2883 48.0491 26.207C48.0491 27.1258 47.4083 27.8682 46.6154 27.8682Z" fill="#211206"/>
<path d="M37.3573 54.8227C41.2741 50.2842 41.2741 42.9259 37.3573 38.3874C33.4404 33.8489 27.09 33.8488 23.1731 38.3873C19.2563 42.9259 19.2563 50.2842 23.1731 54.8227C27.09 59.3612 33.4404 59.3612 37.3573 54.8227Z" fill="#211206"/>
<path d="M30.263 47.1412C25.9065 47.1412 22.3721 51.2331 22.3721 56.2845V71.7133C22.3721 73.3948 23.5482 74.761 25.0024 74.761C27.0739 74.761 27.6327 72.5676 27.6327 70.8827V75.2052C27.6327 76.8867 28.8089 78.253 30.263 78.253C31.7142 78.253 32.8933 76.8901 32.8933 75.2052V70.8827C32.8933 72.5642 33.4668 74.761 35.5236 74.761C36.9748 74.761 38.1539 73.3982 38.1539 71.7133V56.2845C38.1539 51.2365 34.6225 47.1412 30.263 47.1412Z" fill="url(#paint1_linear_278_1726)"/>
<defs>
<radialGradient id="paint0_radial_278_1726" cx="0" cy="0" r="1" gradientUnits="userSpaceOnUse" gradientTransform="translate(35.6907 25.8411) scale(38.6413 44.7742)">
<stop stop-color="#FFEF99"/>
<stop offset="0.52" stop-color="#FFD71B"/>
<stop offset="1" stop-color="#E69900"/>
</radialGradient>
<linearGradient id="paint1_linear_278_1726" x1="30.263" y1="78.2563" x2="30.263" y2="47.1412" gradientUnits="userSpaceOnUse">
<stop offset="0.31" stop-color="#87FFF5"/>
<stop offset="0.44" stop-color="#6BEEF7"/>
<stop offset="0.7" stop-color="#38D1FB"/>
<stop offset="0.89" stop-color="#18BEFE"/>
<stop offset="1" stop-color="#0DB8FF"/>
</linearGradient>
</defs>
</svg>
