<svg width="40" height="40" viewBox="0 0 40 40" fill="none" xmlns="http://www.w3.org/2000/svg">
<path d="M22.2379 40C31.2733 40 38.5979 32.4897 38.5979 23.2252C38.5979 13.9608 31.2733 6.45044 22.2379 6.45044C13.2025 6.45044 5.87793 13.9608 5.87793 23.2252C5.87793 32.4897 13.2025 40 22.2379 40Z" fill="url(#paint0_radial_245_1575)"/>
<path d="M22.2106 31.829C19.0688 31.829 16.2128 30.6253 14.935 28.7624C14.6817 28.3945 14.7693 27.885 15.1282 27.627C15.487 27.3689 15.9838 27.4572 16.2355 27.8251C17.2097 29.2452 19.6111 30.1991 22.2106 30.1991C24.8101 30.1991 27.2131 29.2452 28.1873 27.8251C28.4389 27.4572 28.9358 27.3689 29.2946 27.627C29.6534 27.8867 29.7395 28.3945 29.4878 28.7624C28.21 30.6253 25.3524 31.829 22.2106 31.829Z" fill="#211206"/>
<path d="M33.558 20.173C33.9574 17.3067 32.015 14.6512 29.2196 14.2417C26.4242 13.8322 23.8343 15.8239 23.435 18.6902C23.0356 21.5564 24.978 24.2119 27.7734 24.6214C30.5688 25.0309 33.1587 23.0392 33.558 20.173Z" fill="white"/>
<path d="M29.6452 18.9733C29.4552 17.4666 27.9809 17.435 27.3899 18.2108C27.3656 18.2424 27.3201 18.2424 27.2957 18.2108C26.7047 17.435 25.2304 17.4649 25.0405 18.9733C24.8456 20.5215 26.9613 21.9333 27.3428 21.9333C27.7244 21.9333 29.84 20.5215 29.6452 18.9733Z" fill="#211206"/>
<path d="M20.9403 20.4267C21.4796 17.5846 19.6698 14.8324 16.898 14.2795C14.1262 13.7265 11.442 15.5822 10.9027 18.4243C10.3634 21.2664 12.1733 24.0186 14.9451 24.5715C17.7169 25.1245 20.401 23.2688 20.9403 20.4267Z" fill="white"/>
<path d="M17.0714 18.9733C16.8815 17.4666 15.4072 17.435 14.8162 18.2108C14.7918 18.2424 14.7464 18.2424 14.722 18.2108C14.131 17.435 12.6567 17.4649 12.4667 18.9733C12.2719 20.5215 14.3875 21.9333 14.7691 21.9333C15.1507 21.9333 17.2663 20.5215 17.0714 18.9733Z" fill="#211206"/>
<path d="M0.0246982 15.507C-0.317894 12.0109 2.98788 11.1485 4.71382 12.5786C4.78364 12.6369 4.88756 12.6119 4.92652 12.5286C5.86013 10.4626 9.19674 9.74007 10.395 13.0331C11.6257 16.4177 7.57958 20.7346 6.72391 20.9393C5.86825 21.1441 0.377032 19.1014 0.0246982 15.507Z" fill="#EF2626"/>
<path d="M39.9796 3.91324C40.2621 1.0231 37.5312 0.312226 36.104 1.49425C36.0471 1.54253 35.9595 1.52089 35.9286 1.45263C35.1574 -0.253815 32.4004 -0.851488 31.41 1.86884C30.3919 4.66574 33.7367 8.23347 34.4446 8.40328C35.1525 8.57143 39.689 6.88329 39.9796 3.91324Z" fill="#EF2626"/>
<defs>
<radialGradient id="paint0_radial_245_1575" cx="0" cy="0" r="1" gradientUnits="userSpaceOnUse" gradientTransform="translate(25.2254 19.1414) scale(21.4437 21.9874)">
<stop stop-color="#FFEF99"/>
<stop offset="0.52" stop-color="#FFD71B"/>
<stop offset="1" stop-color="#E69900"/>
</radialGradient>
</defs>
</svg>
