<svg width="62" height="69" viewBox="0 0 62 69" fill="none" xmlns="http://www.w3.org/2000/svg">
<path d="M30.5292 68.3264C47.3899 68.3264 61.0583 54.6707 61.0583 37.8255C61.0583 20.9804 47.3899 7.32465 30.5292 7.32465C13.6684 7.32465 0 20.9804 0 37.8255C0 54.6707 13.6684 68.3264 30.5292 68.3264Z" fill="url(#paint0_radial_275_1687)"/>
<path d="M51.604 14.7373C53.0104 9.66371 50.0338 4.41171 44.9556 3.0066C39.8773 1.60148 34.6204 4.57534 33.214 9.6489C31.8076 14.7225 34.7842 19.9745 39.8625 21.3796C44.9407 22.7847 50.1976 19.8108 51.604 14.7373Z" fill="white"/>
<path d="M40.7788 18.0822C43.2804 18.0822 45.3084 16.0561 45.3084 13.5568C45.3084 11.0574 43.2804 9.03125 40.7788 9.03125C38.2771 9.03125 36.249 11.0574 36.249 13.5568C36.249 16.0561 38.2771 18.0822 40.7788 18.0822Z" fill="#211206"/>
<path d="M27.7839 19.4168C29.8004 14.553 27.4885 8.97696 22.6202 6.96231C17.7519 4.94765 12.1707 7.25734 10.1542 12.1211C8.13767 16.9849 10.4495 22.5611 15.3178 24.5757C20.1861 26.5904 25.7673 24.2806 27.7839 19.4168Z" fill="white"/>
<path d="M17.3158 21.6079C19.8175 21.6079 21.8455 19.5818 21.8455 17.0824C21.8455 14.583 19.8175 12.5569 17.3158 12.5569C14.8141 12.5569 12.7861 14.583 12.7861 17.0824C12.7861 19.5818 14.8141 21.6079 17.3158 21.6079Z" fill="#211206"/>
<path d="M42.3113 50.0552H19.0842C18.2662 50.0552 17.5996 49.3922 17.5996 48.5719C17.5996 47.7516 18.2631 47.0886 19.0842 47.0886H42.3113C43.1294 47.0886 43.796 47.7516 43.796 48.5719C43.796 49.3922 43.1324 50.0552 42.3113 50.0552Z" fill="#211206"/>
<defs>
<radialGradient id="paint0_radial_275_1687" cx="0" cy="0" r="1" gradientUnits="userSpaceOnUse" gradientTransform="translate(36.1041 -373.089) scale(40.0157 39.9787)">
<stop stop-color="#FFEF99"/>
<stop offset="0.52" stop-color="#FFD71B"/>
<stop offset="1" stop-color="#E69900"/>
</radialGradient>
</defs>
</svg>
