<svg width="63" height="67" viewBox="0 0 63 67" fill="none" xmlns="http://www.w3.org/2000/svg">
<path d="M31.2521 66.2261C48.5122 66.2261 62.5043 52.247 62.5043 35.0029C62.5043 17.7588 48.5122 3.77971 31.2521 3.77971C13.9921 3.77971 0 17.7588 0 35.0029C0 52.247 13.9921 66.2261 31.2521 66.2261Z" fill="url(#paint0_radial_276_1711)"/>
<path d="M52.2136 27.3264C54.2779 22.3474 51.9113 16.6393 46.9277 14.5769C41.9441 12.5146 36.2307 14.8789 34.1664 19.8579C32.1021 24.8369 34.4687 30.545 39.4523 32.6074C44.4359 34.6698 50.1493 32.3054 52.2136 27.3264Z" fill="white"/>
<path d="M47.3507 22.9939C48.2311 20.0899 46.5884 17.0227 43.6817 16.1431C40.7749 15.2636 37.7049 16.9048 36.8245 19.8088C35.9441 22.7129 37.5868 25.7801 40.4936 26.6596C43.4003 27.5392 46.4704 25.898 47.3507 22.9939Z" fill="#211206"/>
<path d="M22.9091 32.6091C27.8927 30.5468 30.2593 24.8386 28.195 19.8597C26.1308 14.8807 20.4173 12.5163 15.4337 14.5786C10.4502 16.641 8.08358 22.3491 10.1479 27.3281C12.2121 32.3071 17.9255 34.6715 22.9091 32.6091Z" fill="white"/>
<path d="M21.9077 26.5835C24.8145 25.704 26.4572 22.6368 25.5768 19.7327C24.6965 16.8287 21.6264 15.1875 18.7196 16.067C15.8129 16.9466 14.1702 20.0138 15.0506 22.9178C15.9309 25.8219 19.001 27.4631 21.9077 26.5835Z" fill="#211206"/>
<path d="M54.9371 8.63205C54.3788 8.63205 53.8422 8.32526 53.5755 7.79227C52.7691 6.17472 51.4881 4.87013 49.8752 4.02726C48.2624 3.1813 46.4634 2.87143 44.6707 3.12863C43.8394 3.24948 43.0702 2.6731 42.9524 1.84263C42.8345 1.01216 43.4083 0.243673 44.2395 0.125919C46.6681 -0.221143 49.1029 0.197186 51.2865 1.34063C53.47 2.48408 55.2007 4.24729 56.2925 6.44122C56.6678 7.19112 56.3608 8.10216 55.6102 8.47711C55.3931 8.58557 55.1604 8.63823 54.934 8.63823L54.9371 8.63205Z" fill="#EF2626"/>
<path d="M7.42261 8.6321C7.19619 8.6321 6.96355 8.57942 6.74644 8.47096C5.99584 8.09601 5.69189 7.18807 6.06409 6.43506C7.15897 4.24113 8.88969 2.47793 11.0733 1.33448C13.2537 0.191034 15.6916 -0.230393 18.1202 0.119768C18.9514 0.237521 19.5252 1.00603 19.4074 1.8365C19.2895 2.66697 18.5234 3.24333 17.689 3.12248C15.8963 2.86528 14.0973 3.17826 12.4845 4.02113C10.8716 4.86709 9.59066 6.16857 8.78424 7.78612C8.5175 8.31911 7.98091 8.6259 7.42261 8.6259V8.6321Z" fill="#EF2626"/>
<path d="M31.1783 50.6082C24.4508 50.6082 18.3406 48.1075 15.6142 44.234C15.1304 43.5492 15.2979 42.601 15.9833 42.1207C16.6688 41.6404 17.6179 41.8046 18.0986 42.4894C20.2388 45.5324 25.4961 47.5745 31.1783 47.5745C36.8605 47.5745 42.1209 45.5293 44.261 42.4894C44.7449 41.8046 45.6909 41.6404 46.3763 42.1207C47.0618 42.6041 47.2262 43.5492 46.7454 44.234C44.0191 48.1075 37.9088 50.6082 31.1783 50.6082Z" fill="#211206"/>
<defs>
<radialGradient id="paint0_radial_276_1711" cx="0" cy="0" r="1" gradientUnits="userSpaceOnUse" gradientTransform="translate(36.9592 27.4016) scale(40.9634 40.9255)">
<stop stop-color="#FFEF99"/>
<stop offset="0.52" stop-color="#FFD71B"/>
<stop offset="1" stop-color="#E69900"/>
</radialGradient>
</defs>
</svg>
