<svg width="62" height="69" viewBox="0 0 62 69" fill="none" xmlns="http://www.w3.org/2000/svg">
<path d="M31.2806 68.327C48.1414 68.327 61.8098 54.6713 61.8098 37.8261C61.8098 20.981 48.1414 7.32523 31.2806 7.32523C14.4198 7.32523 0.751465 20.981 0.751465 37.8261C0.751465 54.6713 14.4198 68.327 31.2806 68.327Z" fill="url(#paint0_radial_275_1686)"/>
<path d="M31.4508 42.9042C22.7914 42.9042 10.8506 43.4279 10.8506 43.4279C10.8506 62.7165 24.3911 62.7164 31.4508 62.7164C38.5104 62.7164 52.051 62.7165 52.051 43.4279C52.051 43.4279 40.1102 42.9042 31.4508 42.9042Z" fill="#211206"/>
<path d="M49.7744 42.7516C49.6108 45.4124 47.6171 47.6313 44.9538 48.0429C41.8118 48.5242 37.2276 49.0025 31.4496 49.0025C25.6717 49.0025 21.0874 48.5212 17.9485 48.0429C15.2822 47.6343 13.2885 45.4124 13.1279 42.7516C17.0122 42.6002 25.1111 42.3218 31.4496 42.3218C37.7882 42.3218 45.8901 42.6002 49.7744 42.7516Z" fill="white"/>
<path d="M41.9936 62.0634C38.3093 63.3832 34.3372 63.3832 31.4527 63.3832C28.5683 63.3832 24.5961 63.3832 20.9087 62.0634C21.9146 58.0858 24.6597 57.0898 27.1563 57.0898C29.4166 57.0898 30.8377 57.6983 31.4557 58.0373C32.0738 57.6983 33.4948 57.0898 35.7551 57.0898C38.2518 57.0898 40.9938 58.0858 41.9967 62.0634H41.9936Z" fill="#EF2626"/>
<path d="M36.9189 18.4473C36.9189 20.8448 38.8642 22.7881 41.2638 22.7881C43.6635 22.7881 45.6087 20.8448 45.6087 18.4473C45.6087 16.0499 43.6635 14.1065 41.2638 14.1065C38.8642 14.1065 36.9189 16.0499 36.9189 18.4473Z" fill="#211206"/>
<path d="M17.3071 11.6661C17.3071 14.0635 19.2523 16.0069 21.652 16.0069C24.0517 16.0069 25.9969 14.0635 25.9969 11.6661C25.9969 9.2686 24.0517 7.32523 21.652 7.32523C19.2523 7.32523 17.3071 9.2686 17.3071 11.6661Z" fill="#211206"/>
<path d="M59.8761 7.61312H55.0586C53.5043 3.1845 49.2806 0 44.3237 0C39.3668 0 35.1431 3.1845 33.5888 7.61312H29.3228C27.7684 3.1845 23.5447 0 18.5878 0C13.6309 0 9.40728 3.1845 7.85295 7.61312H3.02029C2.51733 7.61312 2.11133 8.01875 2.11133 8.52125C2.11133 9.02374 2.51733 9.42937 3.02029 9.42937H7.38027C7.27119 10.059 7.21065 10.7038 7.21065 11.3637C7.21065 17.6297 12.313 22.7273 18.5849 22.7273C24.8567 22.7273 29.959 17.6297 29.959 11.3637C29.959 10.7038 29.8985 10.059 29.7924 9.42937H33.1162C33.0071 10.059 32.9465 10.7038 32.9465 11.3637C32.9465 17.6297 38.0488 22.7273 44.3207 22.7273C50.5926 22.7273 55.6949 17.6297 55.6949 11.3637C55.6949 10.7038 55.6343 10.059 55.5252 9.42937H59.87C60.373 9.42937 60.779 9.02374 60.779 8.52125C60.779 8.01875 60.373 7.61312 59.87 7.61312H59.8761ZM18.5909 20.9111C13.3219 20.9111 9.03465 16.6278 9.03465 11.3637C9.03465 6.09958 13.3219 1.81625 18.5909 1.81625C23.8598 1.81625 28.1471 6.09958 28.1471 11.3637C28.1471 16.6278 23.8598 20.9111 18.5909 20.9111ZM44.3237 20.9111C39.0548 20.9111 34.7675 16.6278 34.7675 11.3637C34.7675 6.09958 39.0548 1.81625 44.3237 1.81625C49.5927 1.81625 53.88 6.09958 53.88 11.3637C53.88 16.6278 49.5927 20.9111 44.3237 20.9111Z" fill="#211206"/>
<defs>
<radialGradient id="paint0_radial_275_1686" cx="0" cy="0" r="1" gradientUnits="userSpaceOnUse" gradientTransform="translate(36.8556 30.4007) scale(40.0157 39.9787)">
<stop stop-color="#FFEF99"/>
<stop offset="0.52" stop-color="#FFD71B"/>
<stop offset="1" stop-color="#E69900"/>
</radialGradient>
</defs>
</svg>
