<svg width="61" height="75" viewBox="0 0 61 75" fill="none" xmlns="http://www.w3.org/2000/svg">
<path d="M30.2702 69.4117C46.7949 69.4117 60.1908 53.8897 60.1908 34.7423C60.1908 15.5949 46.7949 0.0728455 30.2702 0.0728455C13.7455 0.0728455 0.349609 15.5949 0.349609 34.7423C0.349609 53.8897 13.7455 69.4117 30.2702 69.4117Z" fill="url(#paint0_radial_277_1716)"/>
<path d="M27.4101 25.2494C26.9944 25.2494 26.5816 25.0429 26.2936 24.6438C25.0375 22.8993 22.9707 20.8176 20.2625 20.8176C17.5544 20.8176 15.4876 22.8993 14.2285 24.6438C13.7148 25.3595 12.7972 25.4558 12.1796 24.8571C11.5619 24.2619 11.4788 23.1987 11.9955 22.483C14.3681 19.1867 17.2247 17.4456 20.2596 17.4456C23.2944 17.4456 26.151 19.1867 28.5236 22.483C29.0374 23.1987 28.9542 24.2584 28.3395 24.8571C28.0663 25.1186 27.7367 25.2494 27.4101 25.2494Z" fill="#211206"/>
<path d="M47.434 25.2494C47.0183 25.2494 46.6055 25.0429 46.3175 24.6438C45.0614 22.8993 42.9946 20.8176 40.2835 20.8176C37.5723 20.8176 35.5085 22.8993 34.2524 24.6438C33.7387 25.3595 32.8212 25.4558 32.2035 24.8571C31.5858 24.2619 31.5027 23.1987 32.0194 22.483C34.392 19.1867 37.2487 17.4456 40.2835 17.4456C43.3183 17.4456 46.175 19.1867 48.5476 22.483C49.0613 23.1987 48.9782 24.2584 48.3635 24.8571C48.0903 25.1186 47.7607 25.2494 47.434 25.2494Z" fill="#211206"/>
<path d="M24.8485 12.8622C24.5545 12.8622 24.2546 12.759 23.9992 12.5422C22.7104 11.4653 21.1841 10.8941 19.5836 10.8941C17.983 10.8941 16.4567 11.4653 15.1679 12.5422C14.5176 13.0859 13.609 12.9173 13.1398 12.1638C12.6706 11.4102 12.8161 10.3573 13.4664 9.81369C15.2541 8.31694 17.3683 7.52557 19.5865 7.52557C21.8048 7.52557 23.919 8.31694 25.7067 9.81369C26.357 10.3573 26.5055 11.4102 26.0333 12.1638C25.7482 12.6214 25.3058 12.8622 24.8544 12.8622H24.8485Z" fill="#211206"/>
<path d="M46.2284 12.8622C45.9344 12.8622 45.6345 12.759 45.3791 12.5422C44.0903 11.4653 42.564 10.8941 40.9635 10.8941C39.3629 10.8941 37.8366 11.4653 36.5478 12.5422C35.8975 13.0859 34.9888 12.9173 34.5197 12.1638C34.0505 11.4102 34.196 10.3573 34.8463 9.81369C36.6339 8.31694 38.7482 7.52557 40.9664 7.52557C43.1846 7.52557 45.2989 8.31694 47.0865 9.81369C47.7369 10.3573 47.8853 11.4102 47.4132 12.1638C47.1281 12.6214 46.6857 12.8622 46.2343 12.8622H46.2284Z" fill="#211206"/>
<path d="M30.4221 33.0323C21.5195 33.0323 9.24365 33.655 9.24365 33.655C9.24365 56.6533 23.1646 56.6533 30.4221 56.6533C37.6795 56.6533 51.6005 56.6533 51.6005 33.655C51.6005 33.655 39.3246 33.0323 30.4221 33.0323Z" fill="#211206"/>
<path d="M38.7095 56.2437C38.7095 49.9574 35.9983 48.5604 33.5871 48.5604C31.847 48.5604 30.7513 49.1041 30.2732 49.4068C29.798 49.1041 28.6993 48.5604 26.9592 48.5604C24.548 48.5604 21.8368 49.9574 21.8368 56.2437C21.8368 62.53 20.7916 74.0911 30.2732 74.3216C39.7548 74.0946 38.7095 62.4681 38.7095 56.2437Z" fill="#EF2626"/>
<path d="M49.1119 33.5449C48.9456 36.7173 46.8937 39.3633 44.1558 39.8519C40.925 40.4231 36.2124 40.9977 30.2735 40.9977C24.3345 40.9977 19.6219 40.4265 16.3941 39.8519C13.6532 39.3633 11.6043 36.7139 11.438 33.5449C15.432 33.3626 23.7584 33.0323 30.2735 33.0323C36.7885 33.0323 45.1209 33.366 49.1149 33.5449H49.1119Z" fill="white"/>
<defs>
<radialGradient id="paint0_radial_277_1716" cx="0" cy="0" r="1" gradientUnits="userSpaceOnUse" gradientTransform="translate(35.7341 26.302) scale(39.2181 45.4426)">
<stop stop-color="#FFEF99"/>
<stop offset="0.52" stop-color="#FFD71B"/>
<stop offset="1" stop-color="#E69900"/>
</radialGradient>
</defs>
</svg>
