<svg width="63" height="70" viewBox="0 0 63 70" fill="none" xmlns="http://www.w3.org/2000/svg">
<path d="M31.4043 69.2116C48.7485 69.2116 62.8087 55.1645 62.8087 37.8364C62.8087 20.5083 48.7485 6.46111 31.4043 6.46111C14.0602 6.46111 0 20.5083 0 37.8364C0 55.1645 14.0602 69.2116 31.4043 69.2116Z" fill="url(#paint0_radial_275_1685)"/>
<path d="M52.8729 15.5475C52.1498 14.7784 51.3893 14.0466 50.6039 13.3616C53.3809 12.0662 55.3071 10.2197 55.3071 9.45991C55.3071 8.70013 53.9793 6.91277 48.9583 5.31536C44.3548 3.85185 38.2086 3.04225 31.6541 3.04225C25.0996 3.04225 18.9533 3.84873 14.3499 5.31536C9.32883 6.91277 8.00114 8.72504 8.00114 9.45991C8.00114 10.1948 9.93661 12.06 12.723 13.3585C11.9344 14.0466 11.1771 14.7784 10.454 15.5475C7.49931 13.9096 5.39551 11.3936 5.39551 9.45991C5.39551 6.50486 8.17877 4.12276 13.6674 2.37899C18.4921 0.843861 24.8783 0 31.6541 0C38.4299 0 44.8193 0.843861 49.6409 2.37899C55.1295 4.12587 57.9127 6.50797 57.9127 9.45991C57.9127 11.3998 55.8151 13.9158 52.8729 15.5475Z" fill="#EF2626"/>
<path d="M31.6542 36.3605C22.6281 36.3605 10.1768 36.9054 10.1768 36.9054C10.1768 57.0147 24.2956 57.0147 31.6542 57.0147C39.0129 57.0147 53.1318 57.0147 53.1318 36.9054C53.1318 36.9054 40.6834 36.3605 31.6542 36.3605Z" fill="#211206"/>
<path d="M50.757 36.8089C50.5887 39.5802 48.5098 41.8969 45.7297 42.3235C42.454 42.8248 37.6728 43.3262 31.6513 43.3262C25.6297 43.3262 20.8487 42.8248 17.5761 42.3235C14.796 41.8969 12.7202 39.5802 12.5488 36.8089C16.6006 36.6501 25.0438 36.3605 31.6513 36.3605C38.2588 36.3605 46.7052 36.6501 50.757 36.8089Z" fill="white"/>
<path d="M50.086 49.7969C45.523 57.0179 36.8803 57.0179 31.6504 57.0179C26.4205 57.0179 17.7778 57.0179 13.2148 49.7969V49.7906C13.7914 47.7106 15.6397 46.2346 17.7964 46.1319C17.8993 46.1256 18.0053 46.1225 18.1112 46.1163C20.8851 45.9949 25.261 45.8703 31.6472 45.8703C38.0335 45.8703 42.7429 46.0042 45.4981 46.1319C47.658 46.2315 49.5094 47.7106 50.0828 49.7938L50.086 49.7969Z" fill="white"/>
<path d="M12.2842 20.1156C11.9382 20.1156 11.5922 20.2308 11.3086 20.4706C10.6603 21.0093 10.5731 21.9715 11.1123 22.6192C13.7677 25.7984 16.9624 27.4799 20.3534 27.4799C23.7444 27.4799 26.9391 25.7984 29.5946 22.6192C30.1338 21.9715 30.0465 21.0124 29.4013 20.4706C28.753 19.9319 27.7931 20.0191 27.2508 20.6637C25.8171 22.3825 23.4545 24.4283 20.3534 24.4283C17.2522 24.4283 14.8898 22.3794 13.4561 20.6637C13.1537 20.3024 12.7205 20.1156 12.2842 20.1156Z" fill="#211206"/>
<path d="M51.021 20.1154C50.5847 20.1154 50.1514 20.3022 49.8491 20.6634C48.4154 22.3822 46.056 24.4281 42.9517 24.4281C39.8474 24.4281 37.4881 22.3791 36.0544 20.6634C35.5152 20.0157 34.5521 19.9285 33.9038 20.4703C33.2555 21.009 33.1683 21.9712 33.7075 22.6189C36.363 25.7982 39.5576 27.4796 42.9486 27.4796C46.3396 27.4796 49.5343 25.7982 52.1898 22.6189C52.729 21.9712 52.6417 21.0121 51.9934 20.4703C51.7098 20.2337 51.3607 20.1154 51.0179 20.1154H51.021Z" fill="#211206"/>
<defs>
<radialGradient id="paint0_radial_275_1685" cx="0" cy="0" r="1" gradientUnits="userSpaceOnUse" gradientTransform="translate(37.1391 30.1981) scale(41.1629 41.1248)">
<stop stop-color="#FFEF99"/>
<stop offset="0.52" stop-color="#FFD71B"/>
<stop offset="1" stop-color="#E69900"/>
</radialGradient>
</defs>
</svg>
