<svg width="40" height="40" viewBox="0 0 40 40" fill="none" xmlns="http://www.w3.org/2000/svg">
<path d="M20 40C31.0457 40 40 31.0457 40 20C40 8.95431 31.0457 0 20 0C8.95431 0 0 8.95431 0 20C0 31.0457 8.95431 40 20 40Z" fill="url(#paint0_radial_245_1555)"/>
<path d="M30.1093 27.3244C29.8036 27.3244 29.5019 27.1814 29.3134 26.9115C27.8048 24.7678 24.1129 23.3267 20.1272 23.3267C16.1415 23.3267 12.4515 24.7678 10.943 26.9115C10.6353 27.3502 10.0279 27.4574 9.58925 27.1477C9.15058 26.8381 9.0454 26.2327 9.35306 25.794C11.2367 23.1163 15.4666 21.3855 20.1272 21.3855C24.7878 21.3855 29.0196 23.1163 30.9033 25.794C31.2129 26.2327 31.1057 26.84 30.667 27.1477C30.4963 27.2668 30.3019 27.3244 30.1093 27.3244Z" fill="#211206"/>
<path d="M16.4252 14.621H8.68401C8.14809 14.621 7.71143 14.1863 7.71143 13.6484C7.71143 13.1105 8.1461 12.6758 8.68401 12.6758H16.4252C16.9611 12.6758 17.3978 13.1105 17.3978 13.6484C17.3978 14.1863 16.9631 14.621 16.4252 14.621Z" fill="#211206"/>
<path d="M31.5682 14.621H23.8271C23.2912 14.621 22.8545 14.1863 22.8545 13.6484C22.8545 13.1105 23.2892 12.6758 23.8271 12.6758H31.5682C32.1042 12.6758 32.5409 13.1105 32.5409 13.6484C32.5409 14.1863 32.1062 14.621 31.5682 14.621Z" fill="#211206"/>
<defs>
<radialGradient id="paint0_radial_245_1555" cx="0" cy="0" r="1" gradientUnits="userSpaceOnUse" gradientTransform="translate(23.6522 15.131) scale(26.2148)">
<stop stop-color="#FFCF99"/>
<stop offset="0.52" stop-color="#FF8E1B"/>
<stop offset="1" stop-color="#E64100"/>
</radialGradient>
</defs>
</svg>
