<svg width="62" height="64" viewBox="0 0 62 64" fill="none" xmlns="http://www.w3.org/2000/svg">
<path d="M31.471 61.3729C48.3318 61.3729 62.0002 47.7172 62.0002 30.872C62.0002 14.0268 48.3318 0.371094 31.471 0.371094C14.6103 0.371094 0.941895 14.0268 0.941895 30.872C0.941895 47.7172 14.6103 61.3729 31.471 61.3729Z" fill="url(#paint0_radial_275_1691)"/>
<path d="M31.7952 35.9501C22.7116 35.9501 10.186 36.498 10.186 36.498C10.186 56.731 24.3902 56.731 31.7952 56.731C39.2003 56.731 53.4043 56.731 53.4043 36.498C53.4043 36.498 40.8788 35.9501 31.7952 35.9501Z" fill="#211206"/>
<path d="M40.2516 47.9418C40.2516 42.4113 37.4853 41.1823 35.0251 41.1823C33.2495 41.1823 32.1315 41.6606 31.6437 41.927C31.1559 41.6606 30.0378 41.1823 28.2623 41.1823C25.8021 41.1823 23.0358 42.4113 23.0358 47.9418C23.0358 53.4723 21.9693 63.6433 31.6437 63.8461C41.3182 63.6463 40.2516 53.4178 40.2516 47.9418Z" fill="#EF2626"/>
<path d="M50.866 35.8187C50.6963 38.6097 48.6027 40.9375 45.8091 41.3674C42.5126 41.8698 37.7042 42.3754 31.6444 42.3754C25.5846 42.3754 20.7762 41.8729 17.4827 41.3674C14.6861 40.9375 12.5955 38.6067 12.4258 35.8187C16.501 35.6583 24.9968 35.3677 31.6444 35.3677C38.292 35.3677 46.7938 35.6613 50.869 35.8187H50.866Z" fill="white"/>
<path d="M43.3715 15.7175C45.8248 15.2455 47.4305 12.876 46.9581 10.425C46.4857 7.97403 44.114 6.36973 41.6607 6.84172C39.2075 7.3137 37.6017 9.68323 38.0741 12.1342C38.5466 14.5852 40.9183 16.1895 43.3715 15.7175Z" fill="#211206"/>
<path d="M25.0288 17.8147C25.7526 15.4258 24.4009 12.9029 22.0097 12.1798C19.6185 11.4568 17.0933 12.8072 16.3696 15.1962C15.6458 17.5852 16.9975 20.108 19.3887 20.8311C21.7799 21.5542 24.3051 20.2037 25.0288 17.8147Z" fill="#211206"/>
<defs>
<radialGradient id="paint0_radial_275_1691" cx="0" cy="0" r="1" gradientUnits="userSpaceOnUse" gradientTransform="translate(37.046 23.4466) scale(40.0157 39.9787)">
<stop stop-color="#FFEF99"/>
<stop offset="0.52" stop-color="#FFD71B"/>
<stop offset="1" stop-color="#E69900"/>
</radialGradient>
</defs>
</svg>
