<svg width="72" height="64" viewBox="0 0 72 64" fill="none" xmlns="http://www.w3.org/2000/svg">
<path d="M28.7508 63.3202C44.5464 63.3202 57.3512 50.5272 57.3512 34.7463C57.3512 18.9653 44.5464 6.17232 28.7508 6.17232C12.9552 6.17232 0.150391 18.9653 0.150391 34.7463C0.150391 50.5272 12.9552 63.3202 28.7508 63.3202Z" fill="url(#paint0_radial_278_1722)"/>
<path d="M18.3935 26.3522C15.3052 26.3522 12.3958 24.8208 9.97742 21.9254C9.48637 21.3356 9.56584 20.4621 10.1534 19.9687C10.7438 19.4781 11.6181 19.5575 12.1091 20.1445C13.4148 21.7099 15.5664 23.5731 18.3906 23.5731C21.2149 23.5731 23.3637 21.7071 24.6722 20.1445C25.1632 19.5547 26.0403 19.4753 26.6307 19.9687C27.2211 20.4593 27.2978 21.3356 26.8067 21.9254C24.3883 24.8208 21.4789 26.3522 18.3906 26.3522H18.3935Z" fill="#211206"/>
<path d="M38.975 26.3522C35.8868 26.3522 32.9773 24.8208 30.559 21.9254C30.0679 21.3356 30.1474 20.4621 30.7349 19.9687C31.3254 19.4781 32.1996 19.5575 32.6935 20.1445C33.9992 21.7099 36.1508 23.5731 38.975 23.5731C41.7993 23.5731 43.9509 21.7071 45.2566 20.1445C45.7476 19.5547 46.6247 19.4753 47.2151 19.9687C47.8055 20.4593 47.8822 21.3356 47.3911 21.9254C44.9727 24.8208 42.0633 26.3522 38.975 26.3522Z" fill="#211206"/>
<path d="M33.4957 46.9543C36.1539 44.2986 36.1539 39.9929 33.4957 37.3372C30.8376 34.6815 26.5278 34.6814 23.8697 37.3371C21.2115 39.9928 21.2115 44.2986 23.8697 46.9543C26.5279 49.61 30.8376 49.61 33.4957 46.9543Z" fill="#211206"/>
<path d="M48.4702 44.1788C48.3311 44.1901 48.1892 44.1816 48.0444 44.1504L42.3845 42.8885C41.8906 42.7779 41.4961 42.4092 41.3542 41.9243C41.2123 41.4394 41.3428 40.9176 41.6976 40.5574L46.9715 35.2232L43.852 34.5284C43.1027 34.3611 42.6315 33.6181 42.7989 32.8723C42.9664 32.1236 43.7072 31.6529 44.4566 31.8202L50.0285 33.0623C50.5224 33.1729 50.917 33.5416 51.0589 34.0265C51.2008 34.5114 51.0703 35.0332 50.7154 35.3933L45.4416 40.7276L48.649 41.4422C49.3984 41.6095 49.8696 42.3525 49.7021 43.0983C49.5659 43.7024 49.0549 44.1277 48.4674 44.1788H48.4702Z" fill="#EF2626"/>
<path d="M62.7695 34.4544H55.3441C54.8389 34.4544 54.3734 34.1794 54.1293 33.7398C53.8852 33.2974 53.8993 32.7586 54.169 32.3304L59.6472 23.596H54.8474C54.081 23.596 53.4565 22.9749 53.4565 22.2064C53.4565 21.4379 54.0782 20.8168 54.8474 20.8168H62.1565C62.6617 20.8168 63.1272 21.0919 63.3713 21.5315C63.6154 21.9739 63.6012 22.5127 63.3316 22.9409L57.8533 31.6753H62.7667C63.5331 31.6753 64.1576 32.2964 64.1576 33.0649C64.1576 33.8334 63.5359 34.4544 62.7667 34.4544H62.7695Z" fill="#EF2626"/>
<path d="M61.8812 16.3532C61.4668 16.3532 61.0695 16.1689 60.8055 15.8428C60.4876 15.4514 60.4053 14.9183 60.5926 14.4503L65.1057 3.20054L59.3664 4.23563C58.6113 4.37175 57.8875 3.86982 57.7513 3.11549C57.6151 2.36115 58.1174 1.638 58.8725 1.50188L67.0842 0.0215744C67.5838 -0.0663367 68.089 0.117985 68.4069 0.509331C68.7248 0.900677 68.8071 1.43383 68.6198 1.90174L64.1066 13.1515L69.9766 12.0937C70.7316 11.9576 71.4554 12.4596 71.5917 13.2139C71.7279 13.9683 71.2255 14.6914 70.4705 14.8275L62.131 16.3305C62.0487 16.3447 61.9664 16.3532 61.8841 16.3532H61.8812Z" fill="#EF2626"/>
<defs>
<radialGradient id="paint0_radial_278_1722" cx="0" cy="0" r="1" gradientUnits="userSpaceOnUse" gradientTransform="translate(33.9736 -350.208) scale(37.4877 37.453)">
<stop stop-color="#FFEF99"/>
<stop offset="0.52" stop-color="#FFD71B"/>
<stop offset="1" stop-color="#E69900"/>
</radialGradient>
</defs>
</svg>
