<svg width="66" height="61" viewBox="0 0 66 61" fill="none" xmlns="http://www.w3.org/2000/svg">
<path d="M32.4169 60.3434C49.0958 60.3434 62.6166 46.8351 62.6166 30.1717C62.6166 13.5083 49.0958 0 32.4169 0C15.7381 0 2.21729 13.5083 2.21729 30.1717C2.21729 46.8351 15.7381 60.3434 32.4169 60.3434Z" fill="url(#paint0_radial_275_1688)"/>
<path d="M16.8998 24.8836C16.3993 24.8836 15.9137 24.6291 15.638 24.1679C15.2214 23.4732 15.4492 22.5719 16.1475 22.1586L24.5546 17.149L17.6521 13.2084C16.9478 12.8071 16.705 11.9118 17.1067 11.2081C17.5083 10.5044 18.4044 10.2619 19.1088 10.6631L28.1933 15.8494C28.6458 16.107 28.9276 16.586 28.9335 17.1071C28.9395 17.6281 28.6668 18.1132 28.2172 18.3797L17.6521 24.677C17.4153 24.8177 17.1576 24.8836 16.9028 24.8836H16.8998Z" fill="#211206"/>
<path d="M48.3134 24.8836C48.0587 24.8836 47.7979 24.8177 47.5641 24.677L36.999 18.3797C36.5495 18.1132 36.2797 17.6281 36.2827 17.1071C36.2887 16.586 36.5675 16.107 37.023 15.8494L46.1075 10.6631C46.8119 10.2619 47.708 10.5044 48.1096 11.2081C48.5113 11.9118 48.2685 12.8071 47.5641 13.2084L40.6616 17.149L49.0687 22.1586C49.7641 22.5749 49.9918 23.4732 49.5782 24.1679C49.3025 24.6291 48.8169 24.8836 48.3164 24.8836H48.3134Z" fill="#211206"/>
<path d="M32.6054 29.6717C24.0395 29.6717 12.2275 30.1898 12.2275 30.1898C12.2275 49.2702 25.622 49.2702 32.6054 49.2702C39.5889 49.2702 52.9833 49.2702 52.9833 30.1898C52.9833 30.1898 41.1714 29.6717 32.6054 29.6717Z" fill="#211206"/>
<path d="M50.7319 30.0969C50.5701 32.729 48.5979 34.9239 45.9634 35.3311C42.8553 35.8073 38.3206 36.2804 32.6049 36.2804C26.8893 36.2804 22.3545 35.8043 19.2495 35.3311C16.6119 34.9269 14.6398 32.729 14.481 30.0969C18.3234 29.9472 26.3348 29.6717 32.6049 29.6717C38.8751 29.6717 46.8895 29.9472 50.7319 30.0969Z" fill="white"/>
<path d="M43.0352 47.9646C39.3906 49.2701 35.4613 49.2701 32.608 49.2701C29.7546 49.2701 25.8253 49.2701 22.1777 47.9646C23.1758 44.0299 25.8882 43.0447 28.3579 43.0447C30.5938 43.0447 31.9995 43.6466 32.611 43.982C33.2224 43.6466 34.628 43.0447 36.864 43.0447C39.3336 43.0447 42.046 44.0299 43.0381 47.9646H43.0352Z" fill="#EF2626"/>
<path d="M9.6165 38.146C7.41656 40.3439 3.84989 40.3439 1.64995 38.146C-0.549984 35.9481 -0.549984 32.3848 1.64995 30.1869C3.84989 27.989 14.4269 25.3808 14.4269 25.3808C14.4269 25.3808 11.8164 35.9481 9.6165 38.146Z" fill="url(#paint1_radial_275_1688)"/>
<path d="M55.5927 38.146C57.7927 40.3439 61.3593 40.3439 63.5593 38.146C65.7592 35.9481 65.7592 32.3848 63.5593 30.1869C61.3593 27.989 50.7822 25.3808 50.7822 25.3808C50.7822 25.3808 53.3928 35.9481 55.5927 38.146Z" fill="url(#paint2_radial_275_1688)"/>
<defs>
<radialGradient id="paint0_radial_275_1688" cx="0" cy="0" r="1" gradientUnits="userSpaceOnUse" gradientTransform="translate(37.9318 -376.308) scale(39.5839 39.5472)">
<stop stop-color="#FFEF99"/>
<stop offset="0.52" stop-color="#FFD71B"/>
<stop offset="1" stop-color="#E69900"/>
</radialGradient>
<radialGradient id="paint1_radial_275_1688" cx="0" cy="0" r="1" gradientUnits="userSpaceOnUse" gradientTransform="translate(6.90828 32.9038) rotate(44.9736) scale(7.52544 11.7397)">
<stop offset="0.31" stop-color="#87FFF5"/>
<stop offset="0.44" stop-color="#6BEEF7"/>
<stop offset="0.7" stop-color="#38D1FB"/>
<stop offset="0.89" stop-color="#18BEFE"/>
<stop offset="1" stop-color="#0DB8FF"/>
</radialGradient>
<radialGradient id="paint2_radial_275_1688" cx="0" cy="0" r="1" gradientUnits="userSpaceOnUse" gradientTransform="translate(58.0688 32.6686) rotate(135.027) scale(7.52546 11.7397)">
<stop offset="0.31" stop-color="#87FFF5"/>
<stop offset="0.44" stop-color="#6BEEF7"/>
<stop offset="0.7" stop-color="#38D1FB"/>
<stop offset="0.89" stop-color="#18BEFE"/>
<stop offset="1" stop-color="#0DB8FF"/>
</radialGradient>
</defs>
</svg>
