<svg width="63" height="63" viewBox="0 0 63 63" fill="none" xmlns="http://www.w3.org/2000/svg">
<path d="M31.1502 62.8484C48.2709 62.8484 62.15 48.9822 62.15 31.8773C62.15 14.7725 48.2709 0.90625 31.1502 0.90625C14.0295 0.90625 0.150391 14.7725 0.150391 31.8773C0.150391 48.9822 14.0295 62.8484 31.1502 62.8484Z" fill="url(#paint0_radial_275_1690)"/>
<path d="M20.2096 21.8262C17.133 21.8262 14.2165 20.4952 11.7798 17.9809C11.2414 17.4246 11.2537 16.5362 11.8105 15.9983C12.3674 15.4604 13.2566 15.4727 13.795 16.0291C15.6902 17.987 17.9083 19.0198 20.2066 19.0198C22.5048 19.0198 24.723 17.984 26.6213 16.0291C27.1597 15.4727 28.0488 15.4574 28.6057 15.9983C29.1626 16.5362 29.178 17.4246 28.6365 17.9809C26.1998 20.4983 23.2832 21.8262 20.2066 21.8262H20.2096Z" fill="#211206"/>
<path d="M42.4386 21.8262C39.3621 21.8262 36.4455 20.4952 34.0088 17.9809C33.4704 17.4246 33.4827 16.5362 34.0395 15.9983C34.5964 15.4604 35.4856 15.4727 36.024 16.0291C37.9192 17.987 40.1374 19.0198 42.4356 19.0198C44.7338 19.0198 46.952 17.984 48.8503 16.0291C49.3887 15.4727 50.2778 15.4574 50.8347 15.9983C51.3916 16.5362 51.407 17.4246 50.8655 17.9809C48.4288 20.4983 45.5122 21.8262 42.4356 21.8262H42.4386Z" fill="#211206"/>
<path d="M52.453 31.7025C52.853 32.6154 53.0191 33.6451 52.8745 34.7086L52.1546 40.0631C51.7823 42.8264 50.5271 45.3038 48.675 47.2034C46.8198 49.0999 44.3739 50.4185 41.6173 50.8612C34.8026 51.9554 27.8525 51.9554 21.0348 50.8612H21.0317C15.5246 49.9759 11.2451 45.5928 10.4975 40.0631L9.7745 34.7086C9.6299 33.6482 9.79907 32.6185 10.196 31.7056L0.692383 27.7865C0.756991 27.2947 0.833906 26.8091 0.923128 26.3265L10.9405 30.4545C11.8666 29.2834 13.2572 28.4781 14.8694 28.3337L23.9453 27.5253C28.8556 27.0888 33.7935 27.0888 38.7037 27.5253L47.7797 28.3337C49.3949 28.4781 50.7794 29.2834 51.7054 30.4545L61.7228 26.3265C61.812 26.8091 61.8889 27.2947 61.9535 27.7865L52.45 31.7025H52.453Z" fill="white"/>
<defs>
<radialGradient id="paint0_radial_275_1690" cx="0" cy="0" r="1" gradientUnits="userSpaceOnUse" gradientTransform="translate(36.8111 24.3374) scale(40.6326 40.595)">
<stop stop-color="#FFEF99"/>
<stop offset="0.52" stop-color="#FFD71B"/>
<stop offset="1" stop-color="#E69900"/>
</radialGradient>
</defs>
</svg>
