<svg width="60" height="67" viewBox="0 0 60 67" fill="none" xmlns="http://www.w3.org/2000/svg">
<path d="M29.8986 66.7399C45.7532 66.7399 58.6058 51.8474 58.6058 33.4764C58.6058 15.1055 45.7532 0.212982 29.8986 0.212982C14.0441 0.212982 1.19141 15.1055 1.19141 33.4764C1.19141 51.8474 14.0441 66.7399 29.8986 66.7399Z" fill="url(#paint0_radial_276_1705)"/>
<path d="M31.0504 52.1711C26.999 52.1711 23.4462 50.4611 21.7738 47.7111C21.3294 46.9815 21.4832 45.9714 22.1129 45.4597C22.7425 44.9447 23.6143 45.1229 24.0559 45.8525C24.9904 47.3909 27.5147 48.9425 31.0504 48.9425C34.5861 48.9425 37.1132 47.3909 38.0477 45.8525C38.4893 45.1229 39.3611 44.948 39.9908 45.4597C40.6204 45.9747 40.7714 46.9815 40.3298 47.7111C38.6602 50.4644 35.1046 52.1711 31.0532 52.1711H31.0504Z" fill="#211206"/>
<path d="M45.8569 13.897C38.1587 13.897 34.7569 15.8282 33.2526 18.8621H26.5545C25.1299 15.6466 21.7652 13.5833 13.802 13.5833C0.00684898 13.5833 0.00683594 19.7798 0.00683594 27.4255C0.00683594 35.0712 6.18362 41.5846 13.802 41.5846C21.4204 41.5846 27.5972 35.0712 27.5972 27.4255C27.5972 25.5108 27.5972 23.6885 27.3807 22.0313H32.3181C32.0588 23.771 32.0588 25.7056 32.0588 27.7391C32.0588 35.3848 38.2356 41.5813 45.854 41.5813C53.4724 41.5813 59.6492 35.3848 59.6492 27.7391C59.6492 20.0934 59.6492 13.897 45.854 13.897H45.8569Z" fill="#211206"/>
<defs>
<radialGradient id="paint0_radial_276_1705" cx="0" cy="0" r="1" gradientUnits="userSpaceOnUse" gradientTransform="translate(35.1409 25.3785) scale(37.0721 42.9559)">
<stop stop-color="#FFEF99"/>
<stop offset="0.52" stop-color="#FFD71B"/>
<stop offset="1" stop-color="#E69900"/>
</radialGradient>
</defs>
</svg>
