<svg width="65" height="65" viewBox="0 0 65 65" fill="none" xmlns="http://www.w3.org/2000/svg">
<path d="M32.2508 64.6795C49.9794 64.6795 64.3512 50.321 64.3512 32.6088C64.3512 14.8966 49.9794 0.538086 32.2508 0.538086C14.5222 0.538086 0.150391 14.8966 0.150391 32.6088C0.150391 50.321 14.5222 64.6795 32.2508 64.6795Z" fill="url(#paint0_radial_276_1710)"/>
<path d="M44.5158 14.6061C38.9852 14.6061 34.4868 19.1004 34.4868 24.6258C34.4868 30.1513 38.9852 34.6455 44.5158 34.6455C50.0464 34.6455 54.5448 30.1513 54.5448 24.6258C54.5448 19.1004 50.0464 14.6061 44.5158 14.6061Z" fill="white"/>
<path d="M38.9512 24.6265C38.9512 27.2492 41.0793 29.3785 43.7076 29.3785C46.3359 29.3785 48.4641 27.2523 48.4641 24.6265C48.4641 22.0006 46.3359 19.8744 43.7076 19.8744C41.0793 19.8744 38.9512 22.0006 38.9512 24.6265Z" fill="#211206"/>
<path d="M9.81885 24.6258C9.81885 30.1513 14.3172 34.6455 19.8478 34.6455C25.3784 34.6455 29.8768 30.1513 29.8768 24.6258C29.8768 19.1004 25.3784 14.6061 19.8478 14.6061C14.3172 14.6061 9.81885 19.1004 9.81885 24.6258Z" fill="white"/>
<path d="M22.4811 29.015C24.9081 28.0106 26.0605 25.2308 25.0553 22.8061C24.05 20.3814 21.2676 19.23 18.8407 20.2343C16.4137 21.2387 15.2612 24.0185 16.2665 26.4432C17.2718 28.8679 20.0542 30.0193 22.4811 29.015Z" fill="#211206"/>
<path d="M48.2026 40.4353C47.712 40.4353 47.2278 40.6645 46.9251 41.0974C44.5039 44.5349 38.5783 46.8456 32.1811 46.8456C25.784 46.8456 19.8615 44.5349 17.4403 41.0974C16.9465 40.3939 15.9716 40.222 15.2675 40.7186C14.5635 41.2151 14.3946 42.1859 14.8884 42.8893C17.9118 47.183 24.7008 49.9585 32.1811 49.9585C39.6614 49.9585 46.4536 47.183 49.477 42.8893C49.974 42.1859 49.8019 41.2119 49.0979 40.7186C48.8239 40.5276 48.5117 40.4353 48.2026 40.4353Z" fill="#211206"/>
<defs>
<radialGradient id="paint0_radial_276_1710" cx="0" cy="0" r="1" gradientUnits="userSpaceOnUse" gradientTransform="translate(38.1127 -399.455) scale(42.0753 42.0363)">
<stop stop-color="#FFEF99"/>
<stop offset="0.52" stop-color="#FFD71B"/>
<stop offset="1" stop-color="#E69900"/>
</radialGradient>
</defs>
</svg>
