<svg width="61" height="61" viewBox="0 0 61 61" fill="none" xmlns="http://www.w3.org/2000/svg">
<path d="M30.2013 60.3423C46.881 60.3423 60.4026 46.8343 60.4026 30.1712C60.4026 13.5081 46.881 0 30.2013 0C13.5216 0 0 13.5081 0 30.1712C0 46.8343 13.5216 60.3423 30.2013 60.3423Z" fill="url(#paint0_radial_275_1676)"/>
<path d="M45.4674 41.2205C45.0058 41.2205 44.5502 41.0049 44.2655 40.5976C41.9875 37.3637 36.4124 35.1898 30.3938 35.1898C24.3751 35.1898 18.803 37.3637 16.525 40.5976C16.0604 41.2594 15.1432 41.4211 14.4808 40.954C13.8184 40.4869 13.6595 39.5736 14.1241 38.9118C16.9686 34.8724 23.356 32.2613 30.3938 32.2613C37.4315 32.2613 43.8219 34.8724 46.6664 38.9118C47.134 39.5736 46.972 40.4899 46.3096 40.954C46.0519 41.1336 45.7582 41.2205 45.4674 41.2205Z" fill="#211206"/>
<path d="M24.8029 22.0566H13.1132C12.3039 22.0566 11.6445 21.4008 11.6445 20.5893C11.6445 19.7779 12.3009 19.1221 13.1132 19.1221H24.8029C25.6121 19.1221 26.2716 19.7779 26.2716 20.5893C26.2716 21.4008 25.6151 22.0566 24.8029 22.0566Z" fill="#211206"/>
<path d="M47.6705 22.0566H35.9809C35.1716 22.0566 34.5122 21.4008 34.5122 20.5893C34.5122 19.7779 35.1686 19.1221 35.9809 19.1221H47.6705C48.4798 19.1221 49.1393 19.7779 49.1393 20.5893C49.1393 21.4008 48.4828 22.0566 47.6705 22.0566Z" fill="#211206"/>
<defs>
<radialGradient id="paint0_radial_275_1676" cx="0" cy="0" r="1" gradientUnits="userSpaceOnUse" gradientTransform="translate(35.7164 22.826) scale(39.586 39.5465)">
<stop stop-color="#FFCF99"/>
<stop offset="0.52" stop-color="#FF8E1B"/>
<stop offset="1" stop-color="#E64100"/>
</radialGradient>
</defs>
</svg>
