<svg width="76" height="62" viewBox="0 0 76 62" fill="none" xmlns="http://www.w3.org/2000/svg">
<path d="M30.4043 61.4457C47.1962 61.4457 60.8087 47.8459 60.8087 31.0696C60.8087 14.2933 47.1962 0.693359 30.4043 0.693359C13.6125 0.693359 0 14.2933 0 31.0696C0 47.8459 13.6125 61.4457 30.4043 61.4457Z" fill="url(#paint0_radial_278_1721)"/>
<path d="M14.5199 25.7488C14.016 25.7488 13.5272 25.4925 13.2496 25.0283C12.8301 24.3289 13.0625 23.4214 13.7625 23.0054L22.2266 17.9618L15.2773 13.9944C14.5682 13.5905 14.3238 12.6891 14.7281 11.9806C15.1325 11.2721 16.0347 11.028 16.7438 11.4319L25.8899 16.6534C26.3455 16.9127 26.6291 17.395 26.6352 17.9196C26.6412 18.4441 26.3666 18.9325 25.914 19.2008L15.2773 25.5407C15.0389 25.6824 14.7794 25.7488 14.5229 25.7488H14.5199Z" fill="#211206"/>
<path d="M46.1469 25.7488C45.8905 25.7488 45.6279 25.6824 45.3926 25.5407L34.7559 19.2008C34.3033 18.9325 34.0317 18.4441 34.0347 17.9196C34.0407 17.395 34.3244 16.9127 34.78 16.6534L43.9261 11.4319C44.6352 11.028 45.5374 11.2721 45.9417 11.9806C46.3461 12.6891 46.1017 13.5905 45.3926 13.9944L38.4433 17.9618L46.9074 23.0054C47.6074 23.4245 47.8367 24.3289 47.4203 25.0283C47.1427 25.4925 46.6539 25.7488 46.15 25.7488H46.1469Z" fill="#211206"/>
<path d="M30.3322 30.8555C21.5935 30.8555 9.53857 31.383 9.53857 31.383C9.53857 50.852 23.2079 50.852 30.3322 50.852C37.4565 50.852 51.1258 50.852 51.1258 31.383C51.1258 31.383 39.0739 30.8555 30.3322 30.8555Z" fill="#211206"/>
<path d="M48.8299 31.2896C48.667 33.9727 46.6543 36.2156 43.9627 36.6286C40.7913 37.114 36.1625 37.5994 30.3326 37.5994C24.5028 37.5994 19.874 37.114 16.7056 36.6286C14.014 36.2156 12.0043 33.9727 11.8384 31.2896C15.7611 31.1359 23.9355 30.8555 30.3326 30.8555C36.7297 30.8555 44.9072 31.1359 48.8299 31.2896Z" fill="white"/>
<path d="M48.1809 43.8638C43.7633 50.8549 35.3958 50.8549 30.3324 50.8549C25.269 50.8549 16.9015 50.8549 12.4839 43.8638V43.8578C13.0421 41.8439 14.8315 40.415 16.9196 40.3155C17.0192 40.3095 17.1218 40.3065 17.2244 40.3004C19.9099 40.1829 24.1465 40.0623 30.3294 40.0623C36.5122 40.0623 41.0717 40.1919 43.7392 40.3155C45.8303 40.412 47.6227 41.8439 48.1779 43.8608L48.1809 43.8638Z" fill="white"/>
<path d="M43.8897 34.6271C45.8451 34.3919 47.8818 37.8528 49.2126 40.6987L51.4667 37.1172L57.4443 27.6179C58.2409 26.3517 59.9156 25.9689 61.186 26.7647C62.4534 27.5606 62.8366 29.2338 62.04 30.503L64.4147 26.7316C65.2113 25.4654 66.8861 25.0825 68.1564 25.8784C69.4238 26.6743 69.807 28.3474 69.0104 29.6166L67.6887 31.7179C68.4854 30.4517 70.16 30.0688 71.4304 30.8647C72.6978 31.6606 73.081 33.3338 72.2844 34.603L70.4829 37.4669C71.2795 36.2008 72.9542 35.8179 74.2246 36.6138C75.492 37.4096 75.8752 39.0828 75.0786 40.352L69.8523 48.6575L65.2264 56.0104L64.6531 56.9209C61.4636 61.9886 54.7648 63.517 49.6924 60.3305C46.6537 58.4222 44.8885 55.2537 44.6441 51.9315C44.6441 51.9315 43.5246 42.5859 42.043 39.948C40.5614 37.3102 40.6127 35.028 43.9018 34.6331L43.8897 34.6271Z" fill="#F2CCAA"/>
<path d="M70.8332 30.5809C71.6872 31.4552 71.8592 32.8299 71.1802 33.9092L63.9171 45.4525L63.7451 48.1567L72.2756 34.5965C73.0722 33.3304 72.692 31.6542 71.4217 30.8583C71.2346 30.7407 71.0354 30.6503 70.8332 30.5809Z" fill="#D6AA8A"/>
<path d="M49.146 59.9655C49.318 60.0891 49.496 60.2097 49.6801 60.3243C54.7525 63.5108 61.4514 61.9824 64.6408 56.9147L75.0663 40.3458C75.8629 39.0796 75.4828 37.4035 74.2124 36.6076C74.0253 36.49 73.8261 36.3996 73.624 36.3302C74.4779 37.2045 74.6529 38.5822 73.974 39.6615L63.5485 56.2303C60.4737 61.1172 54.143 62.7119 49.146 59.9655Z" fill="#D6AA8A"/>
<path d="M67.5626 25.5949C68.4166 26.4692 68.5916 27.8469 67.9126 28.9262L59.3278 42.5707L59.1528 45.2719L69.005 29.6105C69.8016 28.3443 69.4214 26.6681 68.151 25.8723C67.9639 25.7547 67.7648 25.6643 67.5626 25.5949Z" fill="#D6AA8A"/>
<path d="M60.5946 26.487C61.4485 27.3613 61.6235 28.733 60.9446 29.8123L54.7316 39.6854L54.5596 42.3896L62.0399 30.4996C62.8365 29.2335 62.4533 27.5603 61.186 26.7644C60.9989 26.6468 60.7998 26.5564 60.5976 26.487H60.5946Z" fill="#D6AA8A"/>
<defs>
<radialGradient id="paint0_radial_278_1721" cx="0" cy="0" r="1" gradientUnits="userSpaceOnUse" gradientTransform="translate(35.9565 23.6745) scale(39.8521 39.8152)">
<stop stop-color="#FFEF99"/>
<stop offset="0.52" stop-color="#FFD71B"/>
<stop offset="1" stop-color="#E69900"/>
</radialGradient>
</defs>
</svg>
