<svg width="79" height="63" viewBox="0 0 79 63" fill="none" xmlns="http://www.w3.org/2000/svg">
<path d="M47.2136 62.1479C64.3911 62.1479 78.3163 48.2356 78.3163 31.074C78.3163 13.9123 64.3911 0 47.2136 0C30.036 0 16.1108 13.9123 16.1108 31.074C16.1108 48.2356 30.036 62.1479 47.2136 62.1479Z" fill="url(#paint0_radial_278_1723)"/>
<path d="M52.1419 20.8257C53.3272 15.5953 58.5316 12.314 63.7699 13.4982C69.0052 14.6825 72.2895 19.882 71.1042 25.1155C69.9189 30.3459 64.7145 33.6272 59.4762 32.443C54.2409 31.2588 50.9566 26.0592 52.1419 20.8257Z" fill="white"/>
<path d="M54.5566 21.3872C55.2233 18.442 58.1527 16.5947 61.1006 17.264C64.0485 17.9301 65.8975 20.8567 65.2277 23.8019C64.5609 26.7471 61.6315 28.5944 58.6836 27.9252C55.7357 27.259 53.8867 24.3324 54.5566 21.3872Z" fill="#211206"/>
<path d="M45.2303 22.9693C44.6808 22.9693 44.1499 22.6701 43.8844 22.1458C42.875 20.1721 41.0446 17.6802 38.0473 17.0018C35.05 16.3233 32.3212 17.7851 30.5618 19.1328C29.8981 19.6386 28.9504 19.5121 28.4442 18.8521C27.9379 18.1891 28.0645 17.2423 28.7251 16.7366C31.9848 14.2447 35.4389 13.3196 38.714 14.0597C41.9891 14.7999 44.7055 17.1221 46.5761 20.7735C46.9558 21.5167 46.6626 22.4265 45.9186 22.8058C45.6995 22.9168 45.4649 22.9723 45.2333 22.9723L45.2303 22.9693Z" fill="#211206"/>
<path d="M32.4825 29.3684L4.18879 29.39C1.88294 29.39 0.0123186 27.5242 0.0092318 25.2204L0 10.4668C0 8.16309 1.86749 6.2942 4.17334 6.29112L32.4671 6.26955C34.7729 6.26955 36.6436 8.13535 36.6466 10.4391L36.6559 25.1927C36.6559 27.4964 34.7884 29.3653 32.4825 29.3684Z" fill="#EF2626"/>
<path d="M18.3154 21.542C20.3863 18.3304 19.4591 14.0497 16.2446 11.9807C13.03 9.91178 8.74529 10.8381 6.67444 14.0497C4.60358 17.2613 5.53075 21.542 8.74532 23.611C11.9599 25.6799 16.2446 24.7536 18.3154 21.542Z" fill="white"/>
<path d="M31.6056 34.6207C32.0686 34.7286 32.473 35.0555 32.6613 35.5304C34.1738 39.3114 39.2455 42.8117 45.2802 44.2395C51.3118 45.6674 57.4145 44.8101 60.4642 42.1085C61.0878 41.5565 62.0447 41.612 62.5972 42.2381C63.1497 42.861 63.0942 43.817 62.4676 44.369C58.6554 47.7429 51.6359 48.847 44.5826 47.1786C37.5261 45.5101 31.7445 41.3776 29.8554 36.653C29.5467 35.8789 29.9233 35 30.6981 34.6916C30.9975 34.5713 31.3124 34.5559 31.6056 34.6237V34.6207Z" fill="#211206"/>
<defs>
<radialGradient id="paint0_radial_278_1723" cx="0" cy="0" r="1" gradientUnits="userSpaceOnUse" gradientTransform="translate(52.8933 -387.561) scale(40.7676 40.7298)">
<stop stop-color="#FFEF99"/>
<stop offset="0.52" stop-color="#FFD71B"/>
<stop offset="1" stop-color="#E69900"/>
</radialGradient>
</defs>
</svg>
