<svg width="60" height="69" viewBox="0 0 60 69" fill="none" xmlns="http://www.w3.org/2000/svg">
<path d="M29.961 68.3202C46.2427 68.3202 59.4416 53.0265 59.4416 34.1607C59.4416 15.2949 46.2427 0.00109863 29.961 0.00109863C13.6793 0.00109863 0.480469 15.2949 0.480469 34.1607C0.480469 53.0265 13.6793 68.3202 29.961 68.3202Z" fill="url(#paint0_radial_278_1724)"/>
<path d="M47.8019 34.8998C51.4 30.7306 51.4 23.9712 47.8019 19.802C44.2038 15.6329 38.3702 15.6329 34.7722 19.802C31.1741 23.9712 31.1741 30.7306 34.7722 34.8998C38.3702 39.0689 44.2038 39.0689 47.8019 34.8998Z" fill="white"/>
<path d="M44.294 29.7103C45.3904 26.6433 44.1335 23.1272 41.4866 21.8568C38.8397 20.5864 35.8052 22.0428 34.7088 25.1098C33.6124 28.1768 34.8694 31.693 37.5163 32.9633C40.1631 34.2337 43.1977 32.7773 44.294 29.7103Z" fill="#211206"/>
<path d="M22.4363 37.0982C27.0673 34.655 29.1122 28.3244 27.0037 22.9584C24.8952 17.5924 19.4317 15.223 14.8007 17.6662C10.1697 20.1093 8.12482 26.4399 10.2333 31.8059C12.3419 37.1719 17.8053 39.5414 22.4363 37.0982Z" fill="white"/>
<path d="M21.8585 33.1623C24.6148 32.2567 26.2157 28.9336 25.4341 25.7398C24.6526 22.546 21.7846 20.691 19.0283 21.5966C16.272 22.5021 14.6712 25.8253 15.4527 29.0191C16.2342 32.2129 19.1022 34.0678 21.8585 33.1623Z" fill="#211206"/>
<path d="M10.6184 18.1483C10.0333 18.1483 9.44811 18.1008 8.86003 18.0025C8.07591 17.8737 7.53464 17.0329 7.64582 16.1243C7.757 15.2158 8.47967 14.5852 9.26672 14.7174C11.2387 15.0463 13.2224 14.6496 14.9984 13.5681C16.7744 12.4867 18.1846 10.8255 19.0741 8.75746C19.4281 7.93704 20.2883 7.60477 20.9934 8.0116C21.7015 8.42181 21.9882 9.41516 21.6371 10.2356C20.4785 12.9308 18.644 15.1005 16.3296 16.504C14.542 17.5889 12.5963 18.1449 10.6184 18.1449V18.1483Z" fill="#211206"/>
<path d="M49.3001 18.1486C47.3223 18.1486 45.3736 17.5926 43.5889 16.5077C41.2746 15.1008 39.4401 12.9345 38.2815 10.2393C37.9274 9.41884 38.2171 8.4221 38.9252 8.01528C39.6332 7.60507 40.4934 7.94072 40.8445 8.76115C41.7339 10.8292 43.1413 12.4903 44.9202 13.5718C46.6961 14.6499 48.6798 15.0499 50.6518 14.7211C51.4418 14.5923 52.1616 15.2228 52.2727 16.128C52.3839 17.0366 51.8426 17.8774 51.0585 18.0062C50.4734 18.1045 49.8853 18.152 49.3001 18.152V18.1486Z" fill="#211206"/>
<path d="M44.6715 53.3492C44.221 53.3492 43.7763 53.105 43.4983 52.644C41.2747 48.9826 35.8327 46.5213 29.9576 46.5213C24.0826 46.5213 18.6435 48.9826 16.4199 52.644C15.9664 53.3932 15.071 53.5763 14.4244 53.0474C13.7778 52.5185 13.6228 51.4845 14.0763 50.7353C16.8529 46.1619 23.0878 43.2057 29.9576 43.2057C36.8274 43.2057 43.0653 46.1619 45.8419 50.7353C46.2983 51.4845 46.1403 52.5219 45.4937 53.0474C45.2421 53.2508 44.9553 53.3492 44.6715 53.3492Z" fill="#211206"/>
<defs>
<radialGradient id="paint0_radial_278_1724" cx="0" cy="0" r="1" gradientUnits="userSpaceOnUse" gradientTransform="translate(35.3445 -426.044) scale(38.6413 44.7742)">
<stop stop-color="#FFEF99"/>
<stop offset="0.52" stop-color="#FFD71B"/>
<stop offset="1" stop-color="#E69900"/>
</radialGradient>
</defs>
</svg>
