<svg width="77" height="61" viewBox="0 0 77 61" fill="none" xmlns="http://www.w3.org/2000/svg">
<path d="M46.4946 60.7521C63.1734 60.7521 76.6942 47.2438 76.6942 30.5804C76.6942 13.917 63.1734 0.408691 46.4946 0.408691C29.8158 0.408691 16.2949 13.917 16.2949 30.5804C16.2949 47.2438 29.8158 60.7521 46.4946 60.7521Z" fill="url(#paint0_radial_275_1682)"/>
<path d="M44.336 24.1064C43.7815 24.1064 43.2509 23.792 43.0052 23.256C42.1 21.3036 40.4157 18.8182 37.5324 18.0487C34.6491 17.2791 31.9486 18.5967 30.1893 19.8393C29.5269 20.3065 28.6127 20.1478 28.1452 19.486C27.6776 18.8242 27.8364 17.9109 28.4958 17.4438C31.7508 15.1471 35.1376 14.3775 38.2876 15.216C41.4376 16.0574 43.9883 18.411 45.6667 22.0223C46.0084 22.7559 45.6876 23.6273 44.9533 23.9686C44.7525 24.0615 44.5428 24.1064 44.336 24.1064Z" fill="#211206"/>
<path d="M65.3352 29.7059C64.7808 29.7059 64.2503 29.3914 64.0045 28.8554C63.0993 26.9031 61.4149 24.4177 58.5316 23.6482C55.6513 22.8786 52.9479 24.1961 51.1885 25.4388C50.5261 25.906 49.6121 25.7473 49.1445 25.0855C48.6769 24.4237 48.8358 23.5104 49.4981 23.0433C52.7561 20.7466 56.1399 19.977 59.2899 20.8155C62.44 21.6569 64.9906 24.0105 66.669 27.6217C67.0107 28.3554 66.69 29.2268 65.9557 29.5681C65.7549 29.6609 65.545 29.7059 65.3382 29.7059H65.3352Z" fill="#211206"/>
<path d="M47.9715 46.319C45.8734 46.319 43.6645 46.0316 41.4556 45.4447C35.0716 43.7409 29.9074 39.8212 28.304 35.4613C28.0252 34.7007 28.4148 33.8593 29.1761 33.5808C29.9374 33.3023 30.7796 33.6916 31.0583 34.4522C32.3232 37.8928 36.8069 41.1746 42.2109 42.615C47.6208 44.0583 53.1416 43.4474 55.956 41.0938C56.5764 40.5758 57.5025 40.6566 58.024 41.2765C58.5455 41.8963 58.4616 42.8216 57.8412 43.3426C55.5064 45.295 51.9427 46.325 47.9715 46.325V46.319Z" fill="#211206"/>
<path d="M30.3961 15.773C28.6128 15.1801 26.0502 18.0248 24.2609 20.4323L22.8402 16.6564L19.0668 6.63706C18.5632 5.30155 17.0706 4.62482 15.7338 5.12788C14.3971 5.63094 13.7198 7.12216 14.2233 8.45767L12.7247 4.4811C12.2212 3.14559 10.7286 2.46884 9.39182 2.9719C8.05508 3.47496 7.3777 4.96618 7.88123 6.30169L8.71446 8.51756C8.21093 7.18205 6.71837 6.50532 5.38162 7.00838C4.04488 7.51144 3.3675 9.00266 3.87103 10.3382L5.00997 13.3595C4.50645 12.024 3.01381 11.3473 1.67707 11.8503C0.340322 12.3534 -0.337054 13.8446 0.166473 15.1801L3.46638 23.9388L6.38564 31.6943L6.74529 32.6525C8.75939 37.9976 14.7268 40.7015 20.0768 38.6893C23.2808 37.4855 25.5377 34.8594 26.3979 31.8021C26.3979 31.8021 29.2272 23.28 31.1154 21.0971C33.0037 18.9142 33.3933 16.7702 30.3931 15.776L30.3961 15.773Z" fill="url(#paint1_linear_275_1682)"/>
<g style="mix-blend-mode:multiply">
<path d="M5.98661 6.85857C5.02151 7.51135 4.59885 8.76601 5.02745 9.90388L9.61016 22.0762L9.25651 24.6364L3.87058 10.3381C3.36705 9.00257 4.04442 7.51135 5.38117 7.00829C5.57898 6.93343 5.7828 6.8855 5.98361 6.86155L5.98661 6.85857Z" fill="#D3B589"/>
</g>
<g style="mix-blend-mode:multiply">
<path d="M20.6462 38.4527C20.4604 38.5366 20.2715 38.6144 20.0797 38.6863C14.7297 40.6986 8.75933 37.9946 6.74821 32.6496L0.169403 15.1772C-0.334124 13.8417 0.343252 12.3504 1.68 11.8474C1.87781 11.7725 2.08162 11.7246 2.28243 11.7007C1.31734 12.3534 0.891752 13.6081 1.32035 14.746L7.89916 32.2184C9.83834 37.3718 15.4521 40.0667 20.6462 38.4527Z" fill="#D3B589"/>
</g>
<g style="mix-blend-mode:multiply">
<path d="M9.99777 2.8222C9.03267 3.47498 8.60708 4.72966 9.03568 5.86753L14.4546 20.2557L14.1039 22.8129L7.88474 6.29873C7.38121 4.96322 8.05858 3.47199 9.39533 2.96892C9.59314 2.89406 9.79696 2.84616 9.99777 2.8222Z" fill="#D3B589"/>
</g>
<g style="mix-blend-mode:multiply">
<path d="M16.3395 4.98117C15.3744 5.63395 14.9489 6.88561 15.3775 8.02348L19.2978 18.4351L18.9441 20.9953L14.2236 8.45768C13.7201 7.12217 14.3974 5.63395 15.7371 5.13089C15.9349 5.05603 16.1387 5.00812 16.3395 4.98416V4.98117Z" fill="#D3B589"/>
</g>
<defs>
<radialGradient id="paint0_radial_275_1682" cx="0" cy="0" r="1" gradientUnits="userSpaceOnUse" gradientTransform="translate(52.0094 23.2351) scale(39.5839 39.5472)">
<stop stop-color="#FFEF99"/>
<stop offset="0.52" stop-color="#FFD71B"/>
<stop offset="1" stop-color="#E69900"/>
</radialGradient>
<linearGradient id="paint1_linear_275_1682" x1="11.9218" y1="2.91007" x2="23.5138" y2="38.185" gradientUnits="userSpaceOnUse">
<stop stop-color="#FFF1AA"/>
<stop offset="0.38" stop-color="#FCD38D"/>
<stop offset="0.76" stop-color="#F9BD77"/>
<stop offset="1" stop-color="#F9B570"/>
</linearGradient>
</defs>
</svg>
