<svg width="119" height="118" viewBox="0 0 119 118" fill="none" xmlns="http://www.w3.org/2000/svg">
<g clip-path="url(#clip0_185_474)">
<path d="M104.01 48.221C88.0008 8.45562 49.047 3.7093 29.3003 22.3556C9.55355 41.0018 3.87737 69.3801 22.6647 89.3027C41.4721 109.245 67.0549 108.806 81.3853 101.727C108.167 88.505 108.547 59.5085 103.99 48.221H104.01Z" fill="url(#paint0_radial_185_474)"/>
<ellipse cx="58.9604" cy="58.8305" rx="38.9738" ry="38.888" fill="#F44D4D" fill-opacity="0.79"/>
<path d="M22.9646 83.978C24.9625 83.978 26.5822 82.362 26.5822 80.3684C26.5822 78.3749 24.9625 76.7589 22.9646 76.7589C20.9667 76.7589 19.347 78.3749 19.347 80.3684C19.347 82.362 20.9667 83.978 22.9646 83.978Z" fill="#BC2424"/>
<path d="M85.5625 33.1445C87.5604 33.1445 89.1801 31.5284 89.1801 29.5349C89.1801 27.5414 87.5604 25.9253 85.5625 25.9253C83.5646 25.9253 81.9449 27.5414 81.9449 29.5349C81.9449 31.5284 83.5646 33.1445 85.5625 33.1445Z" fill="#BC2424"/>
<path d="M67.5746 98.9549C69.5725 98.9549 71.1922 97.3388 71.1922 95.3453C71.1922 93.3518 69.5725 91.7357 67.5746 91.7357C65.5767 91.7357 63.957 93.3518 63.957 95.3453C63.957 97.3388 65.5767 98.9549 67.5746 98.9549Z" fill="#BC2424"/>
<path d="M93.895 18.0166C91.6965 20.8883 91.9364 24.9766 94.5546 27.5691C97.0329 30.042 100.83 30.3611 103.668 28.5662C116.9 47.1327 117.439 72.0011 105.267 91.0462C105.267 92.2228 105.267 93.4194 105.267 94.6159C119.618 74.5338 119.638 47.3122 105.227 27.2301C107.766 24.3584 107.666 19.9909 104.908 17.2389C102.149 14.4868 98.2121 14.427 95.3341 16.5808C73.5887 -1.70655 41.4903 -1.54701 19.9048 17.0793C20.3845 17.5579 20.8442 18.0366 21.2639 18.5551C42.0299 0.666615 72.9491 0.46719 93.915 18.0166H93.895ZM103.469 18.6747C105.547 20.7488 105.547 24.0991 103.469 26.1731C101.39 28.2471 98.0323 28.2471 95.9537 26.1731C93.8751 24.0991 93.895 20.7288 95.9537 18.6747C98.0123 16.6206 101.39 16.6007 103.469 18.6747Z" fill="#6D6D6D" fill-opacity="0.65"/>
<path d="M16.7487 100.411L17.6881 99.4734C-1.27919 79.9696 -3.05799 49.8962 12.3916 28.4381C11.872 28.1988 11.3923 27.8797 10.9726 27.4409L10.7727 27.2415C-5.2765 49.4974 -3.41775 80.7075 16.309 100.929C16.4489 100.75 16.5688 100.57 16.7287 100.411H16.7487Z" fill="#FFD67B"/>
<path d="M5.976 39.1671C6.98049 39.1671 7.79478 38.3546 7.79478 37.3524C7.79478 36.3501 6.98049 35.5376 5.976 35.5376C4.97152 35.5376 4.15723 36.3501 4.15723 37.3524C4.15723 38.3546 4.97152 39.1671 5.976 39.1671Z" fill="#BC2424"/>
<path d="M20.6262 105.217C44.3302 123.564 78.5073 122.188 100.632 101.069C100.572 101.009 100.492 100.969 100.433 100.909L97.7743 98.2569C77.1482 117.86 45.3895 119.157 23.2644 102.206C22.405 103.223 21.5256 104.22 20.6062 105.217H20.6262Z" fill="#F97F75"/>
</g>
<defs>
<radialGradient id="paint0_radial_185_474" cx="0" cy="0" r="1" gradientUnits="userSpaceOnUse" gradientTransform="translate(58.6805 59.01) scale(47.3881 47.2838)">
<stop offset="0.03" stop-color="#FFACA6"/>
<stop offset="1" stop-color="#FF9997"/>
</radialGradient>
<clipPath id="clip0_185_474">
<rect width="119" height="118" fill="white"/>
</clipPath>
</defs>
</svg>
